<?xml version="1.0" encoding="UTF-8"?>
<svg id="_圖層_1" data-name="圖層 1" xmlns="http://www.w3.org/2000/svg" viewBox="0 0 1440 880">
  <defs>
    <style>
      .cls-1 {
        fill: #f1edeb;
      }
    </style>
  </defs>
  <path class="cls-1" d="M1130.04,52.31c-1.96,1.45-5.45,.31-7.8-2.57-2.35-2.86-2.68-6.36-.74-7.82,1.94-1.45,5.44-.33,7.82,2.54,2.36,2.85,2.67,6.37,.72,7.85Zm-12.88,6.89c-2.33,.8-5.03-1.43-6.1-4.97-1.02-3.6,0-7.14,2.3-7.95,2.31-.82,5,1.42,6.02,4.99,1.06,3.58,.05,7.12-2.23,7.94Zm18.12-20.39c-1.59,1.99-5.23,1.87-8.18-.16-2.88-2.13-4-5.39-2.44-7.37,1.57-1.98,5.19-1.87,8.11,.22,2.93,2.09,4.02,5.38,2.51,7.32Zm-32.44,17.35c-2.44,.19-4.55-2.57-4.62-6.18-.08-3.61,1.85-6.69,4.35-6.89,2.51-.2,4.57,2.56,4.71,6.16,.02,3.59-1.92,6.7-4.44,6.91Zm-7.32-21.16c-.97-1.67-.67-4.25,.51-5.78,2.44-3.21,7.89-2.17,11.48-4.09,3.58-1.92,5.74-7.19,9.77-7.27,2.27-.08,4.76,1.62,5.57,3.7,1.1,2.88-1.36,6.05-2.23,9.05-1.19,3.92-.45,9.69-4.08,11.62-3.6,1.93-8.01-1.78-11.83-3.11-3.17-1.14-7.49-1.23-9.18-4.12Z"/>
  <path class="cls-1" d="M1050.54,60.82c-1.96,1.45-5.45,.31-7.8-2.57-2.35-2.86-2.68-6.36-.74-7.82,1.94-1.45,5.44-.33,7.82,2.54,2.36,2.85,2.67,6.37,.72,7.85Zm-12.88,6.89c-2.33,.8-5.03-1.43-6.1-4.97-1.02-3.6,0-7.14,2.3-7.95,2.31-.82,5,1.42,6.02,4.99,1.06,3.58,.05,7.12-2.23,7.94Zm18.12-20.39c-1.59,1.99-5.23,1.87-8.18-.16-2.88-2.13-4-5.39-2.44-7.37,1.57-1.98,5.19-1.87,8.11,.22,2.93,2.09,4.02,5.38,2.51,7.32Zm-32.44,17.35c-2.44,.19-4.55-2.57-4.62-6.18-.08-3.61,1.85-6.69,4.35-6.89,2.51-.2,4.57,2.56,4.71,6.16,.02,3.59-1.92,6.7-4.44,6.91Zm-7.32-21.16c-.97-1.67-.67-4.25,.51-5.78,2.44-3.21,7.89-2.17,11.48-4.09,3.58-1.92,5.74-7.19,9.77-7.27,2.27-.08,4.76,1.62,5.57,3.7,1.1,2.88-1.36,6.05-2.23,9.05-1.19,3.92-.45,9.69-4.08,11.62-3.6,1.93-8.01-1.78-11.83-3.11-3.17-1.14-7.49-1.23-9.18-4.12Z"/>
  <path class="cls-1" d="M218.63,821.03c-2.44-1.71-2.48-6.19-.06-10.02,2.4-3.83,6.31-5.57,8.76-3.89,2.43,1.67,2.5,6.17,.1,10.03-2.39,3.84-6.33,5.56-8.8,3.88Zm-12.98-12.22c-1.83-2.38-.3-6.38,3.38-8.99,3.76-2.58,8.26-2.77,10.09-.43,1.85,2.35,.3,6.33-3.43,8.9-3.72,2.61-8.22,2.82-10.05,.51Zm30.63,13.04c-2.92-1.07-4.19-5.32-2.99-9.52,1.35-4.16,4.68-6.73,7.58-5.69,2.9,1.05,4.18,5.28,2.9,9.47-1.28,4.2-4.67,6.74-7.49,5.74Zm-32.67-30.78c-1.17-2.75,1.21-6.26,5.35-7.75,4.14-1.5,8.46-.46,9.66,2.36,1.21,2.82-1.19,6.27-5.29,7.85-4.15,1.42-8.5,.38-9.72-2.46Zm21.64-16.68c1.55-1.77,4.65-2.43,6.89-1.66,4.67,1.58,5.58,8.28,9.19,11.69,3.61,3.4,10.55,3.85,12.21,8.47,.97,2.6-.02,6.14-2.12,7.88-2.9,2.39-7.53,.78-11.33,.94-4.99,.15-11.38,3.24-15.03-.2-3.63-3.42-1.05-9.95-1-14.9,.09-4.11-1.49-9.14,1.2-12.21Z"/>
</svg>