<?xml version="1.0" encoding="UTF-8"?>
<svg id="_圖層_1" data-name="圖層 1" xmlns="http://www.w3.org/2000/svg" viewBox="0 0 1440 851">
  <defs>
    <style>
      .cls-1, .cls-2 {
        fill: #e7e1db;
      }

      .cls-2 {
        fill-rule: evenodd;
      }
    </style>
  </defs>
  <path class="cls-2" d="M1420.54,188.85c-3.19,26.14,3.31,55.73-13.16,76.27-16.59,20.69-45.71,26.26-71.97,29.89-23.91,3.3-47.4-2.31-70.18-10.27-22.03-7.7-41.14-19.93-59.04-34.9-21.16-17.7-49.67-32.9-54.46-60.07-4.8-27.2,17.2-51.04,30.62-75.17,12.52-22.53,24.85-44.9,45.05-60.9,21.87-17.33,46.77-34.44,74.67-33.93,27.85,.52,51.08,19.73,73.19,36.67,20.8,15.94,42.05,33.34,50.53,58.14,8.19,23.97-2.17,49.13-5.25,74.28Z"/>
  <path class="cls-1" d="M490.6,149.88c3.98-2.93,11.06-.63,15.83,5.21,4.75,5.81,5.45,12.89,1.48,15.86-3.93,2.95-11.04,.67-15.85-5.15-4.79-5.79-5.41-12.91-1.47-15.91Zm26.13-13.98c4.72-1.63,10.2,2.89,12.36,10.09,2.07,7.29,0,14.48-4.66,16.12-4.7,1.66-10.14-2.88-12.23-10.11-2.14-7.25-.08-14.44,4.53-16.1Zm-36.74,41.35c3.21-4.03,10.61-3.79,16.58,.33,5.85,4.33,8.12,10.94,4.94,14.95-3.18,4.01-10.52,3.79-16.45-.44-5.94-4.23-8.16-10.92-5.07-14.83Zm65.78-35.19c4.95-.38,9.22,5.21,9.38,12.53,.16,7.32-3.76,13.57-8.84,13.97-5.08,.41-9.26-5.19-9.55-12.49-.05-7.28,3.89-13.59,9-14.01Zm14.84,42.91c1.97,3.38,1.36,8.61-1.02,11.73-4.95,6.51-16,4.41-23.27,8.3-7.27,3.89-11.65,14.58-19.82,14.75-4.61,.15-9.65-3.28-11.28-7.51-2.24-5.83,2.75-12.27,4.51-18.35,2.41-7.94,.92-19.64,8.27-23.57,7.31-3.91,16.25,3.62,24,6.31,6.43,2.32,15.19,2.49,18.61,8.35Z"/>
  <path class="cls-1" d="M1233.05,798.06c2.1-1.55,5.83-.33,8.35,2.75,2.5,3.06,2.87,6.79,.78,8.36-2.07,1.55-5.82,.35-8.35-2.72-2.53-3.05-2.86-6.8-.78-8.39Zm13.78-7.37c2.48-.86,5.37,1.53,6.51,5.32,1.09,3.84,0,7.63-2.45,8.5-2.48,.88-5.35-1.52-6.45-5.33-1.13-3.82-.04-7.61,2.39-8.49Zm-19.37,21.8c1.69-2.12,5.59-2,8.74,.17,3.08,2.28,4.28,5.77,2.6,7.88-1.67,2.11-5.54,2-8.67-.23-3.13-2.23-4.3-5.76-2.67-7.82Zm34.67-18.55c2.61-.2,4.86,2.75,4.95,6.6,.08,3.86-1.98,7.15-4.66,7.37-2.68,.21-4.88-2.74-5.03-6.58-.03-3.84,2.04-7.16,4.74-7.39Zm7.82,22.62c1.04,1.78,.72,4.54-.54,6.18-2.61,3.43-8.43,2.32-12.26,4.37-3.84,2.05-6.15,7.69-10.45,7.78-2.43,.08-5.09-1.73-5.94-3.96-1.18-3.08,1.45-6.47,2.37-9.68,1.28-4.19,.49-10.36,4.36-12.43,3.85-2.06,8.57,1.91,12.65,3.33,3.39,1.22,8.01,1.31,9.81,4.4Z"/>
  <path class="cls-1" d="M1312.58,809.52c2.1-1.55,5.83-.33,8.34,2.75,2.51,3.06,2.87,6.79,.79,8.36-2.07,1.56-5.82,.35-8.36-2.72-2.52-3.05-2.85-6.8-.77-8.39Zm13.77-7.37c2.49-.86,5.38,1.53,6.52,5.32,1.09,3.84,0,7.63-2.46,8.5-2.47,.88-5.34-1.52-6.44-5.33-1.13-3.82-.05-7.61,2.38-8.49Zm-19.37,21.8c1.7-2.12,5.59-2,8.74,.17,3.08,2.28,4.28,5.77,2.61,7.88-1.68,2.11-5.55,1.99-8.67-.23-3.13-2.23-4.3-5.76-2.68-7.82Zm34.68-18.55c2.61-.2,4.86,2.75,4.94,6.61,.09,3.86-1.98,7.15-4.65,7.36-2.68,.21-4.88-2.74-5.04-6.58-.02-3.84,2.05-7.16,4.75-7.39Zm7.82,22.62c1.04,1.78,.72,4.54-.54,6.18-2.61,3.43-8.43,2.32-12.27,4.37-3.83,2.05-6.14,7.69-10.44,7.78-2.43,.08-5.09-1.73-5.95-3.96-1.18-3.08,1.45-6.47,2.38-9.68,1.27-4.19,.48-10.36,4.36-12.43,3.85-2.06,8.56,1.91,12.65,3.33,3.39,1.22,8.01,1.31,9.81,4.4Z"/>
  <path class="cls-1" d="M47.92,705.69c3.29,1.66,4.2,7.17,1.98,12.35-2.2,5.16-6.63,8.04-9.95,6.41-3.29-1.61-4.21-7.14-2.02-12.35,2.18-5.18,6.66-8.02,9.99-6.42Zm18.15,12.67c2.69,2.59,1.58,7.8-2.43,11.7-4.1,3.87-9.54,4.95-12.22,2.4-2.7-2.57-1.57-7.76,2.48-11.62,4.05-3.91,9.49-4.99,12.16-2.48Zm-39.83-10.4c3.76,.77,6.12,5.79,5.45,11.18-.85,5.38-4.44,9.16-8.17,8.41-3.73-.75-6.09-5.73-5.33-11.14,.76-5.41,4.41-9.18,8.05-8.46Zm45.69,31.9c1.95,3.18-.28,7.94-5.05,10.55-4.77,2.61-10.23,2.13-12.23-1.12-2.01-3.25,.26-7.95,4.97-10.64,4.79-2.52,10.29-2.05,12.32,1.22Zm-23.22,24.58c-1.55,2.47-5.21,3.85-8.08,3.33-5.99-1.08-8.37-9.18-13.43-12.7-5.05-3.53-13.6-2.8-16.5-8.19-1.68-3.02-1.14-7.57,1.09-10.1,3.08-3.49,9.03-2.36,13.64-3.26,6.06-1.1,13.27-6.1,18.37-2.54,5.08,3.55,3.17,12.09,4.04,18.19,.67,5.08,3.55,10.99,.86,15.28Z"/>
</svg>