<?xml version="1.0" encoding="UTF-8"?>
<svg id="_圖層_1" data-name="圖層 1" xmlns="http://www.w3.org/2000/svg" viewBox="0 0 1440 728">
  <defs>
    <style>
      .cls-1 {
        fill: #f1edeb;
      }
    </style>
  </defs>
  <path class="cls-1" d="M1008.24,66.86c3.3-2.43,9.16-.52,13.11,4.32,3.95,4.81,4.51,10.68,1.24,13.14-3.25,2.44-9.15,.55-13.14-4.27-3.96-4.8-4.48-10.7-1.21-13.19Zm21.64-11.58c3.91-1.35,8.46,2.4,10.25,8.36,1.71,6.04,0,12-3.87,13.36-3.88,1.38-8.39-2.38-10.12-8.38-1.78-6.01-.08-11.96,3.74-13.34Zm-30.45,34.27c2.67-3.34,8.79-3.14,13.74,.27,4.84,3.58,6.73,9.06,4.1,12.39-2.64,3.32-8.72,3.14-13.63-.37-4.92-3.51-6.76-9.05-4.21-12.29Zm54.51-29.16c4.1-.32,7.64,4.32,7.76,10.38,.14,6.06-3.11,11.24-7.31,11.58-4.21,.34-7.67-4.3-7.92-10.35-.03-6.04,3.22-11.26,7.47-11.61Zm12.29,35.56c1.63,2.8,1.13,7.14-.85,9.72-4.1,5.4-13.25,3.65-19.29,6.88-6.02,3.22-9.65,12.08-16.41,12.22-3.82,.13-8-2.72-9.35-6.22-1.85-4.83,2.28-10.17,3.74-15.21,2-6.58,.75-16.28,6.85-19.53,6.05-3.24,13.45,3,19.88,5.23,5.33,1.92,12.59,2.06,15.42,6.92Z"/>
  <path class="cls-1" d="M1112.65,64.12c3.3-2.43,9.16-.52,13.11,4.32,3.95,4.81,4.51,10.68,1.24,13.14-3.25,2.44-9.15,.55-13.14-4.27-3.96-4.8-4.48-10.7-1.21-13.19Zm21.64-11.58c3.91-1.35,8.46,2.4,10.25,8.36,1.71,6.04,0,12-3.87,13.36-3.88,1.38-8.39-2.38-10.12-8.38-1.78-6.01-.08-11.96,3.74-13.34Zm-30.45,34.27c2.67-3.34,8.79-3.14,13.74,.27,4.84,3.58,6.73,9.06,4.1,12.39-2.64,3.32-8.72,3.14-13.63-.37-4.92-3.51-6.76-9.05-4.21-12.29Zm54.51-29.16c4.1-.32,7.64,4.32,7.76,10.38,.14,6.06-3.11,11.24-7.31,11.58-4.21,.34-7.67-4.3-7.92-10.35-.03-6.04,3.22-11.26,7.47-11.61Zm12.29,35.56c1.63,2.8,1.13,7.14-.85,9.72-4.1,5.4-13.25,3.65-19.29,6.88-6.02,3.22-9.65,12.08-16.41,12.22-3.82,.13-8-2.72-9.35-6.22-1.85-4.83,2.28-10.17,3.74-15.21,2-6.58,.75-16.28,6.85-19.53,6.05-3.24,13.45,3,19.88,5.23,5.33,1.92,12.59,2.06,15.42,6.92Z"/>
  <path class="cls-1" d="M300.32,693.67c-2.44-1.7-2.49-6.18-.08-10.02,2.39-3.83,6.29-5.59,8.75-3.91,2.44,1.67,2.51,6.16,.12,10.03-2.38,3.84-6.31,5.57-8.79,3.9Zm-13.01-12.19c-1.84-2.38-.32-6.37,3.36-9,3.76-2.58,8.25-2.79,10.09-.45,1.85,2.35,.32,6.33-3.4,8.91-3.72,2.62-8.21,2.84-10.05,.53Zm30.66,12.96c-2.92-1.06-4.2-5.31-3.01-9.51,1.34-4.16,4.67-6.74,7.57-5.71,2.9,1.04,4.19,5.27,2.92,9.46-1.27,4.2-4.65,6.76-7.47,5.76Zm-32.75-30.71c-1.17-2.75,1.19-6.26,5.33-7.76,4.14-1.51,8.46-.48,9.66,2.33,1.21,2.82-1.17,6.28-5.27,7.86-4.14,1.43-8.49,.41-9.73-2.43Zm21.59-16.73c1.55-1.78,4.64-2.44,6.88-1.68,4.67,1.56,5.6,8.26,9.22,11.66,3.62,3.39,10.56,3.82,12.23,8.44,.98,2.6,0,6.14-2.1,7.88-2.89,2.4-7.53,.8-11.33,.97-4.99,.16-11.37,3.27-15.03-.17-3.64-3.41-1.07-9.95-1.03-14.89,.08-4.11-1.51-9.14,1.17-12.22Z"/>
</svg>