<svg width="126" height="90" viewBox="0 0 126 90" fill="none" xmlns="http://www.w3.org/2000/svg">
<path d="M10.427 63.7473C8.40116 68.0174 8.12178 72.9332 9.65033 77.4133C11.1789 81.8934 14.3901 85.5709 18.5777 87.6366C22.7652 89.7024 27.586 89.9873 31.9795 88.4286C36.373 86.8699 39.9794 83.5954 42.0052 79.3253C44.0045 75.0539 44.2695 70.1483 42.7263 65.679L91.6914 48.3078C93.2024 52.785 96.3929 56.4686 100.563 58.5508C104.751 60.6166 109.572 60.9015 113.965 59.3428C118.359 57.7841 121.965 54.5095 123.991 50.2395C126.017 45.9694 126.296 41.0536 124.767 36.5735C123.239 32.0934 120.028 28.4159 115.84 26.3502C117.866 22.0801 118.145 17.1643 116.617 12.6842C115.088 8.20404 111.877 4.5266 107.689 2.46083C103.502 0.395063 98.6811 0.110185 94.2875 1.66886C89.894 3.22754 86.2877 6.5021 84.2618 10.7722C82.2595 15.0443 82.0002 19.9517 83.5407 24.4185L34.5756 41.7897C33.0651 37.3088 29.8714 33.6302 25.7039 31.5467C21.5163 29.4809 16.6955 29.196 12.302 30.7547C7.9085 32.3134 4.30214 35.5879 2.27631 39.858C0.25047 44.1281 -0.0289005 49.0439 1.49965 53.524C3.02819 58.0041 6.23946 61.6815 10.427 63.7473Z" fill="#E7E1DB"/>
</svg>
