<svg width="69" height="69" viewBox="0 0 69 69" fill="none" xmlns="http://www.w3.org/2000/svg">
<path d="M6.1396 15.7495C8.9546 12.9062 14.9119 13.8298 19.4783 17.8666C24.0244 21.8766 25.482 27.4221 22.6872 30.2922C19.9192 33.1421 13.9351 32.2387 9.34203 28.2221C4.76914 24.2324 3.36507 18.6464 6.1396 15.7495ZM25.2814 1.27854C28.8518 -0.621259 33.8165 2.2729 36.4618 7.71988C39.0471 13.2543 38.3115 19.2378 34.7881 21.1441C31.2379 23.0707 26.3 20.1563 23.7082 14.6688C21.0694 9.17484 21.8051 3.19139 25.2814 1.27854ZM1.12669 38.8925C3.18696 35.2734 9.13787 34.519 14.4435 37.0293C19.6759 39.721 22.3395 44.6914 20.306 48.2902C18.2725 51.8891 12.3686 52.65 7.07612 50.0457C1.7836 47.4414 -0.846723 42.4038 1.12669 38.8925ZM49.3159 2.46203C53.2323 1.52077 57.3618 5.42497 58.4244 11.227C59.487 17.0291 57.1452 22.5018 53.1282 23.477C49.1113 24.4522 45.0555 20.5343 43.8924 14.7662C42.9239 8.97723 45.2722 3.45747 49.3159 2.46203ZM66.6628 34.7019C68.6724 37.1375 68.8497 41.379 67.3366 44.1637C64.2041 49.9818 55.0878 49.7213 49.7602 53.7489C44.4327 57.7764 42.2858 66.8462 35.7727 68.0256C32.1038 68.7377 27.6255 66.6539 25.7877 63.4994C23.2539 59.1461 26.4269 53.3816 27.0587 48.3181C27.9798 41.6896 25.2936 32.5711 30.6747 28.5031C36.0291 24.4552 44.1493 29.2973 50.6982 30.447C56.139 31.4666 63.1764 30.4798 66.6628 34.7019Z" fill="#F1EDEB"/>
</svg>
