<svg width="278" height="277" viewBox="0 0 278 277" fill="none" xmlns="http://www.w3.org/2000/svg">
<path fill-rule="evenodd" clip-rule="evenodd" d="M269.542 169.855C266.345 195.995 272.85 225.587 256.376 246.129C239.786 266.816 210.668 272.392 184.405 276.016C160.501 279.314 137.008 273.706 114.23 265.743C92.204 258.042 73.0868 245.816 55.1911 230.841C34.0342 213.138 5.51859 197.939 0.728149 170.766C-4.06627 143.571 17.9274 119.73 31.3481 95.5957C43.8744 73.0699 56.1955 50.6931 76.3977 34.6912C98.2734 17.3639 123.173 0.247556 151.071 0.765422C178.916 1.28231 202.15 20.4946 224.257 37.436C245.057 53.3764 266.306 70.7758 274.787 95.5759C282.984 119.546 272.617 144.708 269.542 169.855Z" fill="#E7E1DB"/>
</svg>
