<svg width="37" height="37" viewBox="0 0 37 37" fill="none" xmlns="http://www.w3.org/2000/svg">
<g id="OBJECTS" clip-path="url(#clip0_663_5337)">
<path id="Vector" d="M16.3798 23.2582C17.0125 23.8909 17.0125 24.9195 16.3798 25.5522C15.7508 26.1812 14.737 26.1849 14.1006 25.567C14.0969 25.5633 14.0895 25.5559 14.0858 25.5522L11.4477 22.9141C11.4477 22.9141 11.4366 22.903 11.4329 22.8993C10.815 22.2666 10.8187 21.2491 11.4477 20.6201C12.0767 19.9911 13.109 19.9874 13.7417 20.6201L16.3798 23.2582Z" fill="#6ECDFB"/>
<path id="Vector_2" d="M20.9642 18.6739C21.5969 19.3066 21.5969 20.3352 20.9642 20.9679C20.3315 21.6006 19.3029 21.6006 18.6702 20.9679L16.0321 18.3298C15.3994 17.6971 15.3994 16.6685 16.0321 16.0358C16.6648 15.4031 17.6897 15.4031 18.3261 16.0358L20.9642 18.6739Z" fill="#6ECDFB"/>
<path id="Vector_3" d="M25.5669 14.1008C26.1848 14.7335 26.1811 15.751 25.5521 16.38C24.9194 17.0127 23.8908 17.0127 23.2581 16.38L20.62 13.7419C19.9873 13.1092 19.9873 12.0806 20.62 11.4479C21.249 10.8189 22.2628 10.8152 22.8992 11.4331L25.5669 14.1008Z" fill="#6ECDFB"/>
<path id="Vector_4" d="M23.2582 16.38C23.8909 17.0127 23.8909 18.0413 23.2582 18.674C22.6255 19.3067 21.5969 19.3067 20.9642 18.674L18.3261 16.0359C17.6934 15.4032 17.6934 14.3746 18.3261 13.7419C18.9588 13.1092 19.9874 13.1092 20.6201 13.7419L23.2582 16.38Z" fill="#1895C2"/>
<path id="Vector_5" d="M18.6742 20.9642C19.3069 21.5969 19.3069 22.6255 18.6742 23.2582C18.0415 23.8909 17.0129 23.8909 16.3802 23.2582L13.7421 20.6201C13.1094 19.9874 13.1094 18.9588 13.7421 18.3261C14.3748 17.6934 15.4034 17.6934 16.0361 18.3261L18.6742 20.9642Z" fill="#1895C2"/>
<path id="Vector_6" d="M15.3884 26.851L10.1455 21.6081C8.88745 20.3501 6.84505 20.3501 5.58705 21.6081C4.32905 22.8661 4.32905 24.9085 5.58705 26.1665L10.83 31.4094C12.088 32.6674 14.1304 32.6674 15.3884 31.4094C16.6464 30.1514 16.6464 28.109 15.3884 26.851Z" fill="#C2DC71"/>
<path id="Vector_7" d="M31.4128 10.83L26.1699 5.58705C24.9119 4.32905 22.8695 4.32905 21.6115 5.58705C20.3535 6.84505 20.3535 8.88745 21.6115 10.1455L26.8544 15.3884C28.1124 16.6464 30.1548 16.6464 31.4128 15.3884C32.6708 14.1304 32.6708 12.088 31.4128 10.83Z" fill="#C2DC71"/>
<path id="Vector_8" d="M5.58732 26.1702C5.58732 26.1702 3.75952 26.7252 1.52102 27.6687C0.0780202 28.2792 0.17792 31.402 2.88632 34.1104C5.59472 36.8188 8.71752 36.9224 9.32802 35.4757C10.2715 33.2372 10.8265 31.4094 10.8265 31.4094L5.58362 26.1665L5.58732 26.1702Z" fill="#8AA92C"/>
<path id="Vector_9" d="M34.1101 2.88595C31.4017 0.177552 28.2789 0.0739518 27.6684 1.52065C26.7249 3.75915 26.1699 5.58695 26.1699 5.58695L31.4128 10.8299C31.4128 10.8299 33.2406 10.2749 35.4791 9.33135C36.9221 8.72085 36.8222 5.59805 34.1138 2.88965L34.1101 2.88595Z" fill="#8AA92C"/>
<path id="Vector_10" d="M4.37001 31.783L3.66701 32.486C3.43391 32.7191 3.43391 33.0965 3.66701 33.3296C3.78171 33.448 3.93711 33.5035 4.08881 33.5035C4.24051 33.5035 4.39591 33.4443 4.51061 33.3296L5.21361 32.6266C5.44671 32.3935 5.44671 32.0161 5.21361 31.783C4.98051 31.5499 4.60311 31.5499 4.37001 31.783Z" fill="#591200"/>
<path id="Vector_11" d="M34.5361 2.46416C32.7453 0.673362 30.4846 -0.266438 28.7789 0.066562C27.976 0.221962 27.3877 0.658562 27.1213 1.29126C26.5478 2.64916 26.1186 3.84796 25.867 4.59906C24.3981 3.71106 22.4556 3.90346 21.1902 5.16886C19.7287 6.63036 19.7028 8.98726 21.1014 10.4821C20.7647 10.5894 20.4539 10.7744 20.1986 11.0297C19.7472 11.4811 19.5326 12.0805 19.5511 12.6725C19.5252 12.6725 19.4993 12.6725 19.4734 12.6725C18.8814 12.6725 18.3227 12.9019 17.9046 13.3237C17.4532 13.7751 17.2386 14.3745 17.2571 14.9665C17.2312 14.9665 17.2053 14.9665 17.1794 14.9665C16.5874 14.9665 16.0287 15.1959 15.6106 15.6177C15.1925 16.0358 14.9594 16.5945 14.9594 17.1865C14.9594 17.2124 14.9594 17.2383 14.9594 17.2642C14.3674 17.242 13.768 17.4603 13.3166 17.9117C12.8652 18.3631 12.6506 18.9625 12.6691 19.5545C12.6432 19.5545 12.6173 19.5545 12.5914 19.5545C11.9994 19.5545 11.4407 19.7839 11.0226 20.2057C10.7599 20.4684 10.5786 20.7792 10.475 21.1085C9.76461 20.4425 8.84331 20.0762 7.86281 20.0762C6.88231 20.0762 5.88331 20.4721 5.16181 21.1936C4.44031 21.9151 4.04441 22.8734 4.04441 23.8946C4.04441 24.6013 4.23681 25.2784 4.59201 25.8704C3.84091 26.1257 2.64211 26.5512 1.28791 27.1247C0.655208 27.3911 0.222308 27.9794 0.0632077 28.7823C-0.269792 30.488 0.673707 32.745 2.46451 34.5358C4.01481 36.0861 5.92031 37 7.50761 37C7.75181 37 7.98861 36.9778 8.21801 36.9334C9.02091 36.778 9.60921 36.3414 9.87561 35.7087C10.4491 34.3508 10.8783 33.152 11.1299 32.4009C12.5988 33.2889 14.5413 33.0965 15.8067 31.8311C16.5282 31.1096 16.9241 30.1513 16.9241 29.1301C16.9241 28.1089 16.5578 27.2283 15.8918 26.5179C16.2211 26.4143 16.5356 26.233 16.7946 25.9703C17.2127 25.5522 17.4458 24.9935 17.4458 24.4015C17.4458 24.3756 17.4458 24.3497 17.4458 24.3238C18.0378 24.3423 18.6372 24.1277 19.0886 23.6763C19.54 23.2249 19.7546 22.6255 19.7361 22.0335C19.762 22.0335 19.7879 22.0335 19.8138 22.0335C20.4058 22.0335 20.9645 21.8041 21.3826 21.3823C21.834 20.9309 22.0486 20.3315 22.0301 19.7395C22.056 19.7395 22.0819 19.7395 22.1078 19.7395C22.6998 19.7395 23.2585 19.5101 23.6766 19.0883C24.0947 18.6702 24.3278 18.1115 24.3278 17.5195C24.3278 17.4936 24.3278 17.4677 24.3278 17.4418C24.9198 17.464 25.5192 17.2457 25.9706 16.7943C26.2333 16.5316 26.4146 16.2208 26.5182 15.8915C28.013 17.2938 30.3736 17.2642 31.8314 15.8064C33.0968 14.541 33.2892 12.5985 32.4012 11.1296C33.1523 10.8743 34.3511 10.4488 35.709 9.87526C36.3417 9.60886 36.7746 9.02056 36.9337 8.21766C37.2667 6.51196 36.3232 4.25496 34.5324 2.46416H34.5361ZM8.78041 35.2462C8.64351 35.5718 8.27721 35.7087 7.99231 35.7605C6.90451 35.9714 5.03601 35.4127 3.31181 33.6885C1.58761 31.9643 1.02891 30.0921 1.23981 29.008C1.29531 28.7231 1.42851 28.3568 1.75781 28.2199C3.38211 27.5354 4.80291 27.0507 5.42821 26.8472L5.98691 27.4059L2.30911 30.081C2.04271 30.2734 1.98351 30.6471 2.17591 30.9135C2.36831 31.1799 2.74201 31.2391 3.00841 31.0467L6.83791 28.2606L7.36701 28.7897L6.09051 30.0662C5.85741 30.2993 5.85741 30.6767 6.09051 30.9098C6.32361 31.1429 6.70101 31.1429 6.93411 30.9098L8.21061 29.6333L8.73971 30.1624L5.95361 33.9919C5.76121 34.2583 5.82041 34.632 6.08681 34.8244C6.35321 35.0168 6.72691 34.9576 6.91931 34.6912L9.59441 31.0134L10.1531 31.5721C9.94961 32.1974 9.46861 33.6145 8.78041 35.2425V35.2462ZM14.9668 30.9912C13.9456 32.0124 12.2843 32.0161 11.2594 30.9986C11.2557 30.9949 11.2483 30.9875 11.2446 30.9838L10.0458 29.785C10.0051 29.7147 9.94961 29.6555 9.88301 29.6037C9.86821 29.5926 9.84971 29.5815 9.83491 29.5704L7.43361 27.1691C7.43361 27.1691 7.41141 27.1358 7.40031 27.121C7.34851 27.0507 7.28931 26.9952 7.21901 26.9582L6.02021 25.7594C6.02021 25.7594 6.00911 25.7483 6.00541 25.7446C5.51331 25.2488 5.24321 24.5939 5.24321 23.8946C5.24321 23.1953 5.51701 22.533 6.01281 22.0372C6.50861 21.5414 7.16721 21.2676 7.87021 21.2676C8.57321 21.2676 9.23181 21.5414 9.72761 22.0372L14.9705 27.2801C15.4663 27.7759 15.7401 28.4345 15.7401 29.1375C15.7401 29.8405 15.4663 30.4991 14.9705 30.9949L14.9668 30.9912ZM25.127 15.9581C24.7274 16.3577 24.0762 16.3577 23.6766 15.9581L22.1818 14.4633C21.9487 14.2302 21.5713 14.2302 21.3382 14.4633C21.1051 14.6964 21.1051 15.0738 21.3382 15.3069L22.833 16.8017C23.0254 16.9941 23.1327 17.2531 23.1327 17.5269C23.1327 17.8007 23.0254 18.056 22.833 18.2521C22.6406 18.4482 22.3816 18.5518 22.1078 18.5518C21.834 18.5518 21.5787 18.4445 21.3826 18.2521C21.1495 18.019 20.7721 18.019 20.539 18.2521C20.4243 18.3668 20.3651 18.5222 20.3651 18.6739C20.3651 18.8256 20.4243 18.981 20.539 19.0957C20.9386 19.4953 20.9386 20.1465 20.539 20.5461C20.3466 20.7385 20.0876 20.8458 19.8138 20.8458C19.54 20.8458 19.2847 20.7385 19.0886 20.5461L18.1673 19.6248C17.9342 19.3917 17.5568 19.3917 17.3237 19.6248C17.0906 19.8579 17.0906 20.2353 17.3237 20.4684L18.245 21.3897C18.6446 21.7893 18.6446 22.4405 18.245 22.8401C17.8454 23.2397 17.1942 23.2397 16.7946 22.8401C16.5615 22.607 16.1841 22.607 15.951 22.8401C15.8363 22.9548 15.7771 23.1102 15.7771 23.2619C15.7771 23.4136 15.8363 23.569 15.951 23.6837C16.1434 23.8761 16.2507 24.1351 16.2507 24.4089C16.2507 24.6827 16.1434 24.9417 15.951 25.1341C15.5514 25.5337 14.9002 25.5337 14.5006 25.1341L11.8625 22.496C11.4629 22.0964 11.4629 21.4452 11.8625 21.0456C12.0549 20.8532 12.3139 20.7459 12.5877 20.7459C12.8615 20.7459 13.1168 20.8532 13.3129 21.0456L14.2342 21.9669C14.4673 22.2 14.8447 22.2 15.0778 21.9669C15.3109 21.7338 15.3109 21.3564 15.0778 21.1233L14.1565 20.202C13.7569 19.8024 13.7569 19.1512 14.1565 18.7516C14.5561 18.352 15.2073 18.352 15.6069 18.7516C15.84 18.9847 16.2174 18.9847 16.4505 18.7516C16.5652 18.6369 16.6244 18.4815 16.6244 18.3298C16.6244 18.1781 16.5652 18.0227 16.4505 17.908C16.0509 17.5084 16.0509 16.8572 16.4505 16.4576C16.8501 16.058 17.5013 16.058 17.9009 16.4576L18.8222 17.3789C19.0553 17.612 19.4327 17.612 19.6658 17.3789C19.8989 17.1458 19.8989 16.7684 19.6658 16.5353L18.7445 15.614C18.3449 15.2144 18.3449 14.5632 18.7445 14.1636C18.9369 13.9712 19.1959 13.8639 19.4697 13.8639C19.7435 13.8639 19.9988 13.9712 20.1949 14.1636C20.428 14.3967 20.8054 14.3967 21.0385 14.1636C21.1532 14.0489 21.2124 13.8935 21.2124 13.7418C21.2124 13.5901 21.1532 13.4347 21.0385 13.32C20.6389 12.9204 20.6389 12.2692 21.0385 11.8696C21.2309 11.6772 21.4899 11.5699 21.7637 11.5699C22.0375 11.5699 22.2928 11.6772 22.4889 11.8696L25.1307 14.5114C25.5229 14.911 25.5229 15.5585 25.1233 15.9544L25.127 15.9581ZM30.9878 14.9665C30.492 15.4623 29.8334 15.7361 29.1304 15.7361C28.4274 15.7361 27.7688 15.4623 27.273 14.9665L25.978 13.6715L25.9706 13.6641C25.9706 13.6641 25.9706 13.6641 25.9669 13.6604L22.0338 9.72726C21.0089 8.70236 21.0089 7.03736 22.0338 6.01246C23.055 4.99126 24.7163 4.98756 25.7412 6.00506C25.7449 6.00876 25.7523 6.01616 25.756 6.01986L26.9511 7.21866C26.9918 7.28896 27.0473 7.34816 27.1139 7.39996C27.1287 7.41106 27.1472 7.42216 27.162 7.43326L28.3608 8.63206C28.3608 8.63206 28.3608 8.63206 28.3645 8.63576C28.3645 8.63576 28.3645 8.63576 28.3682 8.63946L29.567 9.83826C29.567 9.83826 29.5892 9.87156 29.6003 9.88636C29.6521 9.95666 29.7113 10.0085 29.7816 10.0492L30.9804 11.248C30.9804 11.248 30.9915 11.2591 30.9952 11.2628C32.0127 12.2877 32.0127 13.949 30.9878 14.9702V14.9665ZM35.7608 7.99196C35.7053 8.27686 35.5721 8.64316 35.2465 8.78006C33.6222 9.46456 32.2014 9.94926 31.5761 10.1528L31.0174 9.59406L34.6952 6.91896C34.9616 6.72656 35.0208 6.35286 34.8284 6.08646C34.636 5.82006 34.2623 5.76086 33.9959 5.95326L30.1664 8.73936L29.6373 8.21026L30.9138 6.93376C31.1469 6.70066 31.1469 6.32326 30.9138 6.09016C30.6807 5.85706 30.3033 5.85706 30.0702 6.09016L28.7937 7.36666L28.2646 6.83756L31.0507 3.00806C31.2431 2.74166 31.1839 2.36796 30.9175 2.17556C30.6511 1.98316 30.2774 2.04236 30.085 2.30876L27.4099 5.98656L26.8512 5.42786C27.0547 4.80256 27.5357 3.38546 28.2239 1.75746C28.3608 1.43186 28.7271 1.29496 29.012 1.24316C30.0998 1.03226 31.9683 1.59096 33.6925 3.31516C35.4167 5.03936 35.9754 6.91156 35.7645 7.99566L35.7608 7.99196Z" fill="#591200"/>
<path id="Vector_12" d="M32.4901 3.66677L31.7871 4.36977C31.554 4.60287 31.554 4.98027 31.7871 5.21337C31.9018 5.33177 32.0572 5.38727 32.2089 5.38727C32.3606 5.38727 32.516 5.32807 32.6307 5.21337L33.3337 4.51037C33.5668 4.27727 33.5668 3.89987 33.3337 3.66677C33.1006 3.43367 32.7232 3.43367 32.4901 3.66677Z" fill="#591200"/>
</g>
<defs>
<clipPath id="clip0_663_5337">
<rect width="37" height="37" fill="white"/>
</clipPath>
</defs>
</svg>
