<svg width="45" height="37" viewBox="0 0 45 37" fill="none" xmlns="http://www.w3.org/2000/svg">
<g id="OBJECTS" clip-path="url(#clip0_664_5395)">
<path id="Vector" d="M6.28062 8.98702C6.28062 8.98702 4.69352 8.32492 4.90773 7.09808C5.12194 5.88097 5.56983 4.55676 6.37799 4.4886C7.20562 4.43018 7.5951 6.00755 9.13352 6.27045C9.13352 6.27045 13.5248 -1.25613 22.3172 0.856761C31.0998 2.96966 31.1388 8.44176 30.4864 10.9733C29.834 13.4952 26.8254 16.611 26.8254 16.611C26.8254 16.611 29.7269 14.9849 33.719 16.7278C37.0393 18.1786 38.0714 16.0852 40.1161 13.6997C42.1609 11.3044 43.8064 14.722 43.4169 15.7249C43.0372 16.7278 42.2777 19.162 42.2777 19.162C42.2777 19.162 44.7704 19.902 43.5533 23.5144C42.6867 26.1044 44.6535 27.2241 43.008 29.4441C41.4209 31.5862 40.4083 33.1733 38.0033 34.0594C35.5983 34.9454 24.6735 38.6552 10.1656 34.8091C4.49878 33.2999 0.360623 29.4247 0.487202 27.1657C0.613781 24.9165 1.60694 21.4015 6.6701 18.1591C10.6914 15.5886 12.074 15.0725 12.074 15.0725C9.22115 14.3423 8.65641 12.541 8.65641 12.541C8.65641 12.541 5.92036 12.7162 4.80062 11.2654C3.68089 9.80492 6.28062 8.99676 6.28062 8.99676V8.98702Z" fill="#F7DB57" stroke="#591200" stroke-linecap="round" stroke-linejoin="round"/>
<path id="Vector_2" d="M8.61728 12.5022C8.61728 12.5022 5.88122 12.6775 4.76149 11.2267C3.64175 9.76617 6.24149 8.95801 6.24149 8.95801C6.24149 8.95801 4.65438 8.29591 4.86859 7.06906C5.0828 5.85196 5.52096 4.52775 6.33885 4.45959C7.16649 4.40117 7.55596 5.97854 9.09438 6.24143C9.09438 6.24143 9.48385 6.61143 9.65912 6.88406C9.69806 7.69222 8.61728 12.5022 8.61728 12.5022Z" fill="#FCA6AD" stroke="#561310" stroke-linecap="round" stroke-linejoin="round"/>
<path id="Vector_3" d="M15.8418 6.29007C15.8418 7.05928 16.1144 7.68244 16.4552 7.68244C16.796 7.68244 17.0686 7.05928 17.0686 6.29007C17.0686 5.52086 16.796 4.89771 16.4552 4.89771C16.1144 4.89771 15.8418 5.52086 15.8418 6.29007Z" fill="#591200"/>
<path id="Vector_4" d="M12.5898 28.412C12.5898 25.4715 15.2188 23.0957 18.4514 23.0957C20.2722 23.0957 21.8983 23.8454 22.9791 25.0333C23.758 24.8386 24.683 24.7315 25.6762 24.7315C28.4998 24.7315 30.788 25.6273 30.788 26.7275C30.788 27.1949 30.3693 27.6233 29.678 27.9641C30.5543 28.3828 31.0898 28.9475 31.0898 29.561C31.0898 30.4665 29.9506 31.2454 28.2759 31.6447C29.0159 31.9465 29.4541 32.3165 29.4541 32.706C29.4541 33.7381 26.4454 34.5754 22.7454 34.5754C19.9996 34.5754 17.6433 34.1178 16.6014 33.4557C14.2743 32.7547 12.5898 30.7586 12.5898 28.412Z" fill="#FCA6AD" stroke="#591200" stroke-linecap="round" stroke-linejoin="round"/>
</g>
<defs>
<clipPath id="clip0_664_5395">
<rect width="44.3708" height="37" fill="white"/>
</clipPath>
</defs>
</svg>
