<svg width="45" height="37" viewBox="0 0 45 37" fill="none" xmlns="http://www.w3.org/2000/svg">
<g id="OBJECTS" clip-path="url(#clip0_663_5362)">
<path id="Vector" d="M22.0238 27.8737L25.0852 26.0016C25.0852 24.9684 24.2482 24.1295 23.2175 24.1295H20.8302C19.7994 24.1295 18.9625 24.9684 18.9625 26.0016L22.0238 27.8737ZM36.7049 12.2569C35.2954 12.7337 34.2823 14.0627 34.2823 15.639V24.3944C32.4191 24.3944 31.6394 26.7831 30.4942 30.1564C28.9613 34.6555 25.4772 36.2892 22.0238 36.2892C18.5705 36.2892 15.0863 34.6555 13.5535 30.1564C12.4082 26.7831 11.6286 24.3944 9.76539 24.3944V15.639C9.76539 14.0627 8.7523 12.7337 7.34277 12.2569C9.73015 7.47512 13.7517 4.99373 17.8393 3.85459C18.3679 2.03991 20.0417 0.715332 22.0238 0.715332C24.006 0.715332 25.6798 2.03991 26.2084 3.85459C30.296 4.99373 34.3175 7.47512 36.7049 12.2569Z" fill="#C7A395"/>
<path id="Vector_2" d="M25.0855 26.0015L22.0242 27.8735L18.9629 26.0015C18.9629 24.9683 19.7998 24.1294 20.8305 24.1294H23.2179C24.2486 24.1294 25.0855 24.9683 25.0855 26.0015Z" fill="#945136"/>
<path id="Vector_3" d="M9.76517 24.3944V29.4058C9.76517 31.9136 7.73899 33.9447 5.23708 33.9447C2.73518 33.9447 0.708984 31.9136 0.708984 29.4058C0.708984 26.3813 2.44887 22.0543 7.33815 12.2568C8.74767 12.7337 9.76077 14.0627 9.76077 15.6389V24.3944H9.76517Z" fill="#945136"/>
<path id="Vector_4" d="M43.3384 29.4058C43.3384 31.9136 41.3122 33.9447 38.8103 33.9447C36.3084 33.9447 34.2822 31.9136 34.2822 29.4058V15.6389C34.2822 14.0627 35.2953 12.7337 36.7048 12.2568C41.5985 22.0543 43.334 26.3813 43.334 29.4058H43.3384Z" fill="#945136"/>
<path id="Vector_5" d="M25.4335 30.6772C24.0416 30.6772 22.8964 29.6175 22.751 28.2621L25.4555 26.6063C25.667 26.4783 25.7947 26.2487 25.7947 25.997C25.7947 24.5709 24.6362 23.4097 23.2135 23.4097H20.8305C19.4078 23.4097 18.2493 24.5709 18.2493 25.997C18.2493 26.2443 18.3771 26.4739 18.5885 26.6063L21.293 28.2621C21.1477 29.6175 19.998 30.6772 18.6105 30.6772C18.2185 30.6772 17.9014 30.9951 17.9014 31.3881C17.9014 31.781 18.2185 32.0989 18.6105 32.0989C20.0289 32.0989 21.2798 31.3792 22.0198 30.2842C22.7598 31.3792 24.0152 32.0989 25.4291 32.0989C25.8211 32.0989 26.1383 31.781 26.1383 31.3881C26.1383 30.9951 25.8211 30.6772 25.4291 30.6772H25.4335ZM20.8305 24.8402H23.2135C23.7245 24.8402 24.1605 25.1758 24.3147 25.6394L22.0242 27.0434L19.7337 25.6394C19.8879 25.1758 20.324 24.8402 20.8349 24.8402H20.8305Z" fill="#591200"/>
<path id="Vector_6" d="M18.0062 17.5022C18.0062 17.1446 17.7419 16.8399 17.3852 16.7958L13.8966 16.3454C13.509 16.2969 13.1522 16.5706 13.0993 16.9591C13.0509 17.3477 13.324 17.7053 13.7116 17.7583L16.5791 18.1292V19.3301C16.5791 19.7231 16.8962 20.041 17.2882 20.041C17.6803 20.041 17.9974 19.7231 17.9974 19.3301V17.5022H18.0062Z" fill="#591200"/>
<path id="Vector_7" d="M30.0451 16.4601L26.8076 16.8796C26.4552 16.9237 26.1865 17.2284 26.1865 17.586V19.2152C26.1865 19.6082 26.5037 19.9261 26.8957 19.9261C27.2877 19.9261 27.6049 19.6082 27.6049 19.2152V18.2086L30.2257 17.8686C30.6133 17.82 30.8908 17.4624 30.838 17.0694C30.7895 16.6809 30.4327 16.4027 30.0407 16.4557L30.0451 16.4601Z" fill="#591200"/>
<path id="Vector_8" d="M37.3436 11.9389C35.2249 7.69582 31.5733 4.70668 26.7633 3.27172C26.0189 1.329 24.1249 0 22.0238 0C19.9227 0 18.0287 1.32458 17.2843 3.27172C12.4743 4.70668 8.82274 7.69582 6.70405 11.9389C1.5681 22.2265 0 26.3062 0 29.4057C0 32.3021 2.34774 34.6555 5.23726 34.6555C8.12679 34.6555 10.4745 32.3021 10.4745 29.4057V25.3348C11.3246 25.9221 11.9413 27.6131 12.8223 30.2049L12.8839 30.3859C14.3155 34.5893 17.6455 37 22.0238 37C26.4021 37 29.7365 34.5893 31.1637 30.3859L31.2254 30.2049C32.1063 27.6175 32.723 25.9221 33.5731 25.3348V29.4057C33.5731 32.3021 35.9208 34.6555 38.8104 34.6555C41.6999 34.6555 44.0476 32.3021 44.0476 29.4057C44.0476 26.3106 42.4795 22.2265 37.3436 11.9389ZM38.8104 33.2294C36.7049 33.2294 34.9958 31.5118 34.9958 29.4057V15.6389C34.9958 15.2459 34.6787 14.928 34.2867 14.928C33.8946 14.928 33.5775 15.2459 33.5775 15.6389V23.7763C32.7846 23.997 32.1107 24.5975 31.5381 25.5998C30.939 26.6462 30.4501 28.0811 29.8863 29.7413L29.8246 29.9223C28.1508 34.8409 24.2218 35.5739 22.0282 35.5739C19.8346 35.5739 15.9056 34.8409 14.2318 29.9223L14.1701 29.7413C13.6063 28.0811 13.1174 26.6462 12.5183 25.5998C11.9457 24.5975 11.2718 23.9926 10.4789 23.7763V15.6389C10.4789 15.2459 10.1618 14.928 9.76976 14.928C9.37774 14.928 9.06059 15.2459 9.06059 15.6389V29.4057C9.06059 31.5162 7.34714 33.2294 5.24607 33.2294C3.145 33.2294 1.43155 31.5118 1.43155 29.4057C1.43155 26.602 3.02607 22.5135 7.98583 12.5747C9.99881 8.53914 13.3817 5.83699 18.0375 4.5389C18.2754 4.47267 18.4604 4.28723 18.5308 4.05322C18.9845 2.50346 20.4249 1.42613 22.0326 1.42613C23.6404 1.42613 25.0851 2.50788 25.5344 4.05322C25.6049 4.28723 25.7899 4.47267 26.0277 4.5389C30.6836 5.83699 34.0664 8.53914 36.0794 12.5747C41.0436 22.5091 42.6337 26.602 42.6337 29.4057C42.6337 31.5162 40.9202 33.2294 38.8192 33.2294H38.8104Z" fill="#591200"/>
</g>
<defs>
<clipPath id="clip0_663_5362">
<rect width="44.0476" height="37" fill="white"/>
</clipPath>
</defs>
</svg>
