<svg width="28" height="37" viewBox="0 0 28 37" fill="none" xmlns="http://www.w3.org/2000/svg">
<g id="OBJECTS" clip-path="url(#clip0_663_5350)">
<path id="Vector" d="M20.7637 2.83789L26.7156 9.43869H20.7637V2.83789Z" fill="#FFF2B1"/>
<path id="Vector_2" d="M20.7634 0.595703H6.5459V2.8379H20.7634V0.595703Z" fill="#C7A395"/>
<path id="Vector_3" d="M20.7632 2.83789V9.43869H0.59375L6.54568 2.83789H20.7632Z" fill="#FFF8ED"/>
<path id="Vector_4" d="M26.7156 9.43872H20.7637V36.4006H26.7156V9.43872Z" fill="#C7A395"/>
<path id="Vector_5" d="M20.7634 9.43872V36.4043H14.1251V25.8704H15.424C16.852 25.8704 18.007 24.7086 18.007 23.2767C18.007 21.8448 17.9959 20.6867 17.9959 20.6867H14.0513C14.0513 17.686 11.6934 15.2514 8.70085 15.2514C5.70827 15.2514 3.35038 17.686 3.35038 20.6867V25.9148L0.597656 27.6464V9.43872H20.7634Z" fill="#FFE76D"/>
<path id="Vector_6" d="M3.35016 25.9112V20.6831C3.35016 17.6824 5.70806 15.2478 8.70063 15.2478C11.6932 15.2478 14.0511 17.6824 14.0511 20.6831H17.9957C17.9957 20.6831 18.0068 21.8449 18.0068 23.2731C18.0068 24.7013 16.8481 25.8668 15.4238 25.8668H14.1249V36.4007H0.59375V27.6391L3.34647 25.9075L3.35016 25.9112Z" fill="#C7A395"/>
<path id="Vector_7" d="M8.70105 20.598V27.8426C8.70105 29.3226 7.50181 30.5251 6.02582 30.5251C4.54983 30.5251 3.35059 29.3226 3.35059 27.8426V20.6831C3.35059 20.5906 3.35059 20.4981 3.35797 20.4056C3.35797 20.4019 3.35797 20.3982 3.35797 20.3945C3.46129 19.0107 4.61256 17.9192 6.02582 17.9192C7.43908 17.9192 8.70105 19.1217 8.70105 20.6017V20.598Z" fill="#945136"/>
<path id="Vector_8" d="M2.97397 10.0381H18.3833C18.7117 10.0381 18.9774 9.77168 18.9774 9.44238C18.9774 9.11308 18.7117 8.84668 18.3833 8.84668H2.97397C2.64556 8.84668 2.37988 9.11308 2.37988 9.44238C2.37988 9.77168 2.64556 10.0381 2.97397 10.0381Z" fill="#591200"/>
<path id="Vector_9" d="M27.3095 9.3832C27.3095 9.3832 27.3095 9.3647 27.3095 9.3573C27.3095 9.3462 27.3095 9.3351 27.3058 9.3277C27.3058 9.3166 27.3021 9.3092 27.2985 9.2981C27.2985 9.2907 27.2948 9.2833 27.2911 9.2722C27.2911 9.2611 27.2837 9.25 27.28 9.2426C27.28 9.2352 27.2763 9.2278 27.2726 9.2204C27.2689 9.2093 27.2652 9.2019 27.2616 9.1908C27.2616 9.1834 27.2542 9.176 27.2505 9.1686C27.2468 9.1612 27.2394 9.1501 27.2357 9.1427C27.232 9.1353 27.2283 9.1279 27.221 9.1205C27.2173 9.1131 27.2099 9.1057 27.2062 9.0983C27.2025 9.0909 27.1951 9.0835 27.1914 9.0761C27.1841 9.0687 27.1804 9.0613 27.173 9.0539C27.173 9.0539 27.1693 9.0465 27.1656 9.0428L21.3613 2.6085V0.5957C21.3613 0.2664 21.0956 0 20.7672 0H6.54602C6.21761 0 5.95193 0.2664 5.95193 0.5957V2.6085L0.154979 9.0391C0.0553497 9.1501 0 9.2907 0 9.4387V36.4043C0 36.7336 0.265678 37 0.594086 37H26.7154C27.0438 37 27.3095 36.7336 27.3095 36.4043V9.4387C27.3095 9.4202 27.3095 9.4017 27.3095 9.3795V9.3832ZM20.1694 1.1951V2.2422H7.14011V1.1951H20.1694ZM6.8117 3.4336H20.1694V35.8049H14.7193V26.4624H15.4241C17.1768 26.4624 18.6012 25.0305 18.6012 23.273C18.6012 21.8559 18.5901 20.6867 18.5901 20.6756C18.5901 20.35 18.3207 20.0836 17.996 20.0836H14.616C14.4832 18.6961 13.8928 17.4122 12.9223 16.4169C11.8042 15.2736 10.3024 14.6446 8.70097 14.6446C7.09952 14.6446 5.5977 15.2736 4.47963 16.4169C3.36895 17.5528 2.75641 19.0661 2.75641 20.6793V25.5781L1.19186 26.5586V9.6681L6.8117 3.4336ZM1.19186 27.972L2.75641 26.9915V27.8425C2.75641 29.6518 4.22502 31.1207 6.02573 31.1207C7.82644 31.1207 9.29505 29.6481 9.29505 27.8425V20.6016C9.29505 20.2723 9.02938 20.0059 8.70097 20.0059C8.37256 20.0059 8.10688 20.2723 8.10688 20.6016V27.8425C8.10688 28.9932 7.17332 29.9293 6.02573 29.9293C4.87815 29.9293 3.94459 28.9932 3.94459 27.8425V20.683C3.94459 18.0153 6.07739 15.8434 8.70097 15.8434C11.3245 15.8434 13.4573 18.0153 13.4573 20.683C13.4573 21.0123 13.723 21.2787 14.0514 21.2787H17.4056C17.4056 21.756 17.413 22.4738 17.413 23.273C17.413 24.3756 16.52 25.271 15.4241 25.271H14.1215C13.7931 25.271 13.5275 25.5374 13.5275 25.8667V35.8049H1.19186V27.9683V27.972ZM21.3613 35.8086V4.3882L25.376 8.843H23.1435C22.8151 8.843 22.5495 9.1094 22.5495 9.4387C22.5495 9.768 22.8151 10.0344 23.1435 10.0344H26.1177V35.8049H21.3576L21.3613 35.8086Z" fill="#591200"/>
</g>
<defs>
<clipPath id="clip0_663_5350">
<rect width="27.3095" height="37" fill="white"/>
</clipPath>
</defs>
</svg>
