<?xml version="1.0" encoding="UTF-8"?>
<svg id="cloud2" xmlns="http://www.w3.org/2000/svg" viewBox="0 0 821 562.12">
  <defs>
    <style>
      .cls-1 {
        fill: #ffd9b6;
      }
    </style>
  </defs>
  <path class="cls-1" d="M189.68,130.84c-.53,.57-1.19,1.01-1.92,1.29-.73,.28-1.51,.38-2.29,.31s-1.52-.32-2.19-.74c-.66-.41-1.22-.96-1.64-1.62-12.68-11.74-33.9-12.8-47.68-2.38-.95,.87-2.1,1.51-3.35,1.85-1.92,.33-3.74-.89-5.38-1.97-7.63-5.06-16.32-8.31-25.39-9.52-8.52-1.14-17.63-.32-24.91,4.28s-12.13,13.56-10.16,21.94c.93,3.53,2.71,6.77,5.18,9.45,7.26,8.21,18.84,12.11,29.73,10.83,11-1.5,20.99-7.21,27.88-15.93,15.02,11.3,37.98,10.37,52.04-2.1,9.57,5.05,20.04,9.76,30.8,8.63s26.86-12.99,16.19-23.17c-9.48-9.09-26.56-7.63-36.93-1.14Z"/>
  <path class="cls-1" d="M471.34,46.94c-.74,.61-1.66,.95-2.62,.99-.91-.21-1.73-.7-2.36-1.39-4.03-3.54-9.15-5.62-14.51-5.89-5.36-.27-10.66,1.28-15.03,4.4-.34,.39-.76,.7-1.22,.9-.47,.21-.98,.31-1.49,.31-.51,0-1.02-.12-1.48-.35-.46-.22-.87-.54-1.2-.94-4.74-3.12-10.11-5.14-15.73-5.9-5.27-.7-10.93-.2-15.42,2.66-4.49,2.86-7.53,8.36-6.3,13.58,.57,2.19,1.67,4.2,3.21,5.85,2.32,2.5,5.2,4.41,8.4,5.58,3.2,1.17,6.64,1.56,10.02,1.14,6.81-.93,12.99-4.47,17.24-9.87,4.76,3.39,10.51,5.11,16.34,4.87,5.84-.24,11.43-2.41,15.89-6.18,5.94,3.14,12.42,6.01,19.08,5.34,6.66-.67,16.64-8.04,10.04-14.34-5.9-5.69-16.49-4.77-22.87-.77Z"/>
  <path class="cls-1" d="M625.31,21.3c-.33,.35-.74,.62-1.19,.79-.45,.17-.93,.23-1.41,.19-.48-.05-.94-.2-1.36-.45-.41-.25-.76-.6-1.02-1-4.03-3.56-9.14-5.64-14.5-5.91-5.36-.27-10.66,1.29-15.02,4.43-.59,.54-1.3,.93-2.08,1.14-1.22,.03-2.41-.41-3.33-1.21-4.73-3.13-10.11-5.15-15.73-5.9-5.27-.71-10.93-.2-15.41,2.65-4.49,2.84-7.53,8.36-6.3,13.59,.57,2.19,1.67,4.2,3.21,5.85,2.32,2.5,5.2,4.41,8.41,5.57,3.2,1.17,6.64,1.56,10.02,1.15,6.81-.94,12.99-4.48,17.26-9.87,4.76,3.39,10.51,5.1,16.34,4.87,5.84-.24,11.43-2.41,15.89-6.18,5.92,3.12,12.4,6.01,19.07,5.34,6.66-.67,16.64-8.04,10.03-14.34-5.9-5.63-16.49-4.73-22.87-.71Z"/>
</svg>