<?xml version="1.0" encoding="UTF-8"?>
<svg id="cloud1" xmlns="http://www.w3.org/2000/svg" viewBox="0 0 821 562.12">
  <defs>
    <style>
      .cls-1 {
        fill: #ffd9d8;
      }
    </style>
  </defs>
  <path class="cls-1" d="M576.13,158.17c-1.18,.97-2.65,1.52-4.18,1.59-1.49-.36-2.82-1.19-3.8-2.36-12.67-11.74-33.88-12.8-47.68-2.38-.95,.88-2.09,1.51-3.33,1.85-1.94,.33-3.75-.89-5.38-1.97-7.64-5.05-16.32-8.31-25.39-9.52-8.53-1.14-17.65-.32-24.91,4.28-7.26,4.6-12.14,13.56-10.16,21.94,.92,3.53,2.7,6.77,5.17,9.45,3.75,4.03,8.4,7.11,13.57,8.99,5.17,1.88,10.71,2.51,16.17,1.84,11.01-1.5,21-7.21,27.88-15.93,15.04,11.31,37.99,10.37,52.06-2.1,9.56,5.05,20.03,9.76,30.8,8.63,10.77-1.13,26.84-12.99,16.19-23.17-9.59-9.09-26.69-7.62-37-1.14Z"/>
  <path class="cls-1" d="M194.14,35.97c-.33,.35-.73,.62-1.18,.79-.45,.17-.93,.24-1.41,.19-.48-.04-.94-.2-1.35-.45-.41-.25-.76-.59-1.02-1-4.03-3.55-9.15-5.62-14.51-5.89-5.36-.27-10.66,1.29-15.02,4.41-.59,.54-1.31,.93-2.08,1.14-1.22,.03-2.41-.4-3.33-1.21-4.73-3.13-10.1-5.15-15.72-5.91-5.28-.7-10.93-.18-15.43,2.66-4.5,2.84-7.51,8.36-6.3,13.59,.58,2.18,1.68,4.19,3.21,5.85,2.32,2.5,5.2,4.41,8.41,5.57,3.2,1.17,6.64,1.55,10.02,1.13,6.81-.93,13-4.47,17.25-9.87,4.76,3.39,10.5,5.11,16.34,4.87,5.84-.23,11.43-2.41,15.9-6.17,5.92,3.12,12.4,6.01,19.07,5.34,6.66-.67,16.64-8.04,10.03-14.34-5.9-5.63-16.47-4.73-22.87-.72Z"/>
  <path class="cls-1" d="M300.25,199.78c-.74,.61-1.66,.96-2.62,.99-.91-.21-1.74-.69-2.35-1.39-4.03-3.55-9.15-5.62-14.51-5.89-5.36-.27-10.66,1.29-15.02,4.41-.59,.54-1.3,.93-2.06,1.14-1.23,.03-2.42-.41-3.33-1.23-4.73-3.15-10.11-5.19-15.73-5.98-5.27-.7-10.93-.18-15.42,2.66-4.49,2.84-7.53,8.36-6.3,13.59,.57,2.18,1.67,4.2,3.21,5.85,2.32,2.5,5.2,4.41,8.4,5.57,3.2,1.17,6.64,1.55,10.02,1.13,6.81-.93,12.99-4.47,17.24-9.87,4.75,3.39,10.5,5.11,16.34,4.87,5.84-.24,11.43-2.41,15.9-6.17,5.94,3.12,12.42,6.01,19.08,5.34,6.66-.67,16.64-8.04,10.04-14.34-5.9-5.6-16.49-4.7-22.87-.7Z"/>
</svg>