<?xml version="1.0" encoding="UTF-8"?>
<svg id="dog" xmlns="http://www.w3.org/2000/svg" viewBox="0 0 821 562.12">
  <defs>
    <style>
      .cls-1 {
        fill: #ffd9b6;
      }

      .cls-2 {
        fill: #c75915;
      }

      .cls-3 {
        fill: #954213;
      }

      .cls-4 {
        fill: #5d515d;
      }

      .cls-5 {
        fill: none;
        stroke: #954213;
        stroke-linecap: round;
        stroke-linejoin: round;
        stroke-width: .93px;
      }
    </style>
  </defs>
  <path class="cls-2" d="M276.2,398.68c2.16,5.94,8.71,9.59,15.04,9.51,6.33-.08,12.28-3.37,16.72-7.82s7.79-10.05,10.77-15.63c3.99-7.43,7.66-15.01,11.02-22.74,.34-.63,.51-1.35,.49-2.06-.14-.63-.5-1.18-1.01-1.58-.51-.39-1.14-.6-1.78-.58-1.3,.1-2.54,.58-3.55,1.39-5.73,3.83-9.32,10.07-14.16,14.97-4.84,4.91-12.36,8.59-18.51,5.49-4.03-2.02-6.79-6.64-11.26-7.11-4.07-.43-7.5,2.79-10.31,5.73"/>
  <path class="cls-2" d="M204.1,474.79c-2.93,4.36-3.94,9.76-6.15,14.48-2.36,5.12-6.03,9.49-8.91,14.34-.89,1.31-1.47,2.81-1.7,4.38-.1,.79,.02,1.58,.35,2.3,.33,.72,.86,1.33,1.53,1.76,2.13,1.14,4.67-.43,6.49-2.02,13.03-11.25,22.63-26.03,30.08-41.55"/>
  <path class="cls-2" d="M227.09,480.59c-2.41,5.09-2.79,11.01-4.33,16.45-1.71,5.85-4.86,11.05-7.15,16.73-.74,1.55-1.13,3.24-1.16,4.96-.01,.86,.21,1.7,.65,2.44,.43,.74,1.06,1.34,1.82,1.75,2.33,.98,4.68-1.06,6.34-3,11.78-13.83,19.51-31.04,25.09-48.79"/>
  <path class="cls-2" d="M290.25,370.87c-1.63-8.7-12.89-24.94-13.33-33.54-.25-4.86-.14-6.34-3.87-9.45-1.87-1.56-8.65-4.35-11.55-3.92-3.81,.58-5.78,12.27-6.79,15.33-.31,.93-.6,1.87-.91,2.79-.67,11.37-2.34,22.66-4.98,33.73-1.6,6.8-3.6,13.51-5.98,20.07-2.37,5.94-5.48,11.56-9.25,16.73-7.19,10.4-15.9,19.7-22.59,30.46-3.62,5.74-6.44,11.95-8.36,18.46-.32,1.07-.6,2.17-.85,3.26,.81,2.62,2.07,5.08,3.71,7.28,6.45,8.8,18.23,13.12,28.91,12.06,13.51-1.39,25.42-9.76,34.36-20,11.68-13.72,19.58-30.26,22.93-47.97,3.51-17.48,1.87-27.67-1.43-45.29Z"/>
  <path class="cls-3" d="M225.16,352.46c-.56,.74-.91,1.61-1.01,2.53-.1,.92,.04,1.85,.42,2.69,.44,.7,1.06,1.27,1.8,1.65s1.56,.57,2.38,.54c1.66-.07,3.28-.55,4.71-1.39,3.16-1.73,5.89-4.14,8-7.05,2.37,.59,5.02,1.13,7.15,0,5.71-3.16,15.22-31.63,5.85-32.52-4.18-.4-8.61,4.34-10.34,7.65-2.04,3.9-2.79,8.1-5.31,11.85-3.74,5.44-10.08,8.71-13.66,14.06Z"/>
  <path class="cls-2" d="M262.45,385.09c2.16,5.95,8.71,9.6,15.04,9.52,6.33-.08,12.28-3.39,16.73-7.83s7.74-9.99,10.73-15.57c3.99-7.43,7.66-15.01,11.02-22.74,.34-.63,.51-1.35,.49-2.06-.14-.63-.5-1.18-1.01-1.58-.51-.39-1.14-.6-1.78-.58-1.3,.1-2.54,.59-3.55,1.39-5.73,3.83-9.32,10.07-14.16,14.97-4.84,4.91-12.36,8.57-18.51,5.48-4.03-2.02-6.79-6.62-11.26-7.11-4.07-.43-7.5,2.79-10.31,5.74"/>
  <path class="cls-2" d="M209.83,454.27c-3,8.5-11.48,13.94-20.15,16.43-8.67,2.49-20.68-1.81-31.36-1.28-2.63,.07-5.15,1.06-7.14,2.79-1.9,1.76-2.54,5.1-.66,6.89-3.33,.1-6.24,2.13-8.93,4.08-3.4,2.47-7.09,5.42-7.58,9.59-.71,6.08,6.37,10.75,12.43,9.9,6.06-.85,10.91-5.28,15.14-9.76-1,3.18,3.36,5.31,6.69,5.31,6.9,0,13.52-2.69,19.61-5.93,8.59-4.31,16.22-10.31,22.43-17.65,6.01-7.46,9.95-16.81,9.87-26.39"/>
  <path class="cls-2" d="M277.35,339.34c2.17-7.65,6.41-14.57,8.36-22.3,1.95-7.74,3.82-15.54,5.09-23.18,.82-4.98-.75-14.36-5.94-16.94-5.18-2.58-1.63,5.58-1.6,7.97,.03,.46,.03,.93,0,1.39-1.04,10.13-14.41,13.02-21.83,19.14-4.91,4-8.4,9.47-9.96,15.6-1.7,6.97,0,15.33,6.58,19.18,5.27,3.18,12.54,2.66,18.02-.18,.39-.17,.85-.42,1.28-.68Z"/>
  <path class="cls-3" d="M256.98,360.56c-.12,.91,.01,1.84,.37,2.69,.36,.85,.95,1.58,1.69,2.12,.73,.39,1.56,.58,2.39,.55,.83-.03,1.64-.27,2.35-.71,1.41-.89,2.57-2.13,3.39-3.58,1.9-3.06,3.08-6.5,3.47-10.08,2.35-.67,4.92-1.51,6.2-3.6,3.4-5.58-2.37-35-10.97-31.17-3.82,1.71-5.35,8.03-5.21,11.77,.15,4.4,1.57,8.36,1.23,12.94-.49,6.65-4.4,12.59-4.91,19.07Z"/>
  <path class="cls-4" d="M285.94,278c0,2.54-1.66,4.59-3.72,4.59s-3.72-2.05-3.72-4.59,1.66-4.59,3.72-4.59,3.72,2.06,3.72,4.59Z"/>
  <path class="cls-4" d="M280.22,310.4c-.04,.43-.24,.83-.56,1.12-.32,.29-.73,.45-1.17,.45s-.85-.16-1.17-.45c-.32-.29-.52-.69-.56-1.12-.02-.24,0-.48,.08-.71,.08-.23,.2-.44,.36-.61,.16-.18,.36-.32,.58-.42,.22-.1,.46-.15,.7-.15s.48,.05,.7,.15c.22,.1,.42,.24,.58,.42s.28,.39,.36,.61c.08,.23,.1,.47,.08,.71Z"/>
  <path class="cls-5" d="M244.54,482.52c4.45-5,7.22-11.26,7.95-17.91,.72-6.65-.64-13.36-3.91-19.2"/>
  <path class="cls-5" d="M293.46,408.15c-3.46-1.37-6.54-3.56-8.97-6.38-2.43-2.82-4.13-6.19-4.97-9.82-2.43-.28-4.52-2.38-5.7-4.52-1.15-2.18-1.51-4.69-1.02-7.11"/>
  <path class="cls-5" d="M225.76,483.51c-2.26-.32-3.74-2.55-4.54-4.7-1.39-3.64-1.67-7.96,.42-11.24"/>
  <path class="cls-2" d="M227.95,481.08c-3.08,.22-5.37,2.98-6.68,5.79-1.38,2.56-1.74,5.55-1.02,8.36,.91,2.79,3.85,4.89,6.62,4.18"/>
  <path class="cls-1" d="M214.17,550.81c21.01,0,38.05-2.31,38.05-5.16s-17.03-5.16-38.05-5.16-38.05,2.31-38.05,5.16,17.04,5.16,38.05,5.16Z"/>
</svg>