<?xml version="1.0" encoding="UTF-8"?>
<svg id="main" xmlns="http://www.w3.org/2000/svg" viewBox="0 0 821 562.12">
  <defs>
    <style>
      .cls-1 {
        fill: #699ab2;
      }

      .cls-2 {
        fill: #f1cc30;
      }

      .cls-3 {
        fill: #fff;
      }

      .cls-4 {
        fill: #7daca5;
      }

      .cls-5 {
        fill: #9bbfcc;
      }

      .cls-6 {
        fill: #cc8da6;
      }

      .cls-7 {
        fill: #d4594c;
      }

      .cls-8 {
        fill: #afe0db;
      }

      .cls-9 {
        fill: #e1725f;
      }

      .cls-10 {
        fill: #e0dede;
      }

      .cls-11 {
        fill: #ace0d6;
      }

      .cls-12 {
        fill: #d6af8f;
      }

      .cls-13 {
        fill: #496b63;
      }

      .cls-14 {
        fill: #5c857e;
      }

      .cls-15 {
        fill: #5d515d;
      }

      .cls-16 {
        stroke: #ace0d6;
        stroke-width: 2.71px;
      }

      .cls-16, .cls-17 {
        fill: none;
        stroke-linecap: round;
        stroke-linejoin: round;
      }

      .cls-17 {
        stroke: #699ab2;
        stroke-width: 2.16px;
      }
    </style>
  </defs>
  <path class="cls-13" d="M417.06,314.86c39.61,20.34,59.24,70.09,66.44,112.91,1.14,6.8,4.28,23.7,3.37,37.64h-36.24c-5.41-8.96-10.2-18.27-14.34-27.88-13.26-29.51-23.18-60.41-29.58-92.13-1.24-6.54-6.2-39.03,10.34-30.54Z"/>
  <path class="cls-11" d="M469.7,465.37c-7.65-30.1-24.38-87.56-51.89-135.33-.14-.23-.18-.5-.11-.76,.06-.26,.22-.49,.45-.63,.11-.08,.24-.13,.37-.16,.13-.02,.27-.02,.4,.01,.13,.03,.26,.1,.36,.18,.11,.08,.19,.19,.25,.31,27.74,48.29,44.6,106.29,52.22,136.36h-2.06Z"/>
  <path class="cls-11" d="M434.97,362.2c.12-.02,.23-.06,.33-.11,.14-.08,.25-.18,.34-.31,.09-.13,.14-.27,.16-.43l4.18-27.98c.04-.26-.02-.52-.17-.74-.15-.21-.38-.36-.64-.41-.13-.02-.26-.02-.38,.01-.13,.03-.24,.09-.35,.17-.1,.08-.19,.18-.25,.29-.06,.11-.1,.24-.12,.37l-3.9,26.62-20.6-10.59c-.11-.06-.24-.09-.37-.1-.13,0-.26,.01-.38,.05s-.23,.11-.33,.2c-.1,.09-.17,.19-.22,.31-.06,.12-.1,.25-.11,.39-.01,.14,0,.27,.04,.4,.04,.13,.11,.25,.19,.35,.09,.1,.19,.19,.31,.25l21.78,11.15c.15,.07,.31,.1,.47,.1Z"/>
  <path class="cls-11" d="M449.11,396.41c.1-.01,.2-.04,.29-.08,.13-.06,.24-.15,.33-.26,.09-.11,.16-.23,.2-.37l9.03-31.07c.08-.25,.05-.52-.07-.76-.12-.23-.33-.41-.57-.5-.12-.04-.25-.05-.38-.03-.13,.01-.25,.05-.36,.11-.11,.06-.21,.15-.29,.25-.08,.1-.14,.22-.17,.34l-8.7,29.96-23.53-11.63c-.11-.05-.24-.09-.37-.09-.13,0-.26,.01-.38,.06s-.23,.11-.32,.2c-.09,.09-.17,.19-.22,.31-.07,.12-.1,.25-.12,.39-.01,.14,0,.27,.04,.4,.04,.13,.11,.25,.2,.35,.09,.1,.2,.19,.32,.25l24.54,12.13c.16,.06,.34,.07,.51,.04Z"/>
  <path class="cls-11" d="M460.78,430.57h.22c.24-.1,.44-.29,.54-.53l10.84-24.74c.11-.24,.12-.51,.03-.76-.09-.25-.27-.45-.5-.57-.12-.05-.24-.08-.37-.09-.13,0-.26,.02-.38,.06s-.23,.12-.32,.21c-.09,.09-.16,.2-.21,.32l-10.44,23.81-22.47-10.94c-.12-.06-.24-.09-.37-.09-.13,0-.26,.01-.37,.06-.12,.04-.23,.11-.32,.2-.09,.09-.17,.19-.22,.31-.06,.12-.1,.25-.11,.39-.01,.14,0,.27,.05,.4,.04,.13,.11,.25,.2,.35,.09,.1,.2,.19,.32,.25l23.35,11.38c.17,.04,.36,.04,.53-.01Z"/>
  <path class="cls-8" d="M490.06,486.7H135.67s.39-30.47,14.58-47.94c22.3-27.5,48.01-33.04,73.87-29.27,29.27,4.31,52.45,31.81,51.24,50.41,11.53-31.49,50.34-41,79.69-26.67,2.4,1.17,26.17,17.67,23.36,20.37,17.16-16.32,45.17-18.3,64.34,8.92,15.3-5.63,43.28,8.43,47.32,24.19Z"/>
  <path class="cls-8" d="M396.19,487.94h354.36s-.38-30.46-14.57-47.93c-22.3-27.52-48.03-33.05-73.87-29.27-29.27,4.29-52.45,31.81-51.23,50.41-11.53-31.49-50.34-41-79.7-26.67-2.4,1.17-26.17,17.68-23.36,20.35-17.16-16.32-45.16-18.3-64.33,8.94-15.28-5.6-43.26,8.46-47.3,24.17Z"/>
  <path class="cls-10" d="M355.2,498.69c1.18,8.11-2.79,16.81-9.46,20.62-4.5,2.58-9.76,2.96-14.65,4.45-4.9,1.62-9.41,4.24-13.25,7.69-3.84,3.45-6.92,7.66-9.05,12.36h64.64v-45.74l-18.23,.63Z"/>
  <path class="cls-3" d="M331.04,523.75c4.91-1.49,10.15-1.87,14.65-4.45,3.93-2.4,6.89-6.11,8.36-10.48,1.3,2.01,2.54,4.06,3.9,5.99,1.26,1.92,2.85,3.59,4.7,4.95,.89,.63,1.89,1.07,2.95,1.29,1.06,.23,2.16,.24,3.22,.03,1.61-.37,3.13-1.06,4.46-2.04v24.74h-64.54c2.13-4.7,5.21-8.91,9.05-12.36,3.84-3.45,8.35-6.07,13.25-7.69Z"/>
  <path class="cls-10" d="M310.13,547.56h62.93c.9-.04,1.76-.44,2.37-1.11,.61-.67,.93-1.55,.9-2.46,.04-.9-.28-1.79-.9-2.46-.61-.67-1.46-1.07-2.37-1.11h-62.93c-.9,.04-1.76,.44-2.37,1.11-.61,.67-.93,1.55-.9,2.46-.04,.9,.28,1.79,.9,2.46,.61,.67,1.46,1.07,2.37,1.11Z"/>
  <path class="cls-10" d="M356.93,522.52c.32-.37,.5-.85,.5-1.35s-.18-.97-.5-1.35l-9.83-10.76c-.15-.17-.34-.32-.55-.41-.21-.1-.44-.15-.67-.15s-.46,.05-.67,.15c-.21,.1-.4,.24-.55,.41-.33,.37-.51,.85-.51,1.35s.18,.98,.51,1.35l9.76,10.76c.15,.18,.35,.33,.57,.43,.22,.1,.46,.15,.7,.15s.48-.05,.7-.15c.22-.1,.41-.25,.57-.43Z"/>
  <path class="cls-10" d="M350.55,527.44c.32-.37,.5-.85,.5-1.35s-.18-.97-.5-1.35l-9.76-10.76c-.15-.18-.34-.32-.55-.41-.21-.1-.44-.14-.67-.14s-.46,.05-.67,.14c-.21,.1-.4,.24-.55,.41-.33,.37-.51,.85-.51,1.35s.18,.97,.51,1.34l9.76,10.76c.15,.17,.34,.32,.55,.41,.21,.1,.44,.15,.67,.15s.46-.05,.67-.15c.21-.1,.4-.24,.55-.41Z"/>
  <path class="cls-10" d="M408.32,498.96c-1.17,8.11,2.79,16.81,9.48,20.62,4.5,2.58,9.76,2.97,14.63,4.46,4.92,1.61,9.44,4.22,13.3,7.67,3.85,3.45,6.95,7.67,9.09,12.37h-64.66v-45.75l18.16,.63Z"/>
  <path class="cls-3" d="M432.43,524.04c-4.89-1.49-10.13-1.88-14.63-4.46-3.94-2.39-6.9-6.1-8.36-10.47-1.3,2.01-2.54,4.04-3.92,5.98-1.25,1.92-2.84,3.6-4.68,4.96-.89,.62-1.89,1.06-2.95,1.29-1.06,.23-2.16,.23-3.22,.02-1.62-.36-3.14-1.06-4.47-2.04v24.76h64.66c-2.14-4.71-5.24-8.93-9.1-12.38-3.86-3.45-8.39-6.06-13.31-7.67Z"/>
  <path class="cls-10" d="M453.35,547.88h-62.93c-.9-.04-1.75-.44-2.36-1.11-.61-.66-.93-1.54-.9-2.45-.04-.9,.28-1.79,.89-2.46,.61-.67,1.46-1.07,2.37-1.11h62.93c.9,.04,1.76,.44,2.37,1.11,.61,.67,.93,1.55,.89,2.46,.03,.9-.29,1.78-.9,2.45-.61,.67-1.46,1.06-2.36,1.11Z"/>
  <path class="cls-10" d="M406.6,522.79c-.32-.37-.5-.85-.5-1.35s.18-.97,.5-1.35l9.76-10.76c.15-.18,.34-.32,.55-.41,.21-.1,.44-.14,.67-.14s.46,.05,.67,.14c.21,.1,.4,.24,.55,.41,.33,.37,.51,.85,.51,1.35s-.18,.97-.51,1.35l-9.73,10.76c-.15,.18-.34,.32-.56,.42-.21,.1-.45,.15-.68,.15s-.47-.05-.68-.15c-.21-.1-.4-.24-.56-.42Z"/>
  <path class="cls-10" d="M412.97,527.72c-.32-.37-.5-.85-.5-1.35s.18-.97,.5-1.35l9.83-10.76c.15-.18,.34-.32,.55-.41,.21-.1,.44-.15,.67-.15s.46,.05,.67,.15c.21,.1,.4,.24,.55,.41,.32,.37,.5,.85,.5,1.35s-.18,.97-.5,1.35l-9.83,10.76c-.15,.17-.34,.31-.55,.41-.21,.1-.44,.15-.67,.15s-.46-.05-.67-.15c-.21-.1-.4-.24-.55-.41Z"/>
  <path class="cls-1" d="M392.46,170.5c-3.84,15.26-5.71,30.94-5.58,46.67,0,.29,.11,.56,.31,.76,.2,.2,.47,.32,.76,.32s.56-.11,.76-.32c.2-.2,.31-.47,.31-.76-.14-15.54,1.71-31.03,5.49-46.1,.08-.28,.04-.57-.1-.82-.14-.25-.38-.43-.65-.51-.28-.08-.57-.04-.82,.1-.25,.14-.43,.38-.51,.65h.01Z"/>
  <path class="cls-1" d="M387.4,225.46v18.78c0,.29,.11,.56,.32,.76,.2,.2,.47,.31,.76,.31s.56-.11,.76-.31c.2-.2,.32-.47,.32-.76v-18.78c0-.29-.11-.56-.32-.76-.2-.2-.47-.32-.76-.32s-.56,.11-.76,.32c-.2,.2-.32,.47-.32,.76Z"/>
  <path class="cls-9" d="M494.44,288.6c9.53,7.85,20.81,19.22,23.69,31.88,.21,.86,.21,2.08-.57,2.33-1.75-2.03-3.36-4.17-4.81-6.43,.49,2.59,.41,5.25-.24,7.81-.65,2.55-1.85,4.93-3.52,6.97-.33-.44-.55-.95-.67-1.49-.12-.54-.12-1.1,0-1.63,.25-3.51,.51-7.03,.77-10.55,.15-2.13-2.24-3.35-3.57-4.92-.43-.52-.98-1.06-1.59-.93-.88,.19-1.02,1.46-.98,2.44,.12,2.54,.14,5.07,0,7.63,.06,.71-.16,1.42-.61,1.98-.05,.06-.11,.1-.18,.12-.07,.03-.15,.04-.22,.03-.15-.05-.27-.16-.33-.31-.63-.94-1.1-1.99-1.39-3.08-1.91-6.9-5.89-11.49-5.96-18.69-1.27-.88-3.8-3.29-5.06-4.18-.6-.43,.84-.58,.61-1.32-.09-.51-.05-1.04,.11-1.54,.15-.5,.42-.95,.79-1.33,1.52-1.83,1.66-4.01,3.75-4.77Z"/>
  <path class="cls-9" d="M399.47,151.01c-.77,3.38-1.28,6.82-1.55,10.27-.4,5.17-.08,10.87,3.02,14.79-2.15,2.99-5.29,5.13-8.86,6.04-3.47,.73-7.09,.12-10.13-1.71-.83-.51-1.64-1.06-2.41-1.66l-2.9-2.15c4.75-7.92,8.93-16.73,8.25-26.21,2.19-.31,5.31-1.11,7.5-1.39,.94-.17,1.9-.23,2.86-.17,1.52,.14,2.69,2.38,4.22,2.19Z"/>
  <path class="cls-15" d="M382.33,165.32c2.49,.39,5.03,.14,7.4-.71,3.46-1.39,5.69-4.88,7.12-8.46,.69-1.73,1.25-3.5,1.69-5.31-1.1-.5-2.1-1.92-3.29-2.05-.96-.06-1.91,0-2.86,.17-2.19,.31-5.31,1.11-7.5,1.39,.28,5.12-.6,10.24-2.57,14.97Z"/>
  <path class="cls-9" d="M492.42,300.1l-30.93-16.7,13.57-11.08,23.97,20.2-6.62,7.58Z"/>
  <path class="cls-6" d="M374.67,346.01h15.05c14.49,0,26.23-11.75,26.23-26.23v-56.14c0-14.49-11.74-26.24-26.23-26.24h-15.05c-14.49,0-26.23,11.75-26.23,26.24v56.14c0,14.49,11.74,26.23,26.23,26.23Z"/>
  <path class="cls-6" d="M412.53,501.95c1.18-42.32,4.98-182.29,4.95-195.8l-34.41,3.36c-.7,13.1,2.79,152.31,4.04,192.46h25.42Z"/>
  <path class="cls-6" d="M375.76,501.95c2.01-45.24,5.79-184.01,5.58-198.76l-34.26-4.95c-.63,15.42,2.34,156.13,3.04,203.71h25.65Z"/>
  <path class="cls-5" d="M433.16,238.05c-.24,1.39-.5,2.79-.77,4.11-1.14,5.98-2.42,11.93-3.68,17.89l-.67,3.09c0,.15-.07,.31-.1,.46-.88,4.18-1.74,8.27-2.55,12.41-.19,.96-.38,1.91-.56,2.87-1.02,5.4-1.94,10.83-2.66,16.3-.42,3.19-.76,6.38-1.03,9.59,0,.71,0,1.39-.11,2.16-.1,2.13-.35,4.18-2.22,5.49-.44,.29-.9,.53-1.39,.71-.49,.19-1,.34-1.52,.45-.31,.07-.62,.12-.93,.15-3.32,.46-7.28-.15-10.06-.17h-37.87c-3.46,0-6.97-.24-10.4,0-2.56,.15-5.66,.68-8.24-.17-.67-.2-1.3-.53-1.85-.95-.49-.36-.92-.8-1.27-1.31-.1-.18-.19-.36-.28-.56-1.17-2.93-.82-7.4-1-10.54-.25-4.5-.56-9-.88-13.51-.65-9.07-1.39-18.12-1.91-27.21-.99-14.15-.88-28.35,.32-42.49,0-.45,.1-.89,.14-1.32,.15-1.48,.34-2.93,.53-4.39,.26-2.04,.57-4.06,.93-6.08,1.6-9.23,4.97-18.06,9.92-26.01,.33-.53,.68-1.06,1.03-1.59,.61-.14,1.23-.25,1.85-.36,4.58-.66,9.21-.9,13.83-.71h8.38l3.69-.11h2.15l2.79-.1h1.16l2.79-.07h10.75l1.39,.08h2.55l.63,.07h.14l.71,.08h.18l.57,.08c1.79,.25,3.57,.59,5.33,1.03,3.32,.81,6.5,2.1,9.45,3.83,3.75,2.32,7.18,5.11,10.23,8.29,1.81,1.86,3.52,3.82,5.11,5.87v1.46c.92,13.94-2.19,27.57-4.6,41.15Z"/>
  <path class="cls-5" d="M494.44,284.8l-1.21,2.08-.4,.7-.25,.42c-1.52,2.58-3.07,5.16-4.61,7.72l-.91,1.49-1.39,2.29c-12.08-7.6-24.46-14.6-37.13-20.99l-.71-1.04c-.7-1.02-1.39-2.1-2.16-3.23-3.92-5.91-8.5-13.19-13.07-21.1l-.2-.32c-15.02-26.04-29.89-58.83-20.43-72.61,3.09,.47,3.85-1.09,6.76,0,31.62,12.27,35.3,55.12,56.02,78.33,6.83,8.63,13.11,17.54,19.71,26.29Z"/>
  <path class="cls-5" d="M362.77,229.24c1.1-3.17,1.9-6.44,2.38-9.76,6.04-36.15-25.09-57.61-33.2-88.84-3.44-10.68-7.36-21.17-10.98-31.78l-3.46,.2c-4.18,.25-8.36,.53-12.54,.84,0,15.25-.62,30.49-1.85,45.72,10.65,26.88,37.98,86.6,59.65,83.63Z"/>
  <path class="cls-5" d="M399.54,185.24c-3.16,3.17-6.83,5.79-10.86,7.74-.85,.36-1.73,.65-2.62,.88-.71,.21-1.46,.33-2.2,.33-1.41,.07-2.81-.2-4.08-.81-3.57-1.8-5.83-5.66-7.5-9.69-1-2.44-1.83-4.95-2.48-7.5h3.65c8.36,0,16.79-.71,25.19-.43,3.06,.09,6.12,.34,9.16,.75-2.6,3.05-5.35,5.96-8.25,8.73Z"/>
  <path class="cls-5" d="M400.5,181.26c2.79-1.53,6.82-4.25,6.19-8.36-.67-4.28-6.11-5.16-9.87-3.76-2.74,1.07-5.24,2.67-7.34,4.73-2.1,2.05-3.77,4.51-4.91,7.22,2.63-2.97,2.79-7.6,1.06-11.31-2.08-4.45-10.24-8.66-12.04-1.71-1.39,5.58,2.06,11.61,4.78,16.04l22.13-2.84Z"/>
  <path class="cls-9" d="M390.51,160.46c-7.44-.86-12.89-8.24-12.11-16.39l2.08-21.5c.78-8.14,7.53-14.11,14.97-13.26,7.44,.86,12.89,8.24,12.1,16.39l-2.06,21.5c-.79,8.14-7.54,14.11-14.97,13.26Z"/>
  <path class="cls-9" d="M413.75,139.44c-.03,.72-.21,1.42-.52,2.06-.31,.65-.75,1.22-1.28,1.7-.54,.47-1.16,.84-1.84,1.07-.68,.23-1.4,.32-2.11,.27-1.45-.22-2.76-1.01-3.63-2.19-.88-1.18-1.25-2.66-1.04-4.11,.04-.72,.21-1.42,.52-2.07,.31-.65,.75-1.23,1.29-1.7,.54-.48,1.17-.84,1.85-1.07,.68-.23,1.4-.32,2.12-.27,1.45,.23,2.75,1.02,3.63,2.2,.87,1.18,1.24,2.66,1.03,4.11Z"/>
  <path class="cls-9" d="M382.23,135.85c-.03,.72-.21,1.42-.52,2.07-.31,.65-.74,1.23-1.28,1.7-.54,.48-1.16,.84-1.84,1.07s-1.4,.32-2.11,.27c-1.44-.24-2.74-1.03-3.61-2.21-.87-1.18-1.25-2.65-1.06-4.1,.03-.72,.21-1.42,.52-2.07,.31-.65,.75-1.23,1.29-1.7,.54-.48,1.16-.84,1.85-1.07,.68-.23,1.4-.32,2.11-.27,1.45,.23,2.75,1.02,3.62,2.19,.87,1.18,1.24,2.65,1.03,4.11Z"/>
  <path class="cls-1" d="M439.07,227.83c-3.88,7.8-7.77,15.59-11.65,23.38-.63,1.24,1.24,2.33,1.85,1.09l11.65-23.38c.61-1.24-1.24-2.33-1.85-1.09Z"/>
  <path class="cls-1" d="M429.78,254.19c0-11.15-.63-22.3-.65-33.46-.03-.26-.16-.51-.36-.69-.2-.18-.46-.28-.72-.28s-.52,.1-.72,.28c-.2,.18-.33,.42-.36,.69,0,11.15,.63,22.3,.65,33.46,.03,.27,.16,.51,.36,.69,.2,.18,.46,.28,.72,.28s.53-.1,.72-.28c.2-.18,.33-.42,.36-.69Z"/>
  <path class="cls-1" d="M343.3,245.52v-54.12c-.03-.26-.16-.51-.36-.69-.2-.18-.46-.28-.72-.28s-.53,.1-.72,.28c-.2,.18-.33,.42-.36,.69v54.12c.03,.27,.16,.51,.36,.69,.2,.18,.46,.28,.72,.28s.52-.1,.72-.28c.2-.18,.33-.42,.36-.69Z"/>
  <path class="cls-1" d="M342.94,215.62c-3.71-10.66-5.21-21.96-4.43-33.22,.1-1.39-2.06-1.39-2.15,0-.81,11.45,.72,22.95,4.5,33.79,.45,1.3,2.54,.74,2.08-.57Z"/>
  <path class="cls-12" d="M379.82,317.69v23.45c0,.29,.11,.56,.32,.76,.2,.2,.47,.31,.76,.31s.56-.11,.76-.31c.2-.2,.32-.47,.32-.76v-23.45c0-.29-.11-.56-.32-.76-.2-.2-.47-.32-.76-.32s-.56,.11-.76,.32c-.2,.2-.32,.47-.32,.76Z"/>
  <path class="cls-12" d="M381.45,340.47c-3.88-1.66-3.81-8.2-4.11-11.57-.31-3.71-.4-7.43-.25-11.15,0-1.39-2.12-1.39-2.16,0-.22,5.55,.09,11.12,.92,16.62,.5,3.21,1.3,6.64,4.52,8.03,1.27,.54,2.37-1.32,1.09-1.87v-.06Z"/>
  <path class="cls-12" d="M400.72,313.39c.67,11.15,5.73,22.7,15.12,29.2,1.13,.79,2.22-1.07,1.09-1.85-8.73-6.05-13.44-17.08-14.05-27.35-.08-1.39-2.24-1.39-2.16,0Z"/>
  <path class="cls-12" d="M358.1,312.93c-.53,8.76-6.54,17.54-11.76,24.27-.85,1.07,.67,2.61,1.52,1.52,5.57-7.25,11.82-16.38,12.4-25.79,.08-1.39-2.08-1.39-2.16,0Z"/>
  <path class="cls-3" d="M385.39,145.54h11.58c-1.39,2.09-3.25,4.18-5.58,4.43-2.33,.25-5.84-1.81-6.01-4.43Z"/>
  <path class="cls-9" d="M312.01,64.93c1.94-.25,2.34,9.12,2.34,9.12,0,0,.18-12.25,1.62-12.73,2.27-.74,1.87,13.19,1.87,13.19,0,0,.79-15.15,3.35-14.62,2.55,.53,.21,15.42,.21,15.42,0,0,3-13.86,5.1-12.99,2.1,.86-2.43,18.58-2.43,18.58,0,0,6.97-5.34,8.04-3.86,1.83,2.5-12.54,14.51-12.54,14.51l-9.76-1.28s.32-25.09,2.2-25.33Z"/>
  <path class="cls-7" d="M315.41,85.35c-.26-1.59-.1-3.23,.46-4.74,.56-1.51,1.51-2.85,2.75-3.89,.81-.66-.33-1.78-1.14-1.14-1.39,1.18-2.45,2.7-3.09,4.41-.64,1.71-.84,3.55-.58,5.35,.13,1.02,1.73,1.03,1.6,0h0Z"/>
  <path class="cls-9" d="M309.82,90.24l.5,10.82,10.84-1.05-1.53-10.79-9.81,1.02Z"/>
  <path class="cls-17" d="M344.03,299.89h77.12"/>
  <path class="cls-2" d="M317.36,79.58c6.36,0,11.51-5.16,11.51-11.51s-5.15-11.51-11.51-11.51-11.51,5.16-11.51,11.51,5.15,11.51,11.51,11.51Z"/>
  <path class="cls-15" d="M406.76,132.29c-1.35-.22-2.62-.81-3.66-1.69-1.05-.89-1.83-2.04-2.27-3.34-.84-2.61-1.03-5.38-.56-8.09-1.12,.12-2.15,.67-2.88,1.53-1.7,1.24-3.8,1.81-5.9,1.62-.88,.05-1.76-.07-2.59-.36-.41-.15-.78-.41-1.07-.74-.29-.33-.49-.74-.58-1.17-5.66,2.56-12.67,1.49-18.01-1.69-5.3-3.35-9.28-8.43-11.25-14.39-1.56-3.99-1.88-8.37-.89-12.55,.51-2.07,1.55-3.97,3.02-5.52,1.46-1.55,3.31-2.69,5.35-3.31,1.95-.38,3.97-.31,5.89,.21,1.92,.52,3.7,1.47,5.19,2.78,2.96,2.66,5.36,5.88,7.07,9.48,1.61,2.7,2.56,5.73,2.79,8.87,2.13-1.71,4.6-1.77,7.32-2.06,2-.15,3.98,.45,5.56,1.68,1.58,1.23,2.65,3,3.01,4.97,.58-.67,1.34-1.18,2.18-1.47s1.75-.34,2.62-.16c.99,.1,1.94,.43,2.77,.98,.83,.54,1.52,1.28,2.01,2.14,.6,1.21,.98,2.52,1.11,3.86,.56,2.93,.56,5.94,0,8.87-.75,2.58-1.84,5.04-3.26,7.32-.64,1.18-2.31,1-2.97,2.22Z"/>
  <path class="cls-14" d="M532.38,334.37c-39.62,20.34-59.25,70.1-66.45,112.91-1.14,6.8-4.28,23.7-3.37,37.64h36.24c5.41-8.95,10.21-18.27,14.34-27.88,13.26-29.51,23.18-60.4,29.58-92.12,1.24-6.54,6.2-39.03-10.33-30.56Z"/>
  <path class="cls-11" d="M479.72,484.9c7.61-30.1,24.42-87.51,51.89-135.34,.14-.23,.18-.51,.12-.77-.06-.26-.23-.49-.45-.63-.11-.08-.24-.14-.37-.16-.14-.03-.27-.02-.41,.01-.13,.03-.26,.1-.36,.18-.11,.09-.19,.2-.25,.32-27.74,48.27-44.6,106.28-52.22,136.36l2.06,.03Z"/>
  <path class="cls-11" d="M514.47,381.71c-.12-.01-.24-.04-.35-.1-.13-.08-.25-.18-.33-.31-.09-.13-.14-.27-.17-.43l-4.18-27.99c-.04-.26,.03-.52,.18-.74,.15-.21,.38-.36,.64-.41,.13-.02,.26,0,.38,.02,.12,.03,.24,.09,.35,.17,.1,.08,.19,.18,.25,.29,.06,.11,.11,.24,.12,.37l3.9,26.62,20.6-10.59c.11-.06,.24-.09,.37-.1,.13,0,.26,.01,.38,.05,.12,.04,.23,.11,.33,.2,.1,.09,.17,.19,.22,.31,.07,.12,.11,.25,.12,.39,.01,.14,0,.27-.04,.4s-.11,.25-.19,.35c-.09,.1-.2,.19-.32,.25l-21.79,11.15c-.14,.08-.31,.11-.47,.08Z"/>
  <path class="cls-11" d="M500.31,415.92c-.09,.02-.19,.02-.28,0-.13-.06-.24-.15-.34-.26-.09-.11-.16-.23-.2-.37l-9.03-31.07c-.07-.25-.05-.52,.07-.76,.12-.23,.32-.41,.57-.5,.12-.04,.25-.05,.38-.04,.13,.01,.25,.05,.37,.12,.11,.06,.21,.15,.29,.25,.08,.1,.14,.22,.17,.34l8.71,29.96,23.51-11.63c.12-.06,.24-.09,.37-.09,.13,0,.26,.01,.38,.06s.23,.11,.32,.2c.09,.09,.17,.19,.22,.31,.06,.12,.1,.25,.11,.39,.01,.14,0,.27-.05,.4s-.11,.25-.2,.35c-.09,.1-.2,.19-.32,.25l-24.54,12.13c-.17,.04-.35,.03-.52-.04Z"/>
  <path class="cls-11" d="M488.65,450.1h-.24c-.24-.1-.43-.29-.54-.53l-10.84-24.74c-.1-.24-.11-.51-.02-.76,.09-.25,.27-.45,.51-.56,.11-.05,.24-.09,.37-.09s.25,.02,.37,.06c.12,.04,.23,.11,.32,.2,.09,.09,.16,.2,.21,.31l10.44,23.82,22.47-10.94c.11-.06,.24-.09,.37-.09,.13,0,.26,.01,.38,.06,.12,.04,.23,.11,.32,.2,.09,.09,.17,.19,.22,.31,.06,.12,.1,.25,.11,.39,.01,.14,0,.27-.05,.4s-.11,.25-.2,.35c-.09,.1-.2,.19-.32,.25l-23.35,11.38c-.17,.04-.35,.04-.52-.01Z"/>
  <path class="cls-4" d="M222.32,398.5l-63.47-160.31c-14.63,3.04-6.97,22.3-2.22,30.81,3.05,5.58,10.15,10.29,4.54,15.53-4.43,4.18-10.31,.24-15.41,0-13.63-.74-23.87,7.86-23.04,22.3,.54,9.39,4.86,17.41,13.3,21.38,10.36,4.88,13.69-2.16,23.32-2.79,8.36-.6,19.36,9.58,12.45,18.4-3.82,4.71-16.17,5.86-21.37,8.89-8.5,5.02-13.14,13.35-10.22,23.45,7.33,25.2,27.15,0,39.12-2.19,16.14-2.91,4.07,12.82,2.02,19.52-2.54,8.28-.86,15.53,8.57,14.18,8.36-1.18,8.04-9.44,14.43-12.55,8.6-4.11,8.31,4.28,17.98,3.37Z"/>
  <path class="cls-4" d="M222.32,398.5l-63.47-160.31c12.54-8.28,20.14,11.07,22.54,20.52,1.56,6.13-.28,14.62,7.3,14.39,6.01-.19,7.55-7.19,11.02-11.04,9.28-10.26,22.48-11.4,31.74-.4,5.99,7.12,8.36,15.96,4.99,24.83-4.18,10.9-11.29,8.24-18.66,14.61-6.4,5.51-7.39,20.67,3.57,22.08,6.01,.77,15.64-7.25,21.45-8.77,9.51-2.47,18.51,.21,23.26,9.54,11.88,23.31-19.51,19.36-29.55,26.36-13.56,9.42,5.8,12.1,11.81,15.43,7.44,4.18,11.15,10.52,3.48,16.3-6.77,5.07-12.18-1.05-18.86,1.31-9.03,3.12-3.11,8.94-10.62,15.17Z"/>
  <path class="cls-16" d="M162.17,250.6l69.94,170.83"/>
  <path class="cls-16" d="M155.84,308.08l31.16,3.61,21.59-32.52"/>
  <path class="cls-16" d="M171.77,357.51l36.22,8.85"/>
  <path class="cls-16" d="M209,329.02l-7.28,12.62"/>
  <path class="cls-16" d="M225.81,366.56l-8.57,23.25-20.04-6.98"/>
  <path class="cls-4" d="M657.41,417.6l77.06-154.29c-12.03-8.88-21.23,9.76-24.42,18.9-2.08,5.95-.89,14.43-8.54,13.74-6.05-.53-7.05-7.53-10.24-11.51-8.54-10.65-21.78-12.55-32.06-2.24-6.63,6.68-9.76,15.24-6.97,24.18,3.28,10.96,10.73,8.76,17.67,15.46,6.01,5.8,5.8,20.8-5.39,21.55-6.12,.4-15.21-8.06-20.91-9.88-9.39-2.98-18.72-.88-24.27,8.04-13.94,22.3,18.12,20.2,27.72,27.68,12.95,10.08-6.83,11.58-13.17,14.51-7.86,3.64-12.14,9.76-4.84,15.85,6.43,5.4,12.39-.32,18.94,2.38,8.74,3.71,2.3,9.03,9.41,15.61Z"/>
  <path class="cls-4" d="M657.41,417.6l77.06-154.29c14.57,3.85,5.18,22.39-.24,30.47-3.53,5.27-11.15,9.55-5.84,15.04,4.18,4.35,10.4,.84,15.58,.85,13.83,.07,23.48,9.14,21.46,23.36-1.3,9.23-6.31,16.87-15.16,20.3-10.86,4.18-13.66-2.93-23.32-4.18-8.36-1.07-20.34,8.36-14.08,17.4,3.44,4.99,15.85,6.82,20.91,10.13,8.17,5.44,12.2,13.94,8.36,23.7-9.43,24.41-27.43-1.6-39.34-4.42-16.07-3.82-5.14,12.39-3.61,19.08,1.88,8.36-.39,15.33-9.76,13.48-8.29-1.66-7.36-9.76-13.56-13.17-8.42-4.6-8.79,3.7-18.47,2.24Z"/>
  <path class="cls-16" d="M727.43,274.11l-80.56,166.08"/>
  <path class="cls-16" d="M680.39,307.75l18.12,25.62,38.62-5.62"/>
  <path class="cls-16" d="M654.2,352.59l17.59,32.9"/>
  <path class="cls-16" d="M700.27,361.32l-14.24,3"/>
  <path class="cls-16" d="M683.54,398.9l-23.04,9.12-8.18-19.59"/>
</svg>