<?xml version="1.0" encoding="UTF-8"?>
<svg id="_圖層_1" data-name="圖層 1" xmlns="http://www.w3.org/2000/svg" viewBox="0 0 706 1024">
  <defs>
    <style>
      .cls-1 {
        fill: none;
      }

      .cls-2 {
        fill: #f4cd7d;
      }

      .cls-3 {
        fill: #ea9a2d;
      }

      .cls-4 {
        fill: #f3d6fc;
      }

      .cls-5 {
        fill: #fff;
      }

      .cls-6 {
        fill: #e6d9d1;
      }

      .cls-7 {
        fill: #735940;
      }

      .cls-8 {
        fill: #baab98;
      }

      .cls-9 {
        fill: #cf5f15;
      }

      .cls-10 {
        fill: #d8d6d7;
      }

      .cls-11 {
        fill: #c9b9a5;
      }

      .cls-12 {
        fill: #d4aa8e;
      }

      .cls-13 {
        fill: #afafaf;
      }

      .cls-14 {
        fill: #c6d15d;
      }

      .cls-15 {
        fill: #231f20;
      }

      .cls-16 {
        fill: #0c090c;
      }

      .cls-17 {
        fill: #465150;
      }

      .cls-18 {
        fill: #9aafae;
      }

      .cls-19 {
        fill: #637a78;
      }

      .cls-20 {
        fill: #482a28;
      }

      .cls-21 {
        fill: #3b261c;
      }

      .cls-22 {
        fill: #3d3533;
      }

      .cls-23 {
        fill: #3b7cb2;
      }

      .cls-24 {
        fill: #503a29;
      }

      .cls-25 {
        fill: #765b3e;
      }
    </style>
  </defs>
  <rect class="cls-1" y="0" width="706" height="1024"/>
  <rect class="cls-22" y="0" width="706" height="1024"/>
  <rect class="cls-1" x="24" y="203" width="659" height="619"/>
  <path class="cls-13" d="M524.66,822c13.01-16.78,20.83-37.78,20.83-60.65,0-44.3-29.06-81.79-69.13-94.51-21.49-64.93-82.62-111.81-154.74-111.81-90.02,0-163.01,73.01-163.01,163.07,0,39.48,14.02,75.69,37.37,103.89h328.68Z"/>
  <path class="cls-13" d="M164.63,577.19c-63.91,0-117.34,44.76-130.75,104.64,5.41-2.48,11.41-3.91,17.74-3.91,23.54,0,42.62,19.09,42.62,42.64s-19.08,42.63-42.62,42.63c-3.88,0-7.61-.57-11.18-1.53,9.75,24.01,26.22,44.57,47.11,59.29H241.7c34.44-24.26,56.95-64.32,56.95-109.66,0-74.05-60.01-134.09-134.04-134.09h.01Z"/>
  <path class="cls-13" d="M464.94,343.5c-21.49-64.93-82.62-111.81-154.74-111.81-63.97,0-119.32,36.89-145.99,90.55,13.75,3.69,23.93,16.11,23.93,31.03,0,17.81-14.44,32.25-32.24,32.25-2.9,0-5.65-.51-8.31-1.22-.22,3.45-.37,6.93-.37,10.44,0,39.48,14.02,75.69,37.37,103.89h328.67c13.01-16.78,20.83-37.79,20.83-60.65,0-44.3-29.06-81.79-69.13-94.51h-.02Z"/>
  <path class="cls-2" d="M350.49,728.13l29.86,63.97,28.58-2.93-2.59-61.04h-55.85Z"/>
  <path class="cls-20" d="M401.69,728.46l-41.89,17.21-9.31-17.54,51.2,.33Z"/>
  <path class="cls-4" d="M278.2,476.83l18.5,55.92,30.17,18.76-10.86,17.6s-31.05-2.84-40.86-6.35c-9.8-3.51-51.82-18.43-51.82-18.43,0,0,52.42-65.32,54.86-67.49h.01Z"/>
  <path class="cls-16" d="M95.53,763.57l-19.81-20.83-24.1,16.3s20.36,27.49,39.61,50.24l19.08-10.04c-6.97-16.72-14.01-33.16-14.78-35.67Z"/>
  <path class="cls-16" d="M134.84,813.74c-1-1.61-21.5-13.09-26.02-19.18l-17.58,14.73,7.11,9.94c25.18,2.08,40.37,.77,36.49-5.49Z"/>
  <path class="cls-14" d="M122.74,629.77s223.19-59.67,237.67-47.83c14.48,11.86,72.4,147.18,72.4,147.18h-96.33l-32.79-53.29s-152,39.51-180.95,19.77c-28.95-19.74-29.44-52.85,0-65.84Z"/>
  <path class="cls-14" d="M201.79,619.85s113.41,110.02,75.69,143.84c-34.89,31.27-72.95-2.84-84.8-4.15-11.85-1.32-60.46,25.13-60.46,25.13l-57.46-55.53,47.99-33.52s-25.1-19.64-23.36-39.26c3.51-39.55,68.77-56.59,102.41-36.51Z"/>
  <path d="M179.74,720.76c-22.74-24.54-56.65-24.84-57-24.84v-.61c.34,0,34.53,.28,57.44,25.04l-.45,.42Z"/>
  <path class="cls-2" d="M108.8,794.57c-35.38-21.6-33.1-51.83-33.1-51.83l19.81,20.83c.68,2.23,6.8,15.98,13.29,31Z"/>
  <path class="cls-16" d="M408.94,789.17l-28.6,2.93-1.84,29.05s34.19,.7,63.97-.62l3.73-21.24c-17.5-4.7-34.8-9.19-37.27-10.12Z"/>
  <path class="cls-16" d="M478.1,813.71c-1.05-1.58-32.15-14.52-32.15-14.52l-11.58,11.47-8.62,10.4c25.22,1.28,56.43-1.23,52.36-7.36v.02Z"/>
  <path class="cls-2" d="M440.9,797.87c-38.72,14.79-60.55-5.77-60.55-5.77l28.6-2.93c2.19,.82,16.12,4.64,31.96,8.7Z"/>
  <path class="cls-2" d="M75.72,742.74l6.6-6.17,30.42,29.28-14.66,4-22.36-27.1Z"/>
  <path class="cls-4" d="M141.82,478.58s109.88-41.49,133.68-6.59c20.27,29.71-6.51,94.58-22.71,119.84-55.93,87.25-146.69,43.24-146.69,43.24,0,0-18.75-28.59,35.73-156.49h-.01Z"/>
  <path class="cls-20" d="M197.6,448.66c4.69-4.69,4.69-12.31,0-17s-12.3-4.69-16.99,0-4.69,12.31,0,17,12.3,4.69,16.99,0Z"/>
  <path class="cls-20" d="M179.9,422.54c.82,8.49,8.37,14.71,16.86,13.89,8.49-.82,14.71-8.38,13.89-16.87-.82-8.49-4.68-26.92-12.37-23.25-14.08,6.74-19.18,17.73-18.36,26.23h-.01Z"/>
  <path class="cls-20" d="M229.51,398.72c-4.64-5.22-12.27-6.68-19.24-6.19-1.67,.12-3.35,.33-4.94,.82-1.87,.57-3.61,1.5-5.4,2.34-2.65,1.23-5.46,2.29-7.64,4.24-2.19,1.95-3.63,5.1-2.6,7.84,.21,.57,.52,1.13,.54,1.74,0,.6-.28,1.15-.54,1.68-3.08,6.55-1.05,14.27,1.44,21.05,1.83,4.98,4.27,10.29,9.06,12.58,.8,.39,1.75,.67,2.59,.33,.57-.24,.98-.73,1.38-1.22,1.73-2.11,3.47-4.29,4.37-6.86,.67-1.92,.83-3.97,1.29-5.94,.86-3.69,2.78-7.08,5.26-9.94,1.52-1.74,3.3-3.33,5.47-4.08,2.29-.77,4.82-.61,7.2-.64,1.38-.02,3.12,.12,4.07-1.09,1.01-1.28,1.28-3.33,1.41-4.91,.18-1.98-.01-4-.57-5.91-.61-2.16-1.68-4.18-3.18-5.86h.01Z"/>
  <path class="cls-2" d="M231.62,479.94c.57-23.04-5.55-67.34-5.55-67.34,0,0-11.02,3.57-17.99,8.63-.1-1.49-.54-3.45-1.53-6.07,0,0-2.39-5.12-4.91-4.31-2.51,.8-5.23,4.54-.67,9.28l2.68,5.42c-.49,.74-.83,1.5-1.03,2.26,0,0-8.48,32.49-10.69,36.02,0,0,5.83,34.5,27.35,36.77,13.95,1.47,12.31-20.66,12.31-20.66l.03,.02Z"/>
  <path class="cls-20" d="M230.83,459.4c-.13-3.94-.24-5.22-.52-10.52,0,0-20.6-3.23-26.34-14,0,0,13.18,25.15,26.87,24.52h-.01Z"/>
  <path class="cls-2" d="M230.74,407.08s.21,9.77,2.35,12.91c2.14,3.14,2.88,23.16,0,27.6-1.49,2.28-9.78,3.23-18.38-3.05-8.6-6.28-11-22.34-11-22.34,0,0-4.62-16.81,27.05-15.11h-.01Z"/>
  <path class="cls-21" d="M231.68,426.21c-.04,1.08-.47,1.93-.97,1.92-.49-.01-.85-.91-.8-1.99,.04-1.09,.48-1.93,.97-1.92,.49,.02,.85,.91,.8,1.99Z"/>
  <path class="cls-21" d="M224.11,425.9c-.04,1.09-.48,1.93-.97,1.92-.49-.02-.85-.91-.8-1.99s.48-1.93,.97-1.92c.49,.01,.85,.91,.8,1.99Z"/>
  <path class="cls-20" d="M225.19,417.03s-4.48-3.17-7.48-.31c-3,2.86-1.16,3.56-.65,3.53,.51-.03,5.99-2.96,7.54-1.12,0,0,2.13,.18,.59-2.11h0Z"/>
  <path class="cls-20" d="M234.43,416.75c-1.72-2.69-5.53-.07-5.53-.07-1.71,2.14,.42,2.14,.42,2.14,1.7-1.73,7.91,2.29,5.12-2.08h0Z"/>
  <path class="cls-20" d="M164.98,447.16c0,5.15,4.16,9.31,9.31,9.31s9.31-4.17,9.31-9.31-4.16-9.31-9.31-9.31-9.31,4.17-9.31,9.31Z"/>
  <path class="cls-20" d="M155.88,459.42c0,4.45,3.6,8.05,8.04,8.05s8.05-3.6,8.05-8.05-3.6-8.05-8.05-8.05-8.04,3.6-8.04,8.05Z"/>
  <path class="cls-20" d="M144.77,464.61c0,3.63,2.95,6.56,6.56,6.56s6.56-2.95,6.56-6.56-2.94-6.56-6.56-6.56-6.56,2.95-6.56,6.56Z"/>
  <path class="cls-20" d="M225.24,411.31c-2.28-.24-4.68-.67-6.8,.24-2.45,1.04-4.01,3.7-6.57,4.43-1.1,.31-2.32,.22-3.36-.25-2.08-.95-4.7-3.21-4.54-5.49,.15-2.28,2.9-4.52,4.67-5.96,2.71-2.22,6.36-3.02,9.84-2.77,3.48,.27,6.82,1.52,9.95,3.06,1.15,.57,2.32,1.21,3.09,2.23,.62,.82,1.29,2.63,.21,3.36-1.07,.73-2.57,1.12-3.84,1.22-.89,.07-1.78,.03-2.66-.07Z"/>
  <path class="cls-5" d="M228.76,433.41h-9.53s2.83,4.46,6.9,4.67c2.3,.12,2.63-4.67,2.63-4.67Z"/>
  <path class="cls-6" d="M301.82,577.74s-56.95,42.2-71.42,121.89c-9.64,53.08-4.89,113.44,14.78,119.1l79.26,.49,10.07-232c-15.69-25.35-32.67-9.46-32.67-9.46l-.02-.02Z"/>
  <path class="cls-9" d="M285.16,808.46c7.46,0,13.5-6.05,13.5-13.51s-6.04-13.51-13.5-13.51-13.5,6.05-13.5,13.51,6.05,13.51,13.5,13.51Z"/>
  <path class="cls-9" d="M238.46,669.28c-3.29,9.43-6.08,19.5-8.04,30.33-3.24,17.85-4.82,36.49-4.77,53.64,1.75-1.25,4.1-3.57,5.2-7.59,1.87-6.81,9.31-20.84,20.34-36.31,10.94-15.34-12.33-39.66-12.73-40.08Z"/>
  <path class="cls-8" d="M366.92,567.83l-20.05-.09-16.68-3.05s0-4.18,.52-4.18,36.21,7.32,36.21,7.32Z"/>
  <path class="cls-6" d="M296.14,534.67s18.02-14.35,26.5-12c8.48,2.35,28.05,17.23,39,17.23s13.47,8.23,11.75,14.1c-2.93,9.98-6.45,13.84-6.45,13.84l-29.55-3.66,25.92,4.94,.19,3.67c-26.38,21.84-57.09,8-67.35,4.86-10.25-3.14,0-42.98,0-42.98h-.02Z"/>
  <path class="cls-24" d="M303.31,525.91s-47.27,32.88-39.38,61.6c8.58,31.25,36.97,23.31,43.76,12,10.08-16.79-5.95-41.5,5.46-65.78,0,0,9.74-16.45-9.83-7.82h-.02Z"/>
  <path class="cls-7" d="M365.43,540.3s-4.42,3.12,0,7.82c4.42,4.7,7.94,5.88,7.94,5.88,0,0,5.96-11.26-7.94-13.7Z"/>
  <path class="cls-25" d="M323.81,538.05s3.66,1.18,8.03,1.71c0,0-3.55,5.18-8.03-1.71Z"/>
  <path class="cls-6" d="M258.13,803.38c-.55-6.74-2.54-13.54-6.29-19.61-5.61-9.07-16.27-19.34-36.12-20.89-36.64-2.86-46.65-14.41-46.65-14.41,0,0-7.9,66.9,36.48,68.7,44.39,1.8,53.86,2.04,53.86,2.04l-1.29-15.83h.02Z"/>
  <path class="cls-6" d="M333.4,606.66s19.79,21.59,16.07,110.48c-.98,23.56,13.8,102.66,13.8,102.66l-10.94,.45s-16.73-37.52-25.67-64.22c-8.94-26.7,.28-154.4,6.72-149.37h.02Z"/>
  <path class="cls-9" d="M356.35,779.41c-.79-4.98-1.58-10.11-2.33-15.26-3.55,.76-6.26,3.76-6.26,7.54,0,4.34,3.52,7.87,7.87,7.87,.27,0,.48-.12,.74-.15h-.01Z"/>
  <path class="cls-9" d="M344.2,634.03s-13.9,11.04-9.7,25.33c4.21,14.28,10.53,27.12,6.13,32.06-4.39,4.94,9.31,6.6,9.31,6.6,0,0,4.19-30.51-5.74-64Z"/>
  <path class="cls-6" d="M324.42,806.62s18.71,4,18.71,12.59h-20.74l2.04-12.59Z"/>
  <path class="cls-6" d="M354.16,810.49s18.78,2.83,18.93,9.74l-20.74,.45,1.81-10.18h0Z"/>
  <path class="cls-15" d="M269.11,806.56c-3.9-29.98-3.02-96.32,10.07-110.44,5.1-5.5,10.17-7.77,15.06-6.74,5.7,1.19,10.1,6.71,12.79,11.13,2.9,4.76,4.49,9.31,4.51,9.36l-.51,.18c-.06-.18-6.32-17.91-16.89-20.14-4.7-1-9.59,1.24-14.56,6.59-12.49,13.49-13.9,79.42-9.92,110.01l-.54,.07h-.01Z"/>
  <path class="cls-25" d="M326.68,756.01l-6.51-16.35,6.33,32.04,.18-15.69Z"/>
  <path class="cls-15" d="M308.52,596.73l-.17,.44,24.97,9.72,.17-.44-24.97-9.72Z"/>
  <path class="cls-9" d="M321.67,682c3.39,0,6.14-2.75,6.14-6.14s-2.75-6.14-6.14-6.14-6.14,2.75-6.14,6.14,2.75,6.14,6.14,6.14Z"/>
  <path d="M237.91,659.55l-24.16-28.23,.46-.4,24.16,28.23-.46,.4Z"/>
  <path d="M432.81,716.83h-83.33v.61h83.33v-.61Z"/>
  <path d="M78.41,713.15l-.43,.43,65.04,65.52,.43-.43-65.04-65.52Z"/>
  <path class="cls-15" d="M324.44,814.78h-61.58v-.27c0-13.48-2.5-32.09-14.44-44.18-7.12-7.23-14.35-8.7-14.42-8.72l.1-.52s7.43,1.52,14.68,8.85c6.65,6.72,14.56,19.86,14.62,44.32h61.04v.52Z"/>
  <path class="cls-2" d="M284.41,617.75s-12.09,21.75-16.45,20.25c-18.51-6.35-26.9-18.71-26.9-18.71,0,0,9.87-16.77,10.86-17.6,.98-.83,10.25-3.23,15.88-1.11,5.64,2.13,16.61,17.17,16.61,17.17v.02Z"/>
  <path class="cls-2" d="M258.71,599.92s22.47-4.09,22.98-1.71c.51,2.38-8.04,6.8-8.04,6.8l-14.93-5.09Z"/>
  <path class="cls-2" d="M273.64,605.01s27.42,21.57,26.56,25.42c-.92,4.08-23.46-9.51-24-12.44-.55-2.93-2.56-12.99-2.56-12.99Z"/>
  <path class="cls-2" d="M278.73,620.02s21.59,16.54,20.36,19.09c-2.44,5.03-24.33-11.04-24.88-13.97-.55-2.93,4.52-5.1,4.52-5.1v-.02Z"/>
  <path class="cls-2" d="M272.35,621.96s20.4,19.1,19.24,22.67c-1.73,5.33-24.52-15.44-24.57-18.42-.05-2.98,5.32-4.26,5.32-4.26Z"/>
  <path class="cls-2" d="M264.11,623.97s20.37,21.82,19.24,22.67c-4.46,3.36-24.52-15.44-24.57-18.42-.04-2.97,5.32-4.26,5.32-4.26Z"/>
  <path class="cls-2" d="M165.85,563.96l51.79,24.95,36.03,12.88-9.46,18.58s-30.96,3.79-41.28,2.42c-10.32-1.37-54.54-7.07-54.54-7.07,0,0,15.54-49.14,17.46-51.77Z"/>
  <path class="cls-4" d="M203.97,577.19l-29.7,49.43s-98.99-5.12-89.1-57.58c7.64-40.58,56.64-90.46,56.64-90.46l62.16,98.6v.02Z"/>
  <path class="cls-15" d="M174.5,626.75l-.46-.28,29.52-49.15-48.62-16.72,.43-.3c.15-.1,14.26-10.19,16.67-22.66l.52,.1c-2.22,11.44-14.1,20.89-16.48,22.69l48.28,16.6-.16,.28-29.69,49.43Z"/>
  <path class="cls-15" d="M261.25,577.32l-.46-.28c21.81-35.67,10.14-80.15,10.02-80.6l.52-.13c.12,.45,11.85,45.15-10.08,81.01Z"/>
  <path class="cls-15" d="M218.23,509.34c-6.39,0-12.04-1.95-16.85-5.82-14.63-11.78-16.62-37.78-16.64-38.05l.54-.05c.01,.25,1.99,26.03,16.45,37.67,5.9,4.74,13.13,6.54,21.46,5.33,5.16-.76,9.21-3.27,12.04-7.48,9.47-14.01,2.72-42.56,2.65-42.86l.52-.12c.07,.28,6.87,29.07-2.72,43.27-2.93,4.34-7.11,6.93-12.42,7.71-1.72,.25-3.39,.37-5.03,.37v.03Z"/>
  <path class="cls-24" d="M103.47,605.51c-.58,6.71-.6,12.05-.31,16.23l32.28-3.17-31.99-13.06h.02Z"/>
  <path class="cls-15" d="M306.65,715.22l-.16-.51c2.84-.95,9.65-10.99,9.73-11.1l.45,.3c-.28,.42-6.99,10.29-9.99,11.31h-.01Z"/>
  <path class="cls-15" d="M330.15,586.83c-2.53-.33-14.16-2.99-14.65-3.11l.12-.52c.12,.03,12.09,2.78,14.6,3.09l-.08,.54Z"/>
  <path class="cls-2" d="M318.95,606.28s12.09,21.75,16.45,20.25c18.51-6.35,26.9-18.71,26.9-18.71,0,0-9.87-16.77-10.86-17.6-.98-.83-10.24-3.23-15.88-1.12-5.64,2.11-16.61,17.17-16.61,17.17h0Z"/>
  <path class="cls-2" d="M344.66,588.45s-22.47-4.09-22.98-1.71c-.51,2.38,8.05,6.8,8.05,6.8l14.93-5.09Z"/>
  <path class="cls-2" d="M329.73,593.54s-27.42,21.57-26.56,25.42c.92,4.08,23.46-9.51,24-12.44,.55-2.93,2.56-12.99,2.56-12.99Z"/>
  <path class="cls-2" d="M324.64,608.55s-21.59,16.54-20.36,19.09c2.44,5.03,24.33-11.04,24.88-13.97,.55-2.93-4.52-5.1-4.52-5.1h0Z"/>
  <path class="cls-2" d="M331.02,610.48s-20.4,19.1-19.24,22.67c1.72,5.33,24.52-15.44,24.56-18.42,.05-2.98-5.32-4.25-5.32-4.25Z"/>
  <path class="cls-2" d="M339.26,612.5s-20.37,21.82-19.24,22.67c4.46,3.36,24.52-15.44,24.57-18.42,.05-2.98-5.32-4.26-5.32-4.26Z"/>
  <path class="cls-15" d="M321.42,534.3l-.54-.03c0-.1,.18-2.46,2.01-3.44,1.5-.8,3.63-.43,6.32,1.11l-.27,.46c-2.51-1.44-4.48-1.81-5.8-1.11-1.56,.85-1.73,2.97-1.73,2.99v.02Z"/>
  <path class="cls-12" d="M319.98,559.25c3.95,0,7.15-3.2,7.15-7.16s-3.2-7.15-7.15-7.15-7.15,3.2-7.15,7.15,3.2,7.16,7.15,7.16Z"/>
  <path class="cls-20" d="M104.95,767.97l7.79-2.13-30.42-29.28,22.63,31.4Z"/>
  <path class="cls-20" d="M198.32,586.56l-12.01,34.08-7.84-1.01,19.85-33.07Z"/>
  <path d="M157.86,646.32c-30.2,0-51.64-10.83-51.93-10.98l.28-.53c.39,.19,38.57,19.49,84.91,6.31,.24-.07,23.63-7.11,37.67-19.38l.4,.46c-14.14,12.36-37.67,19.44-37.9,19.52-11.84,3.36-23.14,4.63-33.43,4.63v-.02Z"/>
  <path class="cls-15" d="M223.47,520.24c-1.58,0-2.85-1.28-2.85-2.86s1.28-2.86,2.85-2.86,2.85,1.28,2.85,2.86-1.28,2.86-2.85,2.86Zm0-5.18c-1.28,0-2.32,1.04-2.32,2.32s1.04,2.32,2.32,2.32,2.32-1.04,2.32-2.32-1.04-2.32-2.32-2.32Z"/>
  <path class="cls-15" d="M223.99,532.75c-1.58,0-2.85-1.28-2.85-2.86s1.28-2.86,2.85-2.86,2.85,1.28,2.85,2.86-1.28,2.86-2.85,2.86Zm0-5.18c-1.28,0-2.32,1.04-2.32,2.32s1.04,2.32,2.32,2.32,2.32-1.04,2.32-2.32-1.04-2.32-2.32-2.32Z"/>
  <path class="cls-15" d="M224.51,545.26c-1.58,0-2.85-1.28-2.85-2.86s1.28-2.86,2.85-2.86,2.85,1.28,2.85,2.86-1.28,2.86-2.85,2.86Zm0-5.18c-1.28,0-2.32,1.04-2.32,2.32s1.04,2.32,2.32,2.32,2.32-1.04,2.32-2.32-1.04-2.32-2.32-2.32Z"/>
  <path class="cls-11" d="M251.17,640.07l9.22-5.22-4.8-2.66-4.42,7.88Z"/>
  <path class="cls-18" d="M653.23,820.29H24v1.52H653.23v-1.52Z"/>
  <path class="cls-23" d="M619.09,438.92c14.8-13.71,15.79-28.07,14.6-31.49-20-57.73-45.1-55.62-106.23-78.02-17.07-6.26,22.42,69.23,22.42,69.23l10.16,29.8,23.98,35.85,35.05-25.36h.02Z"/>
  <path class="cls-23" d="M415.71,316.12s-54.19,73.44-65.59,88.26c-37.52,48.78-8.03,93.3-8.03,93.3l52.8-11.35,6.26-16.2c9.8-3.51,51.02-73.25,51.02-73.25,0,0-34.01-78.6-36.45-80.78h-.01Z"/>
  <path class="cls-20" d="M410.86,411.69c-2.17-9.79,6.72,39.54,6.72,39.54l4.82-8.49s-6.68-9.22-11.52-31.05h-.02Z"/>
  <path class="cls-23" d="M599.06,423.4s23.48,55.87,23.48,75.26h-177.68s-11.93-40.83-11.7-52.53c.24-11.71,165.91-22.72,165.91-22.72h0Z"/>
  <path class="cls-23" d="M538.98,333.89c-13.46-9.33-99.47-52.68-123.27-17.78-20.27,29.71-9.18,103.02,7.02,128.27,55.93,87.25,146.69,43.24,146.69,43.24,0,0,83.81-74.57-30.44-153.74Z"/>
  <path class="cls-20" d="M512.14,243.34c-15.33-12.6-25.55,7.71-40.31,15.53-10.57,5.61-5.46,28.53,.52,31.27,4.82,2.2,2.11,6.35,7.06,8.23,.83,.31,1.81,.52,2.6,.1,.55-.28,.92-.82,1.26-1.32,1.53-2.25,3.09-4.57,3.78-7.2,.51-1.96,.49-4.02,.79-6.02,.55-3.75,2.17-7.29,4.4-10.34,1.35-1.86,3-3.6,5.11-4.52,2.22-.97,4.76-1.01,7.12-1.25,1.38-.13,3.11-.15,3.97-1.44,.91-1.37-.09-3.85,1-5.01,6.69-7.14,4.43-16.6,2.69-18.03h0Z"/>
  <path class="cls-2" d="M513.72,330.71c-1.38-23.01-11.24-66.63-11.24-66.63,0,0-10.68,4.49-17.19,10.13-.22-1.47-.83-3.39-2.04-5.91,0,0-2.81-4.89-5.25-3.88-2.44,1.01-4.83,4.97,.13,9.31l3.14,5.16c-.42,.77-.71,1.56-.82,2.35,0,0-4.73,36.22-6.63,39.93,0,0,7.79,30.75,29.41,31.18,14.02,.28,10.51-21.64,10.51-21.64h-.03Z"/>
  <path class="cls-20" d="M511.19,310.32c-.46-3.91-.68-5.18-1.41-10.43,0,0-20.79-1.46-27.44-11.71,0,0,15.26,23.94,28.85,22.15h0Z"/>
  <path class="cls-2" d="M506.67,258.19s1.04,9.71,3.43,12.66c2.39,2.95,4.85,22.83,2.33,27.49-1.28,2.4-9.49,4.06-18.57-1.47-9.09-5.53-12.86-21.33-12.86-21.33,0,0-6.04-16.35,25.67-17.36h0Z"/>
  <path class="cls-21" d="M509.21,277.19c.04,1.09-.31,1.96-.8,1.99-.49,.02-.92-.83-.98-1.92-.04-1.09,.31-1.96,.8-1.99,.49-.01,.92,.83,.98,1.92Z"/>
  <path class="cls-21" d="M501.64,277.51c.04,1.09-.31,1.96-.8,1.99-.49,.02-.92-.83-.98-1.92-.04-1.09,.31-1.96,.8-1.99,.49-.01,.92,.83,.98,1.92Z"/>
  <path class="cls-20" d="M501.97,268.59s-4.73-2.77-7.48,.33c-2.75,3.11-.86,3.64-.36,3.57,.51-.07,5.73-3.47,7.42-1.74,0,0,2.13,0,.42-2.14h0Z"/>
  <path class="cls-20" d="M511.15,267.52c-1.95-2.53-5.52,.4-5.52,.4-1.52,2.28,.61,2.1,.61,2.1,1.53-1.86,8.07,1.61,4.92-2.5h-.02Z"/>
  <path class="cls-20" d="M501.54,262.88c-2.29-.04-4.73-.27-6.75,.8-2.35,1.25-3.69,4.03-6.17,4.98-1.07,.4-2.29,.42-3.38,.03-2.16-.77-4.95-2.8-5-5.09-.05-2.29,2.51-4.76,4.15-6.35,2.5-2.44,6.08-3.56,9.58-3.59,3.49-.03,6.93,.94,10.17,2.2,1.19,.46,2.41,1.01,3.27,1.95,.7,.76,1.52,2.51,.49,3.33-1.01,.82-2.47,1.32-3.72,1.53-.88,.15-1.77,.18-2.66,.16l.02,.03Z"/>
  <path class="cls-5" d="M506.92,284.59l-9.5,.8s3.2,4.21,7.27,4.08c2.31-.07,2.23-4.88,2.23-4.88Z"/>
  <path class="cls-15" d="M422.16,442.89c-21.93-35.86-10.2-80.57-10.08-81.01l.52,.13c-.12,.45-11.79,44.93,10.02,80.6l-.46,.28Z"/>
  <path class="cls-2" d="M499.76,470.99s3.72,24.6-.64,26.09c-18.53,6.31-32.73,1.64-32.73,1.64,0,0-2.42-19.31-2.16-20.57,.27-1.26,6.14-8.82,11.9-10.59,5.76-1.77,23.64,3.44,23.64,3.44h-.01Z"/>
  <path class="cls-2" d="M468.51,472.58s15.27-16.97,17.13-15.41c1.86,1.58-2.2,10.29-2.2,10.29l-14.93,5.1h0Z"/>
  <path class="cls-2" d="M483.44,467.48s34.89,.3,36.55,3.88c1.77,3.79-24.37,6.81-26.6,4.83-2.23-1.98-9.95-8.72-9.95-8.72Z"/>
  <path class="cls-2" d="M496.63,476.26s27.2-.12,27.76,2.66c1.13,5.47-25.99,6.13-28.22,4.15-2.23-1.98,.46-6.81,.46-6.81Z"/>
  <path class="cls-2" d="M492.78,481.68s27.81,2.65,29.09,6.19c1.89,5.27-28.85,2.78-30.69,.45-1.86-2.33,1.62-6.63,1.62-6.63h-.01Z"/>
  <path class="cls-2" d="M487.49,488.32s29.46,4.82,29.09,6.19c-1.47,5.4-28.85,2.78-30.69,.45-1.86-2.34,1.62-6.64,1.62-6.64h-.02Z"/>
  <path class="cls-2" d="M370.21,446.12c21.96,.09,62.95,21.07,62.95,21.07l31.08,10.96,2.16,20.57-118.4,.94c-14.35,3.51-26.44-53.73,22.22-53.54Z"/>
  <path class="cls-15" d="M495.87,363.36c-7.7,0-14.07-2.38-18.96-7.08-10.69-10.29-12.15-29.25-11.48-43.33l.54,.03c-1.19,25.32,5.5,37.32,11.32,42.92,5.47,5.28,12.86,7.57,21.95,6.78,6.87-.58,12.22-3.27,15.93-8,8.21-10.5,5.58-27.71,5.55-27.89l.54-.09s.7,4.43,.34,10.09c-.33,5.22-1.62,12.63-5.99,18.21-3.79,4.85-9.28,7.62-16.3,8.21-1.16,.1-2.3,.15-3.42,.15v.02Z"/>
  <path class="cls-5" d="M539.93,282.18s3,12.73,23.44,15.37c20.45,2.63,45.34,17.43,35.67,62.4-2.42,11.31-16.45,10.16-31.61,5.79-11.61-3.35-43.99-30.85-47.2-54.39-3.21-23.53,6.81-24.87,6.81-24.87l12.89-4.3Z"/>
  <path class="cls-5" d="M529.66,264.77s-13.61,2.2-14.3,2.86c-.71,.65-4.02,13.24,4.62,18.15,8.64,4.91,19.97-3.6,19.97-3.6,0,0,7.93-20.02,6.23-19.87-1.7,.15-9.52,6.28-9.52,6.28l-7-3.82v.02Z"/>
  <path class="cls-5" d="M519.98,297.4s3.52,44.9-3.72,54.33l8.89,2.44s7.17-6.96,13.77-23.06c6.6-16.1-18.94-33.71-18.94-33.71Z"/>
  <path class="cls-5" d="M515.83,346.09s-6.54,2.93-4.08,4.23c2.47,1.29,10.83,2.96,10.83,2.96,0,0,.03-5.3-6.75-7.18Z"/>
  <path class="cls-5" d="M551.03,355.6s-5.05,2.84-2.48,4.97c2.57,2.13,30.28,7.75,30.28,7.75,0,0-20.27-13.67-27.78-12.73h-.02Z"/>
  <path class="cls-5" d="M585.69,367.91c-1.55-.43-2.6-1.95-2.39-3.58,.22-1.76,1.77-3.01,3.51-2.89,1.07-.03,31.99-1.5,39.05-38.71,3.03-16.01,.57-29.44-6.96-37.84-5.65-6.31-13.84-9.39-23.09-8.67-1.81,.15-3.41-1.22-3.54-3.04-.13-1.81,1.22-3.41,3.03-3.54,11.33-.88,21.46,2.97,28.52,10.86,8.92,9.97,11.95,25.41,8.52,43.47-8.25,43.5-45.8,44.09-46.16,44.05-.16-.02-.31-.06-.46-.09h-.03Z"/>
  <path class="cls-3" d="M563.38,297.55c-1.93-.25-3.61-.58-5.17-.94h-.02s-4.04,10.93,2.32,16.02c6.36,5.09,22.72,4.28,25.99,9.62,3.27,5.35-2.97,10.89-1.22,16.66,1.32,4.33,7.58,14.53,15.14,13.24,5.29-38.92-17.83-52.15-37.04-54.62h0Z"/>
  <path class="cls-3" d="M546.16,262.31c-1.7,.15-9.52,6.28-9.52,6.28l-7-3.82s-1.52,.25-3.51,.59c-1.17,1.06-3.23,3.03-2.5,3.35,1,.43,11.98-.62,12,3.79,.01,4.42-2.54,7.91-.24,9.52,.82,.57,1.64,1.07,2.44,1.52,1.29-.77,2.08-1.35,2.08-1.35,0,0,7.93-20.02,6.23-19.87h.01Z"/>
  <path class="cls-16" d="M514.43,270.86c1.32,1.13,3.46,.27,4.04-.09,.64-.4,.24-4.02,.22-4.05-1.77,.37-3.15,.7-3.36,.89-.21,.19-.62,1.49-.91,3.24Z"/>
  <path class="cls-16" d="M529.49,269.91l-3.03-1.73s2.23-.46,2.99,.37c.76,.83,.04,1.35,.04,1.35Z"/>
  <path class="cls-3" d="M612.72,280.01l-1.61-8.24c-4.82-1.83-10.19-2.57-15.84-2.14-1.81,.13-3.17,1.73-3.03,3.54,.13,1.81,1.72,3.18,3.54,3.03,6.32-.49,12.08,.92,16.94,3.79h0Z"/>
  <path class="cls-10" d="M520.25,311.36l-5.8,12.06,6.53,3.32s1.23-6.25-.74-15.38h.01Z"/>
  <path class="cls-2" d="M594.63,288.15s-18.4,16.75-15.94,20.65c10.41,16.59,24.37,21.91,24.37,21.91,0,0,14.05-13.46,14.65-14.61,.59-1.15,.8-10.73-2.56-15.72-3.36-5-20.51-12.24-20.51-12.24h-.01Z"/>
  <path class="cls-2" d="M617.87,309.1s-1.16-22.82-3.58-22.76c-2.42,.04-4.77,9.39-4.77,9.39l8.37,13.37h-.01Z"/>
  <path class="cls-2" d="M609.51,295.72s-27.26-21.78-30.83-20.04c-3.76,1.83,14.62,20.66,17.61,20.53,2.97-.13,13.22-.49,13.22-.49Z"/>
  <path class="cls-2" d="M593.73,294.2s-21.03-17.24-23.23-15.46c-4.33,3.53,16.31,21.15,19.29,21.02,2.97-.13,3.94-5.58,3.94-5.58v.02Z"/>
  <path class="cls-2" d="M593.3,300.85s-23.26-15.49-26.47-13.54c-4.79,2.9,20.64,20.35,23.54,19.71,2.9-.64,2.93-6.16,2.93-6.16h0Z"/>
  <path class="cls-2" d="M593.23,309.35s-25.9-14.85-26.47-13.54c-2.26,5.12,20.64,20.35,23.54,19.71,2.9-.64,2.93-6.16,2.93-6.16h0Z"/>
  <path class="cls-2" d="M622.54,405.01l-4.83-88.9-14.65,14.61s-18.6,32.39-30.51,70.47c-3.18,10.2-12.36,31.28,21.64,36.86,30.36,4.98,26.77-32.67,28.36-33.04Z"/>
  <path class="cls-3" d="M514.18,272.92s-2.33,1.8-4.31,.8c-1.98-.98-.55,5.1,4.58,3.91l-.25-4.71h-.01Z"/>
  <path class="cls-23" d="M525.41,287.15s10.39-1.7,14.54-4.97l2.6,4.97s-10.94,5.82-21.32,5.37c0,0,.95-5.53,4.18-5.37Z"/>
  <path class="cls-20" d="M608.01,446.12l-14.17,9.05,19.85,7.23-5.68-16.27Z"/>
  <path class="cls-18" d="M653.23,498.15H303.69v1.52h349.54v-1.52Z"/>
  <path class="cls-10" d="M548.68,358.5l3.58-.74,3.51,2.96s-7.02,1.07-7.09-2.22Z"/>
  <path class="cls-10" d="M513.35,348.86l3.58-.74,3.51,2.96s-7.02,1.07-7.09-2.22Z"/>
  <path class="cls-15" d="M556.68,426.73c-11.52-24.17,3.36-45.54,3.51-45.76l.43,.31c-.15,.21-14.84,21.33-3.47,45.21l-.48,.24Z"/>
  <path class="cls-15" d="M603.24,330.92l-.36-.4,5.43-4.94,.36,.4-5.43,4.94Z"/>
  <path class="cls-15" d="M464.49,478.15l-.53,.05,.92,10.18,.53-.05-.92-10.18Z"/>
  <path class="cls-17" d="M280.05,325.77l-.42-.27c-37.8-24.77-36.98-42.38-34.87-48.81,2.44-7.45,9.49-11.14,14.92-10.86,11.42,.62,18.41,6.37,20.37,8.2,1.95-1.83,8.94-7.57,20.36-8.2,5.35-.28,12.48,3.41,14.92,10.86,2.11,6.43,2.93,24.04-34.86,48.81l-.42,.27Zm-20.98-58.43c-4.76,0-10.74,3.35-12.86,9.83-1.99,6.07-2.66,22.74,33.84,46.79,36.49-24.04,35.84-40.72,33.84-46.79-2.2-6.72-8.59-10.13-13.4-9.82-12.68,.7-19.82,8.18-19.88,8.26l-.55,.6-.55-.6c-.06-.07-7.21-7.56-19.9-8.26h-.55Z"/>
  <path class="cls-17" d="M339.07,355.79l-.42-.27c-22.04-14.44-21.53-24.81-20.28-28.59,1.46-4.46,5.73-6.72,8.95-6.5,6.33,.34,10.35,3.38,11.75,4.63,1.41-1.25,5.43-4.27,11.76-4.63,3.17-.15,7.49,2.04,8.95,6.5,1.25,3.79,1.75,14.15-20.3,28.59l-.42,.27Zm-12.13-33.86c-2.65,0-5.95,1.86-7.14,5.46-1.13,3.44-1.49,12.85,19.27,26.58,20.76-13.73,20.4-23.15,19.27-26.58-1.23-3.73-4.7-5.65-7.43-5.46-7.2,.39-11.26,4.63-11.29,4.67l-.55,.6-.55-.6s-4.09-4.29-11.29-4.67h-.3Z"/>
  <path class="cls-18" d="M82.32,504.1l-.42-.27c-22.04-14.44-21.53-24.81-20.28-28.59,1.46-4.46,5.75-6.68,8.95-6.5,6.32,.34,10.35,3.38,11.75,4.63,1.41-1.25,5.43-4.27,11.76-4.63,3.29-.19,7.5,2.05,8.95,6.5,1.25,3.79,1.75,14.15-20.3,28.59l-.42,.27Zm-12.13-33.86c-2.65,0-5.95,1.86-7.14,5.46-1.13,3.44-1.49,12.85,19.27,26.58,20.74-13.72,20.4-23.15,19.27-26.58-1.23-3.73-4.82-5.61-7.43-5.46-7.2,.39-11.26,4.63-11.29,4.67l-.55,.6-.55-.6s-4.09-4.28-11.29-4.67h-.3Z"/>
  <path class="cls-19" d="M554.51,821.49c-1.15,0-2.89-1.16-6.5-3.6-1.49-1-3.3-2.2-5.53-3.66l.67-1.01c2.23,1.44,4.04,2.66,5.55,3.66,3.58,2.4,5.53,3.76,6.04,3.29,3.2-2.89,1.74-20.05-6.2-42.72-9.03-25.84-26.23-58.92-44.98-67.14-5.73-2.51-11.36-2.6-16.73-.27-5.16,2.23-8.3,5.68-9.32,10.23-3.81,16.9,21.28,45.52,33.34,59.29,2.87,3.27,4.94,5.62,5.92,7.02l-.98,.7c-.95-1.34-3.11-3.79-5.84-6.92-12.19-13.91-37.55-42.86-33.61-60.35,1.11-4.95,4.49-8.69,10.02-11.08,5.7-2.47,11.67-2.36,17.71,.27,19.09,8.36,36.1,40.54,45.65,67.85,7.47,21.36,9.98,40.3,5.86,44.03-.31,.28-.64,.42-1.03,.42h-.03Z"/>
  <path class="cls-18" d="M573.44,821.87l-.6-1.06c14.34-8.12,22.26-46.77,23.2-51.56l-10.32-4.15,12.82-5,11.94-97.3-32.94,53.7,9.14,10.43h-13.34c-2.37,3.45-26.95,39.75-23.67,50.15l-1.16,.37c-3.6-11.43,22.89-49.83,24.02-51.46l.18-.27h11.3l-7.99-9.09,.24-.39,36.09-58.83-12.71,103.57-10.65,4.15,8.4,3.38-.09,.49c-.33,1.8-8.18,44-23.88,52.9l.02-.03Z"/>
  <path class="cls-18" d="M555.64,820.94l-1.01-.67c40.43-61.71,42.93-137.85,42.96-138.63l1.2,.03c-.01,.76-2.53,77.25-43.15,139.25h0Z"/>
  <path class="cls-19" d="M531.59,783.99l-31.91-51.25,1.03-.64,31.93,51.25-1.04,.64Z"/>
  <path class="cls-18" d="M546.95,806.07l-1.29,.8,8.82,14.15,1.29-.8-8.82-14.15Z"/>
  <path class="cls-18" d="M601.45,821.3l-.45-1.13c32.8-13.08,45.56-45.03,43.85-62.51-.64-6.5-3.26-10.65-7.21-11.39-15.72-2.99-43.9,38.3-44.18,38.72l-1.01-.67c1.13-1.67,26.93-39.41,43.57-39.41,.62,0,1.25,.06,1.84,.16,4.52,.85,7.51,5.38,8.19,12.47,1.74,17.85-11.23,50.46-44.61,63.76Z"/>
  <path class="cls-18" d="M596.62,821.41l-1-.7,39.66-56.2,1,.7-39.66,56.2Z"/>
  <path class="cls-18" d="M599.5,776.11l-1.16,.33,8.32,29.03,1.16-.33-8.32-29.03Z"/>
  <path class="cls-18" d="M637.14,788.66l-23.91,7.33,.36,1.17,23.91-7.33-.36-1.17Z"/>
  <path class="cls-19" d="M527.67,822c-10.88,0-19.73-8.85-19.73-19.74s8.85-19.74,19.73-19.74,19.73,8.85,19.73,19.74-8.85,19.74-19.73,19.74Zm0-38.28c-10.22,0-18.53,8.32-18.53,18.54s8.31,18.53,18.53,18.53,18.53-8.32,18.53-18.53-8.31-18.54-18.53-18.54Z"/>
  <path class="cls-19" d="M508.53,809.73c-5.8,0-10.51-4.71-10.51-10.52s4.71-10.52,10.51-10.52,10.51,4.72,10.51,10.52-4.71,10.52-10.51,10.52Zm0-19.83c-5.13,0-9.31,4.18-9.31,9.31s4.18,9.31,9.31,9.31,9.31-4.18,9.31-9.31-4.18-9.31-9.31-9.31Z"/>
  <path class="cls-19" d="M520.65,764.45l-1.19-.28,7.61-31.33,1.17,.28-7.6,31.33Z"/>
  <path class="cls-18" d="M545.3,683.15c-7.41,0-13.43-6.02-13.43-13.43s6.02-13.43,13.43-13.43,13.43,6.02,13.43,13.43-6.02,13.43-13.43,13.43Zm0-25.36c-6.57,0-11.91,5.36-11.91,11.92s5.34,11.92,11.91,11.92,11.91-5.34,11.91-11.92-5.34-11.92-11.91-11.92Z"/>
  <path class="cls-18" d="M669.57,812.64c-7.41,0-13.43-6.03-13.43-13.43s6.02-13.43,13.43-13.43,13.43,6.03,13.43,13.43-6.02,13.43-13.43,13.43Zm0-25.35c-6.57,0-11.91,5.34-11.91,11.92s5.34,11.92,11.91,11.92,11.91-5.34,11.91-11.92-5.34-11.92-11.91-11.92Z"/>
  <path class="cls-17" d="M294.38,414.18c-7.41,0-13.44-6.02-13.44-13.43s6.02-13.43,13.44-13.43,13.43,6.02,13.43,13.43-6.02,13.43-13.43,13.43Zm0-25.35c-6.57,0-11.93,5.34-11.93,11.92s5.34,11.92,11.93,11.92,11.91-5.34,11.91-11.92-5.34-11.92-11.91-11.92Z"/>
  <path class="cls-17" d="M309.02,433.75c-4.34,0-7.87-3.54-7.87-7.88s3.54-7.88,7.87-7.88,7.88,3.54,7.88,7.88-3.54,7.88-7.88,7.88Zm0-14.24c-3.51,0-6.35,2.86-6.35,6.37s2.86,6.37,6.35,6.37,6.36-2.86,6.36-6.37-2.86-6.37-6.36-6.37Z"/>
  <path class="cls-18" d="M667.57,598.97h-13.58v-13.58h-1.52v13.58h-13.58v1.52h13.58v13.6h1.52v-13.6h13.58v-1.52Z"/>
  <path class="cls-18" d="M120.42,425.11h-13.58v-13.58h-1.52v13.58h-13.58v1.52h13.58v13.58h1.52v-13.58h13.58v-1.52Z"/>
  <path class="cls-18" d="M636.87,551.33h-13.58v-13.58h-1.52v13.58h-13.58v1.52h13.58v13.6h1.52v-13.6h13.58v-1.52Z"/>
  <path class="cls-18" d="M466.51,216.58h-13.59v-13.58h-1.5v13.58h-13.59v1.52h13.59v13.58h1.5v-13.58h13.59v-1.52Z"/>
</svg>