<svg width="29" height="31" viewBox="0 0 29 31" fill="none" xmlns="http://www.w3.org/2000/svg">
<path id="Vector" d="M19.334 1.65846e-08C18.696 1.65846e-08 17.7604 0.184063 16.9561 0.763375C16.1055 1.3795 15.4676 2.39669 15.4676 3.875V6.30269C15.4742 6.64114 15.579 6.97035 15.7691 7.25013C15.9509 7.50394 16.264 7.75387 16.9155 7.75387C17.567 7.75387 17.8802 7.50394 18.0619 7.25013C18.2521 6.97035 18.3569 6.64114 18.3635 6.30269C18.3635 6.04576 18.4653 5.79935 18.6466 5.61768C18.8279 5.436 19.0738 5.33394 19.3301 5.33394C19.5865 5.33394 19.8323 5.436 20.0136 5.61768C20.1949 5.79935 20.2967 6.04576 20.2967 6.30269C20.2967 6.86262 20.1382 7.67831 19.6317 8.38163C19.0904 9.13725 18.1973 9.69137 16.9155 9.69137C16.2969 9.69137 15.7653 9.56156 15.3226 9.34262C15.0461 11.4971 14.24 14.3917 11.8834 16.7516C9.78395 18.8577 8.75355 21.4656 8.24705 23.4999C7.97646 24.5901 7.80819 25.7032 7.74442 26.8247L7.73668 27.0378V27.0979L7.73475 27.1173V27.125L7.73089 27.1812C7.72831 27.2367 7.71864 27.3162 7.70189 27.4195C7.66285 27.6712 7.58593 27.9155 7.47377 28.1441C7.35627 28.3976 7.17258 28.6145 6.94214 28.7719C6.71015 28.9269 6.35831 29.0625 5.80155 29.0625C4.99006 29.0625 4.19913 28.8066 3.54082 28.3311C2.8825 27.8555 2.39017 27.1844 2.13355 26.4129C1.87693 25.6413 1.86905 24.8084 2.11101 24.0321C2.35297 23.2558 2.83251 22.5755 3.4817 22.0875C3.58325 22.011 3.66878 21.9153 3.7334 21.8057C3.79803 21.6961 3.84048 21.5748 3.85834 21.4488C3.87621 21.3228 3.86912 21.1945 3.8375 21.0712C3.80588 20.9479 3.75034 20.8321 3.67406 20.7303C3.59777 20.6285 3.50222 20.5428 3.39288 20.478C3.28354 20.4133 3.16254 20.3707 3.03679 20.3528C2.91104 20.3349 2.783 20.342 2.65999 20.3737C2.53698 20.4054 2.42139 20.461 2.31985 20.5375C1.34592 21.2696 0.626553 22.2902 0.26366 23.4549C-0.0992334 24.6195 -0.0872459 25.8691 0.297923 27.0265C0.683092 28.1839 1.42191 29.1905 2.4097 29.9037C3.39748 30.6169 4.58414 31.0004 5.80155 31H21.2672V30.0312C21.2672 29.2466 20.9037 28.0046 19.8501 27.4505C19.3905 27.2203 18.8809 27.1084 18.3674 27.125H16.4342C16.1778 27.125 15.932 27.0229 15.7507 26.8413C15.5694 26.6596 15.4676 26.4132 15.4676 26.1562C15.4676 25.8993 15.5694 25.6529 15.7507 25.4712C15.932 25.2896 16.1778 25.1875 16.4342 25.1875H18.3674C18.7076 25.1875 19.0298 25.2133 19.334 25.265V20.3438C19.334 20.0868 19.4358 19.8404 19.6171 19.6587C19.7984 19.4771 20.0442 19.375 20.3006 19.375C20.5569 19.375 20.8028 19.4771 20.9841 19.6587C21.1653 19.8404 21.2672 20.0868 21.2672 20.3438V26.0555C22.7944 27.1599 23.2004 28.9966 23.2004 30.0312V31H28.0334C28.2898 31 28.5356 30.8979 28.7169 30.7163C28.8982 30.5346 29 30.2882 29 30.0312C29 28.3456 28.4278 27.0804 27.4438 26.2589C26.7785 25.722 25.9798 25.3771 25.1336 25.2611V9.6875H26.1002C26.8693 9.6875 27.6068 9.38131 28.1507 8.83628C28.6945 8.29125 29 7.55204 29 6.78125V4.42331C28.9999 4.08899 28.9136 3.76037 28.7493 3.46941C28.585 3.17845 28.3483 2.93505 28.0624 2.76288L24.6155 0.68975C23.8645 0.238337 23.0051 -7.26022e-05 22.1294 1.65846e-08H19.334Z" fill="#FAFAFA"/>
</svg>
