<svg width="659" height="619" viewBox="0 0 659 619" fill="none" xmlns="http://www.w3.org/2000/svg">
<g clip-path="url(#clip0_649_4538)">
<path d="M500.663 619C513.674 602.22 521.496 581.215 521.496 558.351C521.496 514.051 492.44 476.564 452.365 463.845C430.877 398.911 369.746 352.038 297.626 352.038C207.602 352.038 134.619 425.048 134.619 515.107C134.619 554.587 148.642 590.795 171.988 619H500.663Z" fill="#FDFFFF"/>
<path d="M140.627 374.188C76.7151 374.188 23.2866 418.949 9.87378 478.825C15.2865 476.34 21.2792 474.912 27.6139 474.912C51.1533 474.912 70.2317 493.998 70.2317 517.547C70.2317 541.095 51.1533 560.181 27.6139 560.181C23.7328 560.181 20.0003 559.616 16.4315 558.649C26.1863 582.658 42.6476 603.217 63.5401 617.944H217.699C252.138 593.681 274.651 553.621 274.651 508.279C274.651 434.227 214.636 374.188 140.612 374.188H140.627Z" fill="#FDFFFF"/>
<path d="M440.944 140.503C419.457 75.5694 358.326 28.6956 286.205 28.6956C222.234 28.6956 166.887 65.5877 140.21 119.245C153.965 122.934 164.136 135.356 164.136 150.276C164.136 168.083 149.698 182.527 131.898 182.527C128.998 182.527 126.247 182.021 123.586 181.307C123.363 184.758 123.214 188.239 123.214 191.75C123.214 231.231 137.236 267.439 160.583 295.643H489.257C502.269 278.863 510.09 257.858 510.09 234.994C510.09 190.694 481.034 153.207 440.959 140.488L440.944 140.503Z" fill="#F1EDEB"/>
<path d="M326.489 525.133L356.348 589.1L384.928 586.169L382.341 525.133H326.489Z" fill="#FFA5A5"/>
<path d="M377.687 525.461L335.797 542.672L326.489 525.133L377.687 525.461Z" fill="#482A28"/>
<path d="M254.205 273.835L272.703 329.753L302.875 348.512L292.02 366.11C292.02 366.11 260.971 363.269 251.157 359.758C241.357 356.247 199.334 341.327 199.334 341.327C199.334 341.327 251.751 276.007 254.19 273.835H254.205Z" fill="#F3C851"/>
<path d="M71.5253 560.568L51.7183 539.741L27.6138 556.045C27.6138 556.045 47.971 583.536 67.2278 606.281L86.3062 596.24C79.3321 579.519 72.2985 563.082 71.5253 560.568Z" fill="#0C090C"/>
<path d="M110.842 610.744C109.846 609.137 89.3397 597.653 84.8192 591.569L67.2427 606.296L74.3506 616.233C99.5257 618.316 114.723 617.007 110.842 610.744Z" fill="#0C090C"/>
<path d="M98.7376 426.774C98.7376 426.774 321.924 367.107 336.407 378.948C350.891 390.804 408.81 526.13 408.81 526.13H312.481L279.692 472.845C279.692 472.845 127.69 512.355 98.7376 492.615C69.7855 472.874 69.2948 439.761 98.7376 426.774Z" fill="#AD473E"/>
<path d="M177.787 416.852C177.787 416.852 291.202 526.874 253.476 560.687C218.591 591.956 180.523 557.845 168.672 556.536C156.82 555.212 108.21 581.662 108.21 581.662L50.7517 526.13L98.7377 492.615C98.7377 492.615 73.6369 472.978 75.3767 453.357C78.886 413.802 144.151 396.769 177.787 416.852Z" fill="#BD4D44"/>
<path d="M155.735 517.755C132.999 493.21 99.0798 492.912 98.7378 492.912V492.302C99.0798 492.302 133.266 492.585 156.181 517.338L155.735 517.755Z" fill="black"/>
<path d="M84.8043 591.569C49.4282 569.969 51.7034 539.741 51.7034 539.741L71.5104 560.568C72.1944 562.799 78.3061 576.544 84.8043 591.569Z" fill="#FFA5A5"/>
<path d="M384.943 586.169L356.348 589.099L354.504 618.152C354.504 618.152 388.691 618.851 418.476 617.527L422.208 596.285C404.706 591.584 387.412 587.091 384.943 586.169Z" fill="#0C090C"/>
<path d="M454.104 610.714C453.049 609.137 421.955 596.195 421.955 596.195L410.371 607.665L401.747 618.063C426.966 619.342 458.179 616.828 454.104 610.699V610.714Z" fill="#0C090C"/>
<path d="M416.899 594.871C378.177 609.658 356.348 589.099 356.348 589.099L384.943 586.169C387.129 586.987 401.063 590.81 416.899 594.871Z" fill="#FFA5A5"/>
<path d="M51.7183 539.741L58.3206 533.568L88.7449 562.844L74.083 566.845L51.7183 539.741Z" fill="#FFA5A5"/>
<path d="M117.816 275.576C117.816 275.576 227.691 234.087 251.499 268.986C271.767 298.693 244.985 363.566 228.792 388.826C172.865 476.073 82.0979 432.07 82.0979 432.07C82.0979 432.07 63.3467 403.478 117.831 275.576H117.816Z" fill="#F3C851"/>
<path d="M173.595 245.661C178.287 240.967 178.287 233.356 173.595 228.662C168.903 223.968 161.295 223.968 156.603 228.662C151.911 233.356 151.911 240.967 156.603 245.661C161.295 250.355 168.903 250.355 173.595 245.661Z" fill="#482A28"/>
<path d="M155.899 219.538C156.717 228.032 164.271 234.25 172.761 233.432C181.252 232.614 187.468 225.057 186.65 216.563C185.832 208.069 181.966 189.638 174.278 193.312C160.196 200.051 155.096 211.044 155.914 219.538H155.899Z" fill="#482A28"/>
<path d="M205.506 195.722C200.866 190.5 193.238 189.043 186.264 189.533C184.598 189.653 182.918 189.861 181.327 190.352C179.453 190.917 177.713 191.854 175.929 192.687C173.282 193.922 170.471 194.978 168.286 196.927C166.1 198.876 164.657 202.029 165.683 204.766C165.891 205.332 166.204 205.897 166.219 206.507C166.219 207.102 165.936 207.652 165.683 208.188C162.605 214.733 164.628 222.454 167.126 229.237C168.955 234.221 171.393 239.531 176.182 241.822C176.985 242.209 177.936 242.492 178.769 242.149C179.334 241.911 179.75 241.421 180.152 240.93C181.877 238.817 183.617 236.645 184.524 234.072C185.193 232.153 185.356 230.1 185.817 228.136C186.68 224.447 188.598 221.055 191.082 218.199C192.598 216.459 194.383 214.867 196.554 214.123C198.844 213.35 201.372 213.513 203.751 213.484C205.134 213.469 206.874 213.603 207.825 212.398C208.836 211.118 209.104 209.066 209.238 207.489C209.416 205.51 209.223 203.487 208.673 201.583C208.063 199.426 206.993 197.403 205.491 195.722H205.506Z" fill="#482A28"/>
<path d="M207.617 276.944C208.182 253.901 202.071 209.601 202.071 209.601C202.071 209.601 191.052 213.171 184.078 218.229C183.974 216.741 183.542 214.778 182.546 212.16C182.546 212.16 180.152 207.042 177.639 207.846C175.126 208.649 172.405 212.383 176.97 217.128L179.646 222.543C179.156 223.287 178.814 224.046 178.62 224.804C178.62 224.804 170.144 257.293 167.929 260.819C167.929 260.819 173.758 295.316 195.275 297.592C209.223 299.065 207.587 276.929 207.587 276.929L207.617 276.944Z" fill="#FFA5A5"/>
<path d="M206.829 256.401C206.695 252.458 206.591 251.179 206.309 245.883C206.309 245.883 185.714 242.655 179.974 231.885C179.974 231.885 193.149 257.04 206.844 256.401H206.829Z" fill="#482A28"/>
<path d="M206.74 204.082C206.74 204.082 206.948 213.856 209.089 216.994C211.231 220.133 211.974 240.156 209.089 244.589C207.602 246.865 199.305 247.817 190.71 241.54C182.115 235.262 179.706 219.196 179.706 219.196C179.706 219.196 175.081 202.386 206.755 204.082H206.74Z" fill="#FFA5A5"/>
<path d="M207.676 223.213C207.632 224.298 207.201 225.146 206.71 225.132C206.219 225.117 205.862 224.224 205.907 223.138C205.951 222.052 206.383 221.204 206.873 221.219C207.364 221.234 207.721 222.127 207.676 223.213Z" fill="#3B261C"/>
<path d="M200.108 222.9C200.063 223.986 199.632 224.834 199.141 224.819C198.65 224.804 198.293 223.912 198.338 222.826C198.383 221.74 198.814 220.892 199.305 220.907C199.795 220.922 200.152 221.814 200.108 222.9Z" fill="#3B261C"/>
<path d="M201.193 214.034C201.193 214.034 196.717 210.865 193.713 213.722C190.71 216.578 192.554 217.277 193.059 217.247C193.565 217.217 199.052 214.287 200.598 216.132C200.598 216.132 202.725 216.31 201.193 214.019V214.034Z" fill="#482A28"/>
<path d="M210.427 213.751C208.703 211.059 204.896 213.677 204.896 213.677C203.186 215.819 205.312 215.819 205.312 215.819C207.007 214.094 213.223 218.11 210.427 213.737V213.751Z" fill="#482A28"/>
<path d="M140.984 244.158C140.984 249.305 145.148 253.47 150.293 253.47C155.438 253.47 159.601 249.305 159.601 244.158C159.601 239.011 155.438 234.845 150.293 234.845C145.148 234.845 140.984 239.011 140.984 244.158Z" fill="#482A28"/>
<path d="M131.883 256.415C131.883 260.863 135.482 264.463 139.928 264.463C144.374 264.463 147.973 260.863 147.973 256.415C147.973 251.967 144.374 248.368 139.928 248.368C135.482 248.368 131.883 251.967 131.883 256.415Z" fill="#482A28"/>
<path d="M120.775 261.607C120.775 265.237 123.72 268.167 127.333 268.167C130.947 268.167 133.891 265.222 133.891 261.607C133.891 257.992 130.947 255.047 127.333 255.047C123.72 255.047 120.775 257.992 120.775 261.607Z" fill="#482A28"/>
<path d="M201.238 208.307C198.963 208.069 196.554 207.637 194.442 208.545C191.988 209.586 190.427 212.249 187.869 212.978C186.769 213.29 185.55 213.201 184.509 212.725C182.427 211.773 179.81 209.512 179.973 207.236C180.122 204.96 182.873 202.714 184.643 201.271C187.349 199.054 191.007 198.251 194.487 198.504C197.966 198.771 201.312 200.021 204.435 201.568C205.58 202.133 206.754 202.773 207.528 203.799C208.152 204.618 208.821 206.433 207.736 207.161C206.665 207.89 205.163 208.277 203.899 208.381C203.007 208.456 202.115 208.411 201.238 208.307Z" fill="#482A28"/>
<path d="M204.762 230.412H195.23C195.23 230.412 198.056 234.875 202.13 235.083C204.435 235.202 204.762 230.412 204.762 230.412Z" fill="white"/>
<path d="M277.819 374.738C277.819 374.738 220.866 416.941 206.398 496.631C196.762 549.708 201.505 610.075 221.178 615.727L300.436 616.218L310.503 384.214C294.815 358.866 277.834 374.753 277.834 374.753L277.819 374.738Z" fill="#E6D9D1"/>
<path d="M261.164 605.463C268.621 605.463 274.666 599.416 274.666 591.956C274.666 584.496 268.621 578.448 261.164 578.448C253.707 578.448 247.662 584.496 247.662 591.956C247.662 599.416 253.707 605.463 261.164 605.463Z" fill="#CF5F15"/>
<path d="M214.457 466.284C211.171 475.716 208.375 485.787 206.412 496.616C203.171 514.467 201.594 533.107 201.639 550.259C203.394 549.009 205.743 546.688 206.844 542.672C208.717 535.859 216.152 521.831 227.186 506.36C238.13 491.023 214.859 466.701 214.457 466.284Z" fill="#CF5F15"/>
<path d="M342.92 364.831L322.875 364.742L306.191 361.692C306.191 361.692 306.191 357.512 306.711 357.512C307.232 357.512 342.92 364.831 342.92 364.831Z" fill="#BAAB98"/>
<path d="M272.138 331.672C272.138 331.672 290.161 317.317 298.637 319.668C307.113 322.018 326.682 336.894 337.641 336.894C348.601 336.894 351.114 345.12 349.389 350.996C346.459 360.978 342.935 364.831 342.935 364.831L313.388 361.171L339.307 366.11L339.5 369.784C313.121 391.622 282.414 377.788 272.153 374.649C261.908 371.51 272.153 331.672 272.153 331.672H272.138Z" fill="#E6D9D1"/>
<path d="M279.306 322.911C279.306 322.911 232.034 355.786 239.93 384.512C248.51 415.766 276.897 407.822 283.693 396.516C293.775 379.721 277.745 355.013 289.15 330.735C289.15 330.735 298.89 314.283 279.321 322.911H279.306Z" fill="#503A29"/>
<path d="M341.433 337.296C341.433 337.296 337.017 340.419 341.433 345.12C345.85 349.821 349.374 350.996 349.374 350.996C349.374 350.996 355.337 339.735 341.433 337.296Z" fill="#735940"/>
<path d="M299.812 335.049C299.812 335.049 303.47 336.225 307.842 336.76C307.842 336.76 304.288 341.937 299.812 335.049Z" fill="#765B3E"/>
<path d="M234.13 600.375C233.58 593.637 231.588 586.838 227.84 580.769C222.234 571.695 211.572 561.43 191.721 559.883C155.081 557.027 145.073 545.469 145.073 545.469C145.073 545.469 137.177 612.365 181.55 614.165C225.937 615.965 235.409 616.203 235.409 616.203L234.115 600.375H234.13Z" fill="#E6D9D1"/>
<path d="M309.403 403.657C309.403 403.657 329.195 425.242 325.478 514.14C324.496 537.703 339.277 616.798 339.277 616.798L328.333 617.245C328.333 617.245 311.604 579.728 302.667 553.025C293.73 526.323 302.949 398.629 309.388 403.657H309.403Z" fill="#E6D9D1"/>
<path d="M332.348 576.41C331.56 571.427 330.771 566.295 330.013 561.148C326.459 561.906 323.753 564.911 323.753 568.69C323.753 573.034 327.277 576.559 331.619 576.559C331.887 576.559 332.095 576.44 332.362 576.41H332.348Z" fill="#CF5F15"/>
<path d="M320.199 431.028C320.199 431.028 306.295 442.066 310.503 456.362C314.712 470.643 321.031 483.481 316.63 488.42C312.243 493.358 325.939 495.024 325.939 495.024C325.939 495.024 330.132 464.514 320.199 431.028Z" fill="#CF5F15"/>
<path d="M300.421 603.618C300.421 603.618 319.128 607.62 319.128 616.203H298.384L300.421 603.618Z" fill="#E6D9D1"/>
<path d="M330.162 607.486C330.162 607.486 348.943 610.313 349.091 617.23L328.348 617.676L330.162 607.501V607.486Z" fill="#E6D9D1"/>
<path d="M245.105 603.559C241.209 573.584 242.086 507.238 255.172 493.12C260.272 487.616 265.343 485.355 270.235 486.382C275.93 487.572 280.332 493.091 283.023 497.509C285.923 502.269 287.514 506.821 287.529 506.866L287.023 507.044C286.964 506.866 280.704 489.134 270.131 486.902C265.432 485.906 260.54 488.137 255.573 493.492C243.082 506.985 241.67 572.915 245.655 603.499L245.119 603.574L245.105 603.559Z" fill="#231F20"/>
<path d="M302.682 553.011L296.169 536.662L302.503 568.705L302.682 553.011Z" fill="#765B3E"/>
<path d="M284.521 393.732L284.349 394.176L309.321 403.896L309.494 403.452L284.521 393.732Z" fill="#231F20"/>
<path d="M297.67 479.003C301.062 479.003 303.812 476.253 303.812 472.859C303.812 469.466 301.062 466.716 297.67 466.716C294.279 466.716 291.529 469.466 291.529 472.859C291.529 476.253 294.279 479.003 297.67 479.003Z" fill="#CF5F15"/>
<path d="M213.907 456.555L189.743 428.321L190.204 427.919L214.368 456.154L213.907 456.555Z" fill="black"/>
<path d="M408.81 513.828H325.478V514.438H408.81V513.828Z" fill="black"/>
<path d="M54.4116 510.146L53.979 510.576L119.016 576.094L119.449 575.664L54.4116 510.146Z" fill="black"/>
<path d="M300.436 611.785H238.859V611.517C238.859 598.04 236.361 579.43 224.42 567.336C217.297 560.106 210.07 558.634 209.996 558.619L210.1 558.098C210.1 558.098 217.535 559.615 224.777 566.949C231.424 573.673 239.335 586.809 239.394 611.265H300.436V611.8V611.785Z" fill="#231F20"/>
<path d="M260.406 414.754C260.406 414.754 248.316 436.503 243.959 435C225.446 428.648 217.059 416.286 217.059 416.286C217.059 416.286 226.933 399.521 227.915 398.688C228.896 397.855 238.16 395.46 243.796 397.573C249.432 399.7 260.406 414.739 260.406 414.739V414.754Z" fill="#FFA5A5"/>
<path d="M234.71 396.918C234.71 396.918 257.179 392.827 257.685 395.207C258.19 397.588 249.64 402.006 249.64 402.006L234.71 396.918Z" fill="#FFA5A5"/>
<path d="M249.64 402.006C249.64 402.006 277.06 423.576 276.198 427.428C275.276 431.504 252.733 417.923 252.197 414.992C251.647 412.062 249.64 402.006 249.64 402.006Z" fill="#FFA5A5"/>
<path d="M254.725 417.015C254.725 417.015 276.317 433.557 275.083 436.101C272.644 441.129 250.755 425.063 250.205 422.133C249.655 419.202 254.725 417.03 254.725 417.03V417.015Z" fill="#FFA5A5"/>
<path d="M248.346 418.964C248.346 418.964 268.748 438.065 267.588 441.635C265.863 446.96 243.067 426.194 243.023 423.219C242.978 420.243 248.346 418.964 248.346 418.964Z" fill="#FFA5A5"/>
<path d="M240.108 420.972C240.108 420.972 260.48 442.795 259.35 443.643C254.889 447.005 234.829 428.202 234.784 425.227C234.74 422.252 240.108 420.972 240.108 420.972Z" fill="#FFA5A5"/>
<path d="M141.846 360.963L193.639 385.91L229.669 398.792L220.212 417.372C220.212 417.372 189.252 421.166 178.932 419.797C168.612 418.429 124.389 412.731 124.389 412.731C124.389 412.731 139.928 363.596 141.846 360.963Z" fill="#FFA5A5"/>
<path d="M179.973 374.188L150.278 423.62C150.278 423.62 51.287 418.503 61.1756 366.036C68.8189 325.454 117.816 275.576 117.816 275.576L179.973 374.173V374.188Z" fill="#F3C851"/>
<path d="M150.501 423.754L150.04 423.472L179.557 374.322L130.932 357.601L131.363 357.304C131.512 357.2 145.623 347.114 148.032 334.648L148.553 334.752C146.337 346.191 134.456 355.638 132.077 357.438L180.36 374.039L180.196 374.322L150.501 423.754Z" fill="#231F20"/>
<path d="M237.253 374.322L236.792 374.039C258.606 338.367 246.933 293.888 246.814 293.441L247.335 293.308C247.454 293.754 259.186 338.456 237.253 374.322Z" fill="#231F20"/>
<path d="M194.234 306.339C187.839 306.339 182.189 304.39 177.386 300.522C162.754 288.741 160.761 262.738 160.746 262.47L161.281 262.425C161.296 262.678 163.274 288.458 177.728 300.091C183.631 304.836 190.858 306.636 199.185 305.417C204.345 304.658 208.39 302.144 211.23 297.934C220.703 283.921 213.951 255.374 213.877 255.077L214.398 254.958C214.472 255.24 221.268 284.025 211.676 298.232C208.747 302.575 204.568 305.164 199.26 305.937C197.535 306.19 195.869 306.309 194.234 306.309V306.339Z" fill="#231F20"/>
<path d="M79.466 402.511C78.8861 409.22 78.8712 414.561 79.1538 418.741L111.437 415.572L79.4512 402.511H79.466Z" fill="#503A29"/>
<path d="M282.652 512.221L282.488 511.715C285.328 510.763 292.139 500.722 292.213 500.618L292.659 500.915C292.377 501.332 285.67 511.209 282.666 512.221H282.652Z" fill="#231F20"/>
<path d="M306.146 383.827C303.619 383.5 291.99 380.837 291.499 380.718L291.618 380.198C291.737 380.227 303.708 382.979 306.221 383.292L306.146 383.827Z" fill="#231F20"/>
<path d="M294.949 403.285C294.949 403.285 307.039 425.033 311.396 423.531C329.909 417.179 338.296 404.817 338.296 404.817C338.296 404.817 328.422 388.052 327.44 387.219C326.459 386.386 317.195 383.991 311.559 386.103C305.923 388.216 294.949 403.27 294.949 403.27V403.285Z" fill="#FFA5A5"/>
<path d="M320.66 385.449C320.66 385.449 298.191 381.358 297.685 383.738C297.18 386.118 305.73 390.536 305.73 390.536L320.66 385.449Z" fill="#FFA5A5"/>
<path d="M305.73 390.536C305.73 390.536 278.31 412.106 279.172 415.959C280.094 420.035 302.637 406.453 303.172 403.523C303.723 400.592 305.73 390.536 305.73 390.536Z" fill="#FFA5A5"/>
<path d="M300.644 405.546C300.644 405.546 279.053 422.088 280.287 424.632C282.726 429.66 304.615 413.594 305.165 410.663C305.715 407.733 300.644 405.561 300.644 405.561V405.546Z" fill="#FFA5A5"/>
<path d="M307.024 407.48C307.024 407.48 286.622 426.581 287.782 430.151C289.507 435.476 312.303 414.71 312.347 411.734C312.392 408.759 307.024 407.48 307.024 407.48Z" fill="#FFA5A5"/>
<path d="M315.262 409.503C315.262 409.503 294.89 431.326 296.02 432.174C300.481 435.536 320.541 416.733 320.585 413.758C320.63 410.782 315.262 409.503 315.262 409.503Z" fill="#FFA5A5"/>
<path d="M297.418 331.301L296.882 331.271C296.882 331.167 297.061 328.816 298.89 327.835C300.392 327.031 302.518 327.403 305.21 328.95L304.942 329.411C302.429 327.968 300.466 327.597 299.143 328.296C297.581 329.144 297.418 331.271 297.418 331.286V331.301Z" fill="#231F20"/>
<path d="M295.975 356.247C299.926 356.247 303.128 353.044 303.128 349.092C303.128 345.14 299.926 341.937 295.975 341.937C292.025 341.937 288.823 345.14 288.823 349.092C288.823 353.044 292.025 356.247 295.975 356.247Z" fill="#D4AA8E"/>
<path d="M80.9531 564.971L88.7451 562.844L58.3208 533.568L80.9531 564.971Z" fill="#482A28"/>
<path d="M174.323 383.56L162.308 417.64L154.471 416.629L174.323 383.56Z" fill="#482A28"/>
<path d="M133.861 443.316C103.66 443.316 82.2171 432.486 81.9346 432.337L82.2171 431.802C82.6037 431.995 120.79 451.289 167.126 438.109C167.364 438.035 190.754 430.999 204.792 418.726L205.193 419.187C191.052 431.549 167.527 438.63 167.289 438.704C155.453 442.066 144.151 443.331 133.861 443.331V443.316Z" fill="black"/>
<path d="M199.468 317.243C197.892 317.243 196.613 315.964 196.613 314.387C196.613 312.81 197.892 311.531 199.468 311.531C201.044 311.531 202.323 312.81 202.323 314.387C202.323 315.964 201.044 317.243 199.468 317.243ZM199.468 312.066C198.189 312.066 197.148 313.107 197.148 314.387C197.148 315.666 198.189 316.707 199.468 316.707C200.747 316.707 201.788 315.666 201.788 314.387C201.788 313.107 200.747 312.066 199.468 312.066Z" fill="#231F20"/>
<path d="M199.989 329.753C198.412 329.753 197.134 328.474 197.134 326.897C197.134 325.32 198.412 324.041 199.989 324.041C201.565 324.041 202.844 325.32 202.844 326.897C202.844 328.474 201.565 329.753 199.989 329.753ZM199.989 324.577C198.71 324.577 197.669 325.618 197.669 326.897C197.669 328.177 198.71 329.218 199.989 329.218C201.267 329.218 202.308 328.177 202.308 326.897C202.308 325.618 201.267 324.577 199.989 324.577Z" fill="#231F20"/>
<path d="M200.509 342.264C198.933 342.264 197.654 340.985 197.654 339.408C197.654 337.831 198.933 336.552 200.509 336.552C202.085 336.552 203.364 337.831 203.364 339.408C203.364 340.985 202.085 342.264 200.509 342.264ZM200.509 337.087C199.23 337.087 198.189 338.129 198.189 339.408C198.189 340.687 199.23 341.729 200.509 341.729C201.788 341.729 202.829 340.687 202.829 339.408C202.829 338.129 201.788 337.087 200.509 337.087Z" fill="#231F20"/>
<path d="M227.171 437.068L236.391 431.847L231.588 429.184L227.171 437.068Z" fill="#C9B9A5"/>
<path d="M629.23 617.289H0V618.807H629.23V617.289Z" fill="#8B9C97"/>
<path d="M595.088 235.916C609.884 222.201 610.88 207.846 609.691 204.424C589.69 146.691 564.589 148.803 503.458 126.4C486.387 120.138 525.882 195.633 525.882 195.633L536.039 225.429L560.024 261.28L595.073 235.916H595.088Z" fill="#5D524D"/>
<path d="M391.709 113.116C391.709 113.116 337.522 186.558 326.117 201.375C288.6 250.153 318.087 294.676 318.087 294.676L370.891 283.326L377.151 267.126C386.951 263.615 428.171 193.877 428.171 193.877C428.171 193.877 394.163 115.273 391.724 113.101L391.709 113.116Z" fill="#5D524D"/>
<path d="M386.861 208.694C384.69 198.905 393.583 248.234 393.583 248.234L398.401 239.74C398.401 239.74 391.724 230.516 386.876 208.694H386.861Z" fill="#482A28"/>
<path d="M575.058 220.401C575.058 220.401 598.538 276.275 598.538 295.658H420.855C420.855 295.658 408.929 254.824 409.152 243.131C409.39 231.424 575.058 220.416 575.058 220.416V220.401Z" fill="#5D524D"/>
<path d="M514.983 130.893C501.525 121.566 415.516 78.2173 391.709 113.116C371.441 142.823 382.534 216.132 398.728 241.391C454.655 328.638 545.422 284.635 545.422 284.635C545.422 284.635 629.23 210.062 514.983 130.893Z" fill="#5D524D"/>
<path d="M488.142 40.3434C472.811 27.7435 462.595 48.0491 447.829 55.8738C437.256 61.482 442.372 84.4057 448.35 87.1429C453.167 89.3445 450.461 93.4949 455.413 95.3692C456.246 95.6816 457.227 95.8899 458.015 95.4734C458.565 95.1907 458.937 94.6552 459.279 94.1494C460.811 91.9032 462.372 89.5825 463.056 86.9495C463.562 84.9859 463.547 82.933 463.844 80.9248C464.394 77.176 466.015 73.6356 468.246 70.586C469.599 68.7265 471.25 66.9861 473.361 66.0638C475.577 65.0968 478.12 65.0522 480.484 64.8142C481.867 64.6803 483.592 64.6654 484.454 63.3712C485.361 62.0026 484.365 59.5184 485.45 58.3581C492.142 51.2176 489.882 41.7566 488.142 40.3285V40.3434Z" fill="#482A28"/>
<path d="M489.718 127.709C488.335 104.696 478.476 61.0803 478.476 61.0803C478.476 61.0803 467.8 65.5728 461.287 71.2108C461.063 69.7381 460.454 67.8191 459.249 65.3051C459.249 65.3051 456.439 60.4109 454 61.4225C451.561 62.434 449.167 66.391 454.134 70.7348L457.272 75.8967C456.855 76.6702 456.558 77.4587 456.454 78.2471C456.454 78.2471 451.725 114.47 449.822 118.174C449.822 118.174 457.614 148.922 479.235 149.354C493.257 149.636 489.748 127.709 489.748 127.709H489.718Z" fill="#FFA5A5"/>
<path d="M487.19 107.315C486.729 103.402 486.506 102.138 485.778 96.8865C485.778 96.8865 464.989 95.4287 458.342 85.1792C458.342 85.1792 473.599 109.114 487.19 107.329V107.315Z" fill="#482A28"/>
<path d="M482.67 55.1894C482.67 55.1894 483.711 64.9034 486.105 67.8488C488.499 70.7942 490.953 90.6833 488.439 95.3394C487.161 97.7344 478.952 99.4005 469.867 93.8667C460.781 88.3329 457.004 72.5347 457.004 72.5347C457.004 72.5347 450.967 56.1861 482.67 55.1746V55.1894Z" fill="#FFA5A5"/>
<path d="M485.213 74.186C485.257 75.272 484.9 76.1496 484.41 76.1794C483.919 76.1943 483.488 75.3463 483.428 74.2604C483.384 73.1745 483.74 72.2968 484.231 72.267C484.722 72.2522 485.153 73.1001 485.213 74.186Z" fill="#3B261C"/>
<path d="M477.644 74.5133C477.688 75.5992 477.331 76.4769 476.841 76.5067C476.35 76.5215 475.919 75.6736 475.859 74.5877C475.815 73.5017 476.171 72.6241 476.662 72.5943C477.153 72.5794 477.584 73.4274 477.644 74.5133Z" fill="#3B261C"/>
<path d="M477.971 65.5877C477.971 65.5877 473.242 62.8208 470.491 65.915C467.74 69.024 469.629 69.5595 470.134 69.4852C470.64 69.4108 475.859 66.0191 477.554 67.7447C477.554 67.7447 479.681 67.7447 477.971 65.6026V65.5877Z" fill="#482A28"/>
<path d="M487.146 64.5167C485.198 61.9878 481.629 64.9183 481.629 64.9183C480.112 67.1943 482.239 67.0158 482.239 67.0158C483.77 65.1563 490.313 68.6224 487.161 64.5167H487.146Z" fill="#482A28"/>
<path d="M477.54 59.8753C475.25 59.8307 472.811 59.6076 470.789 60.6786C468.439 61.9282 467.101 64.71 464.617 65.6621C463.547 66.0637 462.327 66.0786 461.242 65.6918C459.086 64.9183 456.29 62.8951 456.246 60.6043C456.201 58.3134 458.759 55.844 460.394 54.2523C462.892 51.8126 466.476 50.6969 469.971 50.6672C473.465 50.6374 476.9 51.6044 480.142 52.8688C481.332 53.33 482.551 53.8804 483.413 54.8175C484.112 55.5762 484.93 57.3316 483.904 58.1497C482.893 58.9679 481.436 59.4737 480.187 59.6819C479.309 59.8307 478.417 59.8605 477.525 59.8456L477.54 59.8753Z" fill="#482A28"/>
<path d="M482.923 81.5941L473.421 82.3974C473.421 82.3974 476.618 86.6073 480.692 86.4734C482.997 86.399 482.923 81.5941 482.923 81.5941Z" fill="white"/>
<path d="M398.163 239.888C376.229 204.023 387.962 159.321 388.081 158.874L388.601 159.008C388.482 159.455 376.809 203.933 398.624 239.606L398.163 239.888Z" fill="#231F20"/>
<path d="M475.755 267.989C475.755 267.989 479.473 292.594 475.116 294.081C456.588 300.389 442.387 295.718 442.387 295.718C442.387 295.718 439.963 276.409 440.23 275.144C440.498 273.88 446.372 266.323 452.126 264.553C457.881 262.782 475.77 267.989 475.77 267.989H475.755Z" fill="#FFA5A5"/>
<path d="M444.513 269.581C444.513 269.581 459.785 252.607 461.643 254.169C463.502 255.746 459.443 264.463 459.443 264.463L444.513 269.566V269.581Z" fill="#FFA5A5"/>
<path d="M459.443 264.478C459.443 264.478 494.328 264.776 495.993 268.361C497.763 272.154 471.621 275.174 469.391 273.195C467.16 271.217 459.443 264.478 459.443 264.478Z" fill="#FFA5A5"/>
<path d="M472.632 273.255C472.632 273.255 499.83 273.136 500.395 275.918C501.525 281.392 474.402 282.047 472.171 280.068C469.941 278.09 472.632 273.255 472.632 273.255Z" fill="#FFA5A5"/>
<path d="M468.781 278.685C468.781 278.685 496.588 281.332 497.867 284.873C499.756 290.139 469.019 287.655 467.175 285.319C465.316 282.984 468.796 278.685 468.796 278.685H468.781Z" fill="#FFA5A5"/>
<path d="M463.487 285.319C463.487 285.319 492.945 290.139 492.573 291.508C491.101 296.908 463.725 294.289 461.881 291.954C460.022 289.618 463.502 285.319 463.502 285.319H463.487Z" fill="#FFA5A5"/>
<path d="M346.207 243.116C368.17 243.206 409.152 264.181 409.152 264.181L440.23 275.144L442.387 295.718L323.991 296.655C309.641 300.165 297.551 242.923 346.207 243.116Z" fill="#FFA5A5"/>
<path d="M471.874 160.362C464.171 160.362 457.807 157.982 452.915 153.281C442.223 142.987 440.766 124.035 441.435 109.948L441.97 109.977C440.781 135.296 447.472 147.301 453.286 152.894C458.759 158.175 466.149 160.466 475.235 159.678C482.105 159.098 487.458 156.405 491.161 151.674C499.369 141.172 496.737 123.961 496.707 123.782L497.243 123.693C497.243 123.693 497.941 128.126 497.585 133.779C497.257 139 495.964 146.408 491.592 151.987C487.8 156.836 482.313 159.603 475.294 160.198C474.134 160.302 472.989 160.347 471.874 160.347V160.362Z" fill="#231F20"/>
<path d="M515.934 79.1843C515.934 79.1843 518.938 91.9181 539.37 94.5511C559.816 97.1841 584.709 111.986 575.043 156.955C572.619 168.261 558.597 167.116 543.429 162.742C531.816 159.395 499.443 131.89 496.231 108.356C493.019 84.8223 503.042 83.4835 503.042 83.4835L515.934 79.1843Z" fill="white"/>
<path d="M505.659 61.7647C505.659 61.7647 492.053 63.9663 491.354 64.6208C490.64 65.2754 487.339 77.8603 495.979 82.7694C504.618 87.6784 515.949 79.1694 515.949 79.1694C515.949 79.1694 523.875 59.1465 522.18 59.2953C520.485 59.444 512.663 65.5729 512.663 65.5729L505.659 61.7498V61.7647Z" fill="white"/>
<path d="M495.979 94.4023C495.979 94.4023 499.503 139.298 492.261 148.729L501.153 151.169C501.153 151.169 508.321 144.207 514.923 128.111C521.525 112.015 495.979 94.4023 495.979 94.4023Z" fill="white"/>
<path d="M491.83 143.091C491.83 143.091 485.287 146.022 487.755 147.316C490.224 148.61 498.581 150.276 498.581 150.276C498.581 150.276 498.611 144.98 491.83 143.091Z" fill="white"/>
<path d="M527.027 152.597C527.027 152.597 521.972 155.438 524.544 157.565C527.117 159.693 554.82 165.316 554.82 165.316C554.82 165.316 534.552 151.645 527.042 152.582L527.027 152.597Z" fill="white"/>
<path d="M561.69 164.914C560.143 164.483 559.087 162.965 559.296 161.329C559.519 159.574 561.065 158.324 562.805 158.443C563.876 158.413 594.791 156.94 601.854 119.736C604.887 103.729 602.419 90.2966 594.895 81.8917C589.244 75.5843 581.051 72.505 571.801 73.2191C569.987 73.3678 568.396 71.9993 568.262 70.1844C568.128 68.3695 569.482 66.7778 571.296 66.6439C582.627 65.7663 592.753 69.6191 599.817 77.5033C608.739 87.4702 611.772 102.911 608.337 120.971C600.084 164.468 562.537 165.063 562.18 165.018C562.017 165.003 561.868 164.959 561.719 164.929L561.69 164.914Z" fill="white"/>
<path d="M539.384 94.5511C537.451 94.2982 535.771 93.9709 534.21 93.6139H534.195C534.195 93.6139 530.15 104.548 536.515 109.635C542.879 114.723 559.236 113.919 562.508 119.26C565.779 124.615 559.533 130.149 561.288 135.921C562.612 140.25 568.872 150.455 576.426 149.16C581.72 110.245 558.597 97.0056 539.384 94.5362V94.5511Z" fill="#EA9A2D"/>
<path d="M522.165 59.3102C520.47 59.4589 512.648 65.5878 512.648 65.5878L505.644 61.7647C505.644 61.7647 504.127 62.0176 502.135 62.3597C500.96 63.4159 498.908 65.3944 499.637 65.7068C500.633 66.1382 511.622 65.082 511.637 69.5001C511.652 73.9183 509.094 77.4141 511.399 79.0207C512.217 79.586 513.035 80.0917 513.838 80.538C515.131 79.7645 515.919 79.1843 515.919 79.1843C515.919 79.1843 523.845 59.1614 522.15 59.3102H522.165Z" fill="#EA9A2D"/>
<path d="M490.432 67.8638C491.755 68.9943 493.897 68.1315 494.477 67.7745C495.116 67.3729 494.715 63.758 494.7 63.7283C492.93 64.1002 491.547 64.4274 491.339 64.6208C491.131 64.8142 490.715 66.1084 490.432 67.8638Z" fill="#0C090C"/>
<path d="M505.495 66.9117L502.462 65.1861C502.462 65.1861 504.692 64.725 505.451 65.558C506.209 66.3911 505.495 66.9117 505.495 66.9117Z" fill="#0C090C"/>
<path d="M588.724 77.0125L587.118 68.7712C582.3 66.9415 576.932 66.1977 571.281 66.6291C569.467 66.763 568.114 68.3547 568.247 70.1695C568.381 71.9844 569.972 73.353 571.786 73.2042C578.106 72.7133 583.861 74.1265 588.724 76.9976V77.0125Z" fill="#EA9A2D"/>
<path d="M496.246 108.356L490.447 120.42L496.975 123.737C496.975 123.737 498.209 117.49 496.231 108.356H496.246Z" fill="#D8D6D7"/>
<path d="M570.627 85.1495C570.627 85.1495 552.232 101.9 554.686 105.797C565.095 122.384 579.058 127.709 579.058 127.709C579.058 127.709 593.11 114.247 593.705 113.101C594.3 111.956 594.508 102.376 591.147 97.3775C587.787 92.3792 570.641 85.1346 570.641 85.1346L570.627 85.1495Z" fill="#FFA5A5"/>
<path d="M593.869 106.095C593.869 106.095 592.709 83.2751 590.285 83.3346C587.861 83.3792 585.512 92.7213 585.512 92.7213L593.883 106.095H593.869Z" fill="#FFA5A5"/>
<path d="M585.512 92.7213C585.512 92.7213 558.255 70.943 554.686 72.6835C550.924 74.5132 569.303 93.3461 572.292 93.2122C575.266 93.0783 585.512 92.7213 585.512 92.7213Z" fill="#FFA5A5"/>
<path d="M569.735 91.204C569.735 91.204 548.708 73.9628 546.507 75.7479C542.18 79.2735 562.82 96.9014 565.794 96.7675C568.768 96.6337 569.735 91.1891 569.735 91.1891V91.204Z" fill="#FFA5A5"/>
<path d="M569.303 97.8535C569.303 97.8535 546.046 82.3677 542.834 84.3165C538.046 87.2173 563.474 104.667 566.374 104.027C569.273 103.387 569.303 97.8684 569.303 97.8684V97.8535Z" fill="#FFA5A5"/>
<path d="M569.229 106.348C569.229 106.348 543.325 91.5014 542.76 92.8105C540.5 97.9278 563.4 113.161 566.299 112.521C569.199 111.881 569.229 106.362 569.229 106.362V106.348Z" fill="#FFA5A5"/>
<path d="M598.538 202.014L593.705 113.116L579.058 127.724C579.058 127.724 560.455 160.109 548.545 198.191C545.362 208.396 536.187 229.475 570.181 235.054C600.545 240.037 596.947 202.386 598.538 202.014Z" fill="#FFA5A5"/>
<path d="M490.179 69.9166C490.179 69.9166 487.845 71.7166 485.867 70.7199C483.889 69.7381 485.317 75.8223 490.447 74.6323L490.194 69.9166H490.179Z" fill="#EA9A2D"/>
<path d="M501.406 84.1529C501.406 84.1529 511.8 82.457 515.949 79.1843L518.551 84.1529C518.551 84.1529 507.607 89.9693 497.228 89.5231C497.228 89.5231 498.179 83.9892 501.406 84.1529Z" fill="#5D524D"/>
<path d="M584.01 243.116L569.839 252.161L589.69 259.391L584.01 243.116Z" fill="#482A28"/>
<path d="M629.23 295.152H279.692V296.67H629.23V295.152Z" fill="#8B9C97"/>
<path d="M524.678 155.497L528.262 154.754L531.771 157.714C531.771 157.714 524.752 158.785 524.678 155.497Z" fill="#D8D6D7"/>
<path d="M489.347 145.858L492.93 145.114L496.44 148.074C496.44 148.074 489.421 149.145 489.347 145.858Z" fill="#D8D6D7"/>
<path d="M532.678 223.733C521.154 199.56 536.039 178.198 536.188 177.975L536.619 178.287C536.47 178.496 521.778 199.619 533.154 223.495L532.678 223.733Z" fill="#231F20"/>
<path d="M579.237 127.918L578.88 127.516L584.307 122.577L584.664 122.979L579.237 127.918Z" fill="#231F20"/>
<path d="M440.49 275.152L439.957 275.2L440.874 285.378L441.407 285.33L440.49 275.152Z" fill="#231F20"/>
<path d="M256.049 122.771L255.633 122.503C217.833 97.7344 218.651 80.1214 220.762 73.695C223.201 66.2422 230.249 62.553 235.677 62.8357C247.097 63.4604 254.086 69.2025 256.049 71.0323C257.997 69.2025 264.986 63.4604 276.406 62.8357C281.76 62.553 288.882 66.2422 291.321 73.695C293.433 80.1214 294.25 97.7344 256.465 122.503L256.049 122.771ZM235.067 64.3381C230.309 64.3381 224.331 67.6852 222.205 74.1711C220.212 80.2404 219.543 96.9163 256.049 120.956C292.54 96.9163 291.886 80.2404 289.893 74.1711C287.693 67.4472 281.299 64.0406 276.495 64.353C263.811 65.0522 256.674 72.5347 256.614 72.6091L256.064 73.2041L255.514 72.6091C255.454 72.5347 248.302 65.0522 235.617 64.353C235.439 64.353 235.261 64.353 235.082 64.353L235.067 64.3381Z" fill="#8B9C97"/>
<path d="M315.069 152.79L314.652 152.522C292.615 138.078 293.12 127.709 294.369 123.931C295.827 119.468 300.094 117.207 303.321 117.43C309.656 117.772 313.671 120.807 315.069 122.056C316.481 120.807 320.496 117.787 326.831 117.43C329.998 117.281 334.325 119.468 335.783 123.931C337.032 127.724 337.537 138.078 315.485 152.522L315.069 152.79ZM302.935 118.933C300.288 118.933 296.986 120.792 295.797 124.392C294.667 127.828 294.31 137.245 315.069 150.975C335.827 137.245 335.47 127.828 334.34 124.392C333.106 120.658 329.641 118.739 326.905 118.933C319.708 119.319 315.648 123.559 315.619 123.604L315.069 124.199L314.518 123.604C314.518 123.604 310.429 119.319 303.232 118.933C303.128 118.933 303.039 118.933 302.935 118.933Z" fill="#8B9C97"/>
<path d="M58.3208 301.103L57.9044 300.835C35.8668 286.39 36.3724 276.022 37.6215 272.243C39.0788 267.781 43.3763 265.564 46.5734 265.743C52.8932 266.085 56.923 269.119 58.3208 270.369C59.7334 269.119 63.7484 266.1 70.083 265.743C73.3693 265.549 77.5776 267.795 79.0349 272.243C80.284 276.037 80.7895 286.39 58.7371 300.835L58.3208 301.103ZM46.1867 267.245C43.5398 267.245 40.2387 269.105 39.0491 272.705C37.9189 276.141 37.562 285.557 58.3208 299.288C79.0646 285.572 78.7226 276.141 77.5925 272.705C76.3582 268.971 72.7745 267.096 70.1574 267.245C62.9602 267.632 58.9007 271.871 58.871 271.916L58.3208 272.511L57.7706 271.916C57.7706 271.916 53.6813 267.632 46.4841 267.245C46.38 267.245 46.2908 267.245 46.1867 267.245Z" fill="#8B9C97"/>
<path d="M530.507 618.494C529.362 618.494 527.622 617.334 524.009 614.894C522.522 613.898 520.708 612.693 518.477 611.235L519.146 610.223C521.377 611.666 523.191 612.886 524.693 613.883C528.277 616.278 530.225 617.646 530.73 617.17C533.927 614.284 532.47 597.118 524.529 574.447C515.503 548.607 498.298 515.523 479.547 507.312C473.822 504.798 468.186 504.709 462.818 507.044C457.658 509.276 454.521 512.727 453.495 517.279C449.688 534.178 474.774 562.799 486.834 576.574C489.704 579.847 491.77 582.197 492.752 583.595L491.77 584.295C490.819 582.956 488.663 580.501 485.926 577.377C473.733 563.468 448.379 534.52 452.32 517.026C453.435 512.072 456.811 508.338 462.342 505.943C468.038 503.474 474.015 503.578 480.053 506.211C499.146 514.571 516.157 546.748 525.704 574.06C533.169 595.422 535.682 614.359 531.563 618.093C531.251 618.375 530.924 618.509 530.537 618.509L530.507 618.494Z" fill="#8B9C97"/>
<path d="M549.437 618.866L548.842 617.81C563.177 609.688 571.103 571.04 572.039 566.25L561.72 562.1L574.538 557.101L586.478 459.798L553.541 513.5L562.686 523.928H549.348C546.983 527.38 522.403 563.677 525.674 574.075L524.515 574.447C520.916 563.022 547.4 524.613 548.53 522.991L548.708 522.723H560.01L552.024 513.634L552.262 513.247L588.352 454.413L575.638 557.979L564.991 562.13L573.393 565.506L573.303 565.997C572.976 567.797 565.125 610 549.422 618.896L549.437 618.866Z" fill="#8B9C97"/>
<path d="M531.637 617.944L530.626 617.274C571.058 555.569 573.556 479.42 573.586 478.646L574.79 478.676C574.776 479.435 572.262 555.926 531.637 617.929V617.944Z" fill="#8B9C97"/>
<path d="M507.592 580.992L475.681 529.745L476.707 529.105L508.633 580.353L507.592 580.992Z" fill="#8B9C97"/>
<path d="M522.951 603.073L521.664 603.876L530.483 618.027L531.77 617.224L522.951 603.073Z" fill="#8B9C97"/>
<path d="M577.452 618.301L577.006 617.17C609.81 604.094 622.568 572.141 620.858 554.662C620.219 548.161 617.602 544.011 613.646 543.267C597.928 540.277 569.75 581.572 569.467 581.989L568.456 581.319C569.586 579.653 595.386 541.913 612.025 541.913C612.65 541.913 613.274 541.973 613.869 542.077C618.39 542.925 621.379 547.462 622.063 554.543C623.802 572.394 610.836 605.002 577.452 618.301Z" fill="#8B9C97"/>
<path d="M572.619 618.405L571.623 617.706L611.282 561.505L612.278 562.204L572.619 618.405Z" fill="#8B9C97"/>
<path d="M575.502 573.114L574.344 573.446L582.66 602.476L583.818 602.144L575.502 573.114Z" fill="#8B9C97"/>
<path d="M613.135 585.664L589.221 592.992L589.578 594.159L613.493 586.831L613.135 585.664Z" fill="#8B9C97"/>
<path d="M503.666 619C492.782 619 483.934 610.149 483.934 599.26C483.934 588.371 492.782 579.519 503.666 579.519C514.551 579.519 523.399 588.371 523.399 599.26C523.399 610.149 514.551 619 503.666 619ZM503.666 580.724C493.451 580.724 485.138 589.04 485.138 599.26C485.138 609.479 493.451 617.795 503.666 617.795C513.882 617.795 522.195 609.479 522.195 599.26C522.195 589.04 513.882 580.724 503.666 580.724Z" fill="#8B9C97"/>
<path d="M484.529 606.727C478.729 606.727 474.016 602.012 474.016 596.21C474.016 590.409 478.729 585.693 484.529 585.693C490.328 585.693 495.042 590.409 495.042 596.21C495.042 602.012 490.328 606.727 484.529 606.727ZM484.529 586.898C479.399 586.898 475.22 591.078 475.22 596.21C475.22 601.342 479.399 605.522 484.529 605.522C489.659 605.522 493.837 601.342 493.837 596.21C493.837 591.078 489.659 586.898 484.529 586.898Z" fill="#8B9C97"/>
<path d="M496.648 561.445L495.458 561.163L503.072 529.834L504.247 530.117L496.648 561.445Z" fill="#8B9C97"/>
<path d="M521.302 480.149C513.897 480.149 507.875 474.124 507.875 466.716C507.875 459.307 513.897 453.283 521.302 453.283C528.708 453.283 534.73 459.307 534.73 466.716C534.73 474.124 528.708 480.149 521.302 480.149ZM521.302 454.785C514.73 454.785 509.391 460.141 509.391 466.701C509.391 473.261 514.73 478.616 521.302 478.616C527.875 478.616 533.213 473.276 533.213 466.701C533.213 460.126 527.875 454.785 521.302 454.785Z" fill="#8B9C97"/>
<path d="M645.572 609.643C638.167 609.643 632.145 603.618 632.145 596.21C632.145 588.802 638.167 582.777 645.572 582.777C652.978 582.777 659 588.802 659 596.21C659 603.618 652.978 609.643 645.572 609.643ZM645.572 584.295C639 584.295 633.661 589.635 633.661 596.21C633.661 602.785 639 608.126 645.572 608.126C652.145 608.126 657.483 602.785 657.483 596.21C657.483 589.635 652.145 584.295 645.572 584.295Z" fill="#8B9C97"/>
<path d="M270.384 211.178C262.978 211.178 256.941 205.153 256.941 197.745C256.941 190.337 262.964 184.312 270.384 184.312C277.804 184.312 283.812 190.337 283.812 197.745C283.812 205.153 277.789 211.178 270.384 211.178ZM270.384 185.829C263.811 185.829 258.458 191.17 258.458 197.745C258.458 204.32 263.796 209.661 270.384 209.661C276.971 209.661 282.295 204.32 282.295 197.745C282.295 191.17 276.956 185.829 270.384 185.829Z" fill="#8B9C97"/>
<path d="M285.016 230.754C280.674 230.754 277.15 227.214 277.15 222.87C277.15 218.527 280.689 214.986 285.016 214.986C289.343 214.986 292.897 218.527 292.897 222.87C292.897 227.214 289.358 230.754 285.016 230.754ZM285.016 216.518C281.507 216.518 278.666 219.374 278.666 222.885C278.666 226.396 281.521 229.252 285.016 229.252C288.51 229.252 291.38 226.396 291.38 222.885C291.38 219.374 288.525 216.518 285.016 216.518Z" fill="#8B9C97"/>
<path d="M643.565 395.966H629.988V382.384H628.472V395.966H614.895V397.483H628.472V411.08H629.988V397.483H643.565V395.966Z" fill="#8B9C97"/>
<path d="M96.4179 222.112H82.8415V208.53H81.3247V222.112H67.7483V223.629H81.3247V237.211H82.8415V223.629H96.4179V222.112Z" fill="#8B9C97"/>
<path d="M612.873 348.334H599.296V334.752H597.78V348.334H584.203V349.851H597.78V363.447H599.296V349.851H612.873V348.334Z" fill="#8B9C97"/>
<path d="M442.506 13.5817H428.914V0H427.412V13.5817H413.821V15.099H427.412V28.6807H428.914V15.099H442.506V13.5817Z" fill="#8B9C97"/>
</g>
<defs>
<clipPath id="clip0_649_4538">
<rect width="659" height="619" fill="white"/>
</clipPath>
</defs>
</svg>
