<?xml version="1.0" encoding="UTF-8"?>
<svg id="_圖層_2" data-name="圖層 2" xmlns="http://www.w3.org/2000/svg" viewBox="0 0 57.03 57.03">
  <defs>
    <style>
      .cls-1, .cls-2 {
        fill: #f1edeb;
      }

      .cls-3 {
        fill: #6d5541;
      }

      .cls-2 {
        stroke-linecap: round;
        stroke-linejoin: round;
        stroke-width: .25px;
      }

      .cls-2, .cls-4 {
        stroke: #f1edeb;
      }

      .cls-4 {
        fill: #6b5440;
        stroke-miterlimit: 10;
        stroke-width: .75px;
      }
    </style>
  </defs>
  <g id="_圖層_2-2" data-name="圖層 2">
    <circle class="cls-3" cx="28.52" cy="28.52" r="28.52"/>
    <g>
      <path class="cls-4" d="M38.35,12.59H21.42c-1.27,0-2.31,1.01-2.31,2.25v21c0,.9,.75,1.63,1.67,1.63h7.85c.92,0,1.67-.73,1.67-1.63v-7.29l2.38-.04c4.63,0,7.96-3.39,7.96-7.91v-5.75c0-1.24-1.03-2.25-2.31-2.25Z"/>
      <path class="cls-1" d="M22.21,12.59h4.41v9.16c0,1.56-1.27,2.83-2.83,2.83h-4.41V15.42c0-1.56,1.27-2.83,2.83-2.83Z"/>
      <circle class="cls-1" cx="32.1" cy="17.71" r="1.13"/>
      <path class="cls-1" d="M38.35,12.59h-.86c-.02,.15-.05,.3-.05,.45,0,1.78,1.44,3.22,3.22,3.22v-1.42c0-1.24-1.03-2.25-2.31-2.25Z"/>
      <rect class="cls-1" x="19.12" y="28.38" width="11.19" height="3.25"/>
      <path class="cls-2" d="M30.31,31.63l1.22-1.63h4.31v1.63s-.67,1.12-1.56,1.29-2.38,0-2.38,0l-1.59,1.85v-3.14Z"/>
    </g>
    <g>
      <path class="cls-1" d="M18.11,44.87c-.06-.09-.11-.21-.16-.36-.05-.15-.07-.31-.07-.48,0-.31,.07-.54,.21-.67,.14-.14,.32-.2,.55-.2h5.23c.06,.09,.11,.21,.16,.36,.05,.15,.07,.31,.07,.48,0,.31-.07,.54-.21,.67-.14,.14-.32,.2-.55,.2h-1.33v5.54c-.09,.02-.23,.05-.41,.07-.19,.02-.37,.04-.56,.04s-.35-.01-.49-.04c-.14-.03-.26-.08-.35-.15-.1-.07-.17-.17-.22-.3-.05-.13-.07-.3-.07-.5v-4.66h-1.8Z"/>
      <path class="cls-1" d="M24.45,46.82c0-.62,.1-1.18,.29-1.66,.2-.48,.46-.88,.8-1.21,.34-.32,.74-.57,1.2-.74s.96-.25,1.49-.25,1.03,.08,1.49,.25,.86,.41,1.21,.74c.34,.32,.61,.73,.81,1.21,.2,.48,.29,1.03,.29,1.66s-.1,1.18-.29,1.66-.46,.89-.8,1.21c-.34,.32-.74,.57-1.21,.74-.46,.17-.97,.25-1.51,.25s-1.05-.09-1.51-.26c-.46-.17-.86-.42-1.2-.75s-.6-.73-.79-1.21-.29-1.03-.29-1.64Zm2.16,0c0,.73,.15,1.27,.44,1.63,.3,.36,.69,.54,1.19,.54s.9-.18,1.2-.54c.3-.36,.44-.9,.44-1.63s-.15-1.26-.44-1.62-.69-.54-1.19-.54-.89,.18-1.19,.53c-.3,.36-.45,.9-.45,1.63Z"/>
      <path class="cls-1" d="M35.34,50.42c-.09,.02-.23,.05-.41,.07s-.37,.04-.56,.04-.35-.01-.49-.04-.26-.08-.35-.15c-.1-.07-.17-.17-.22-.3-.05-.13-.07-.3-.07-.5v-5.65c0-.17,.05-.3,.14-.39,.09-.09,.22-.17,.38-.22,.27-.1,.58-.17,.93-.21,.35-.04,.7-.07,1.05-.07,1.1,0,1.95,.24,2.53,.71,.58,.47,.88,1.11,.88,1.92,0,.39-.06,.75-.19,1.06-.12,.32-.31,.59-.55,.82s-.55,.4-.92,.53-.8,.19-1.29,.19h-.85v2.21Zm.62-3.85c.34,0,.59-.08,.77-.23,.18-.16,.27-.39,.27-.71,0-.3-.09-.54-.28-.7s-.46-.25-.82-.25c-.13,0-.23,0-.32,0-.08,0-.17,.01-.26,.03v1.86h.64Z"/>
    </g>
  </g>
</svg>