<svg width="78" height="80" viewBox="0 0 78 80" fill="none" xmlns="http://www.w3.org/2000/svg">
<path d="M13.068 12.8771C16.8452 10.2647 23.309 12.6578 27.5299 18.291C31.7341 23.8891 32.1432 30.5455 28.3828 33.193C24.6568 35.8233 18.1585 33.4474 13.9032 27.8312C9.66455 22.2501 9.32427 15.5596 13.068 12.8771ZM37.6808 0.663996C42.0955 -0.701728 47.0141 3.71703 48.7742 10.5279C50.4478 17.4252 48.3057 24.0885 43.9422 25.4723C39.5443 26.8731 34.6601 22.4372 32.9689 15.5922C31.2264 8.72908 33.3685 2.06576 37.6808 0.663996ZM2.35686 38.1624C5.46034 34.4952 12.2868 34.9717 17.6715 39.0289C22.9344 43.2769 24.8201 49.5479 21.751 53.1981C18.6819 56.8483 11.9066 56.3898 6.55726 52.2282C1.20789 48.0666 -0.625676 41.7263 2.35686 38.1624ZM64.3192 7.41627C68.9098 7.22224 72.6711 12.606 72.5816 19.4664C72.492 26.3269 68.6649 32.0464 63.9542 32.2565C59.2436 32.4667 55.5679 27.0839 55.5374 20.2396C55.7293 13.4152 59.5741 7.64353 64.3192 7.41627ZM76.6281 48.1088C78.3404 51.3401 77.604 56.2206 75.2969 59.0585C70.5086 64.9944 60.3632 62.6483 53.5129 66.0475C46.6626 69.4466 42.2609 79.3151 34.7115 79.1973C30.4484 79.1854 25.8955 75.8007 24.5339 71.7876C22.6576 66.25 27.4794 60.3843 29.3024 54.7476C31.7942 47.3897 30.7975 36.3796 37.7167 32.9462C44.6014 29.53 52.6223 36.881 59.6984 39.6649C65.563 42.0513 73.6567 42.5068 76.6281 48.1088Z" fill="#E7E1DB"/>
</svg>
