<svg width="26" height="24" viewBox="0 0 26 24" fill="none" xmlns="http://www.w3.org/2000/svg">
<g id="icon&#229;&#141;&#128;">
<path id="Vector" d="M20.4371 5.80477L17.2538 1.20645C17.0179 0.866356 16.7043 0.58738 16.339 0.392644C15.9738 0.197907 15.5674 0.0930176 15.1535 0.0866666L9.11246 0H9.1C5.98114 0 3.58816 0.521679 2.04696 3.06768C0.612083 5.43758 0 9.47456 0 16.5661V17.4327H1.98017L0.705467 23.9327H2.47184L3.74655 17.4327H4.33333C5.7488 17.4454 7.11244 16.9007 8.12977 15.9165C9.04946 15.0365 9.71284 13.8326 10.0483 12.435L10.0513 12.4224L11.5378 5.2994H9.76712L8.35992 12.0425C7.93135 13.8127 6.64983 15.6994 4.33333 15.6994H1.73658C1.78365 9.56415 2.34228 5.9267 3.52977 3.96505C4.52644 2.31839 5.98325 1.73388 9.09399 1.73306L15.1286 1.81973C15.2665 1.82183 15.402 1.85678 15.5238 1.9217C15.6455 1.98661 15.7501 2.07961 15.8287 2.19299L19.4296 7.39402L24.2667 8.20024V9.11885L23.46 13.4208C23.222 14.6905 22.815 15.3301 21.1461 15.5306L14.3046 16.7011L14.2593 23.9327H15.9927L16.0288 18.1644L21.375 17.2489C22.5862 17.1 23.4798 16.7097 24.1064 16.056C24.6421 15.4971 24.9682 14.7831 25.1637 13.7403L26 9.27994V6.73189L20.4371 5.80477Z" fill="#5D524D"/>
</g>
</svg>
