<svg width="34" height="35" viewBox="0 0 34 35" fill="none" xmlns="http://www.w3.org/2000/svg">
<g id="material-symbols:add-a-photo-rounded">
<path id="Vector" d="M28.3333 10.4166C27.9319 10.4166 27.5957 10.2806 27.3246 10.0086C27.0536 9.73663 26.9176 9.40041 26.9166 8.99997V7.5833H25.4999C25.0986 7.5833 24.7623 7.4473 24.4913 7.1753C24.2202 6.9033 24.0842 6.56708 24.0833 6.16663C24.0823 5.76619 24.2183 5.42997 24.4913 5.15797C24.7642 4.88597 25.1004 4.74997 25.4999 4.74997H26.9166V3.3333C26.9166 2.93191 27.0526 2.59569 27.3246 2.32463C27.5966 2.05358 27.9328 1.91758 28.3333 1.91663C28.7337 1.91569 29.0704 2.05169 29.3434 2.32463C29.6163 2.59758 29.7518 2.9338 29.7499 3.3333V4.74997H31.1666C31.568 4.74997 31.9047 4.88597 32.1767 5.15797C32.4487 5.42997 32.5842 5.76619 32.5833 6.16663C32.5823 6.56708 32.4463 6.90377 32.1753 7.17672C31.9042 7.44966 31.568 7.58519 31.1666 7.5833H29.7499V8.99997C29.7499 9.40136 29.6139 9.73805 29.3419 10.01C29.0699 10.2821 28.7337 10.4176 28.3333 10.4166ZM15.5833 25.2916C17.3541 25.2916 18.8596 24.6721 20.0996 23.433C21.3397 22.1939 21.9592 20.6884 21.9583 18.9166C21.9573 17.1449 21.3378 15.6399 20.0996 14.4017C18.8615 13.1636 17.356 12.5435 15.5833 12.5416C13.8106 12.5397 12.3056 13.1598 11.0684 14.4017C9.83115 15.6437 9.21112 17.1486 9.20829 18.9166C9.20546 20.6846 9.82548 22.1901 11.0684 23.433C12.3113 24.6759 13.8162 25.2954 15.5833 25.2916ZM15.5833 22.4583C14.5916 22.4583 13.7534 22.1159 13.0687 21.4312C12.384 20.7465 12.0416 19.9083 12.0416 18.9166C12.0416 17.925 12.384 17.0868 13.0687 16.4021C13.7534 15.7173 14.5916 15.375 15.5833 15.375C16.575 15.375 17.4131 15.7173 18.0979 16.4021C18.7826 17.0868 19.125 17.925 19.125 18.9166C19.125 19.9083 18.7826 20.7465 18.0979 21.4312C17.4131 22.1159 16.575 22.4583 15.5833 22.4583ZM4.24996 30.25C3.47079 30.25 2.80401 29.9728 2.24963 29.4184C1.69524 28.864 1.41757 28.1968 1.41663 27.4166V10.4166C1.41663 9.63747 1.69429 8.97069 2.24963 8.4163C2.80496 7.86191 3.47174 7.58424 4.24996 7.5833H8.71246L10.4833 5.6708C10.743 5.38747 11.0561 5.16316 11.4225 4.99788C11.789 4.8326 12.1724 4.74997 12.5729 4.74997H19.8333C20.2347 4.74997 20.5714 4.88597 20.8434 5.15797C21.1154 5.42997 21.2509 5.76619 21.2499 6.16663V8.29163C21.2499 8.88191 21.4568 9.38388 21.8704 9.79755C22.2841 10.2112 22.7856 10.4176 23.3749 10.4166H24.0833V11.125C24.0833 11.7152 24.2901 12.2172 24.7038 12.6309C25.1174 13.0446 25.6189 13.2509 26.2083 13.25H28.3333C28.7347 13.25 29.0714 13.386 29.3434 13.658C29.6154 13.93 29.7509 14.2662 29.7499 14.6666V27.4166C29.7499 28.1958 29.4727 28.8631 28.9184 29.4184C28.364 29.9737 27.6967 30.2509 26.9166 30.25H4.24996Z" fill="#F1EDEB"/>
</g>
</svg>
