<svg width="28" height="28" viewBox="0 0 28 28" fill="none" xmlns="http://www.w3.org/2000/svg">
<g id="icon&#229;&#141;&#128;">
<path id="Vector" d="M12.8335 19.8334H15.1668V12.8334H12.8335V19.8334ZM14.0002 10.5C14.3307 10.5 14.608 10.388 14.832 10.164C15.056 9.94004 15.1676 9.66315 15.1668 9.33337C15.1661 9.0036 15.0541 8.72671 14.8308 8.50271C14.6076 8.27871 14.3307 8.16671 14.0002 8.16671C13.6696 8.16671 13.3927 8.27871 13.1695 8.50271C12.9463 8.72671 12.8343 9.0036 12.8335 9.33337C12.8327 9.66315 12.9447 9.94043 13.1695 10.1652C13.3943 10.39 13.6712 10.5016 14.0002 10.5ZM14.0002 25.6667C12.3863 25.6667 10.8696 25.3603 9.45016 24.7474C8.03072 24.1345 6.796 23.3034 5.746 22.2542C4.696 21.205 3.86494 19.9703 3.25283 18.55C2.64072 17.1298 2.33428 15.6132 2.3335 14C2.33272 12.3869 2.63916 10.8703 3.25283 9.45004C3.8665 8.02982 4.69755 6.7951 5.746 5.74587C6.79444 4.69665 8.02916 3.8656 9.45016 3.25271C10.8712 2.63982 12.3878 2.33337 14.0002 2.33337C15.6125 2.33337 17.1292 2.63982 18.5502 3.25271C19.9712 3.8656 21.2059 4.69665 22.2543 5.74587C23.3028 6.7951 24.1342 8.02982 24.7487 9.45004C25.3631 10.8703 25.6692 12.3869 25.6668 14C25.6645 15.6132 25.3581 17.1298 24.7475 18.55C24.1369 19.9703 23.3059 21.205 22.2543 22.2542C21.2028 23.3034 19.9681 24.1349 18.5502 24.7485C17.1323 25.3622 15.6156 25.6683 14.0002 25.6667ZM14.0002 23.3334C16.6057 23.3334 18.8127 22.4292 20.621 20.6209C22.4293 18.8125 23.3335 16.6056 23.3335 14C23.3335 11.3945 22.4293 9.18754 20.621 7.37921C18.8127 5.57087 16.6057 4.66671 14.0002 4.66671C11.3946 4.66671 9.18766 5.57087 7.37933 7.37921C5.571 9.18754 4.66683 11.3945 4.66683 14C4.66683 16.6056 5.571 18.8125 7.37933 20.6209C9.18766 22.4292 11.3946 23.3334 14.0002 23.3334Z" fill="#5D524D"/>
</g>
</svg>
