<svg width="20" height="20" viewBox="0 0 20 20" fill="none" xmlns="http://www.w3.org/2000/svg">
<g id="mdi:dog">
<path id="Vector" d="M14.9999 3.33337C13.5749 3.33337 12.7083 3.60837 12.2083 3.84171C11.5666 3.52504 10.8333 3.33337 9.99992 3.33337C9.16658 3.33337 8.43325 3.52504 7.79158 3.84171C7.29158 3.60837 6.42492 3.33337 4.99992 3.33337C2.49992 3.33337 0.833252 10 0.833252 11.6667C0.833252 12.3584 1.93325 12.9917 3.44992 13.25C3.98325 15.1167 6.49992 16.5417 9.58325 16.6667V13.1C9.09158 12.7917 8.33325 12.2334 8.33325 11.6667C8.33325 10.8334 9.99992 10.8334 9.99992 10.8334C9.99992 10.8334 11.6666 10.8334 11.6666 11.6667C11.6666 12.2334 10.9083 12.7917 10.4166 13.1V16.6667C13.4999 16.5417 16.0166 15.1167 16.5499 13.25C18.0666 12.9917 19.1666 12.3584 19.1666 11.6667C19.1666 10 17.4999 3.33337 14.9999 3.33337ZM3.45825 11.5584C3.04159 11.4584 2.71659 11.3417 2.49992 11.25C2.70825 8.94171 4.33325 5.33337 5.04158 5.00004C5.49159 5.00004 5.83325 5.05004 6.14158 5.09171C4.39158 7.01671 3.69992 10.0334 3.45825 11.5584ZM7.49992 10C7.2789 10 7.06694 9.91224 6.91066 9.75596C6.75438 9.59968 6.66658 9.38772 6.66658 9.16671C6.66658 8.71671 7.04158 8.33337 7.49992 8.33337C7.72093 8.33337 7.93289 8.42117 8.08917 8.57745C8.24545 8.73373 8.33325 8.94569 8.33325 9.16671C8.33325 9.63337 7.95825 10 7.49992 10ZM12.4999 10C12.2789 10 12.0669 9.91224 11.9107 9.75596C11.7544 9.59968 11.6666 9.38772 11.6666 9.16671C11.6666 8.71671 12.0416 8.33337 12.4999 8.33337C12.7209 8.33337 12.9329 8.42117 13.0892 8.57745C13.2455 8.73373 13.3333 8.94569 13.3333 9.16671C13.3333 9.63337 12.9583 10 12.4999 10ZM16.5416 11.5584C16.2999 10.0334 15.6082 7.01671 13.8582 5.09171C14.1666 5.05004 14.5083 5.00004 14.9583 5.00004C15.6666 5.33337 17.2916 8.94171 17.4999 11.25C17.2916 11.3417 16.9666 11.4584 16.5416 11.5584Z" fill="#5D524D"/>
</g>
</svg>
