<svg width="20" height="20" viewBox="0 0 20 20" fill="none" xmlns="http://www.w3.org/2000/svg">
<g id="icon&#229;&#141;&#128;">
<path id="Vector" fill-rule="evenodd" clip-rule="evenodd" d="M4.65508 3.82171C4.16675 4.31004 4.16675 5.09504 4.16675 6.66671V14.1667C4.16675 15.7384 4.16675 16.5234 4.65508 17.0117C5.14341 17.5 5.92841 17.5 7.50008 17.5H12.5001C14.0717 17.5 14.8567 17.5 15.3451 17.0117C15.8334 16.5234 15.8334 15.7384 15.8334 14.1667V6.66671C15.8334 5.09504 15.8334 4.31004 15.3451 3.82171C14.8567 3.33337 14.0717 3.33337 12.5001 3.33337H7.50008C5.92841 3.33337 5.14341 3.33337 4.65508 3.82171ZM7.50008 6.66671C7.27907 6.66671 7.06711 6.75451 6.91083 6.91079C6.75455 7.06707 6.66675 7.27903 6.66675 7.50004C6.66675 7.72105 6.75455 7.93302 6.91083 8.0893C7.06711 8.24558 7.27907 8.33337 7.50008 8.33337H12.5001C12.7211 8.33337 12.9331 8.24558 13.0893 8.0893C13.2456 7.93302 13.3334 7.72105 13.3334 7.50004C13.3334 7.27903 13.2456 7.06707 13.0893 6.91079C12.9331 6.75451 12.7211 6.66671 12.5001 6.66671H7.50008ZM7.50008 10C7.27907 10 7.06711 10.0878 6.91083 10.2441C6.75455 10.4004 6.66675 10.6124 6.66675 10.8334C6.66675 11.0544 6.75455 11.2663 6.91083 11.4226C7.06711 11.5789 7.27907 11.6667 7.50008 11.6667H12.5001C12.7211 11.6667 12.9331 11.5789 13.0893 11.4226C13.2456 11.2663 13.3334 11.0544 13.3334 10.8334C13.3334 10.6124 13.2456 10.4004 13.0893 10.2441C12.9331 10.0878 12.7211 10 12.5001 10H7.50008ZM7.50008 13.3334C7.27907 13.3334 7.06711 13.4212 6.91083 13.5775C6.75455 13.7337 6.66675 13.9457 6.66675 14.1667C6.66675 14.3877 6.75455 14.5997 6.91083 14.756C7.06711 14.9122 7.27907 15 7.50008 15H10.8334C11.0544 15 11.2664 14.9122 11.4227 14.756C11.579 14.5997 11.6667 14.3877 11.6667 14.1667C11.6667 13.9457 11.579 13.7337 11.4227 13.5775C11.2664 13.4212 11.0544 13.3334 10.8334 13.3334H7.50008Z" fill="#5D524D"/>
</g>
</svg>
