<svg width="18" height="18" viewBox="0 0 18 18" fill="none" xmlns="http://www.w3.org/2000/svg">
<g id="star">
<path id="Vector" d="M15.8337 10.0239L11.1864 14.6721C10.8783 14.9801 10.4604 15.1531 10.0248 15.1531C9.58909 15.1531 9.17125 14.9801 8.86314 14.6721L4.21583 10.0248C3.83166 9.64395 3.5265 9.191 3.31785 8.69193C3.10921 8.19286 3.00119 7.6575 3.00001 7.11657C2.99883 6.57564 3.10449 6.03981 3.31095 5.53983C3.51741 5.03985 3.82059 4.58558 4.20308 4.20308C4.58558 3.82059 5.03985 3.51741 5.53983 3.31095C6.03981 3.10449 6.57564 2.99883 7.11657 3.00001C7.6575 3.00119 8.19286 3.10921 8.69193 3.31785C9.191 3.5265 9.64395 3.83166 10.0248 4.21583C10.7983 3.46157 11.8378 3.04243 12.9182 3.0492C13.9985 3.05597 15.0327 3.4881 15.7967 4.25199C16.5607 5.01589 16.993 6.05002 16.9999 7.13038C17.0068 8.21074 16.5878 9.25032 15.8337 10.0239Z" stroke="#5D524D" stroke-width="1.5" stroke-linecap="round" stroke-linejoin="round"/>
</g>
</svg>
