<svg width="20" height="20" viewBox="0 0 20 20" fill="none" xmlns="http://www.w3.org/2000/svg">
<g id="mdi:coupon">
<path id="Vector" d="M3.33341 3.3335C2.89139 3.3335 2.46746 3.50909 2.1549 3.82165C1.84234 4.13421 1.66675 4.55814 1.66675 5.00016V8.3335C2.10878 8.3335 2.5327 8.50909 2.84526 8.82165C3.15782 9.13421 3.33341 9.55814 3.33341 10.0002C3.33341 10.4422 3.15782 10.8661 2.84526 11.1787C2.5327 11.4912 2.10878 11.6668 1.66675 11.6668V15.0002C1.66675 15.4422 1.84234 15.8661 2.1549 16.1787C2.46746 16.4912 2.89139 16.6668 3.33341 16.6668H16.6667C17.1088 16.6668 17.5327 16.4912 17.8453 16.1787C18.1578 15.8661 18.3334 15.4422 18.3334 15.0002V11.6668C17.8914 11.6668 17.4675 11.4912 17.1549 11.1787C16.8423 10.8661 16.6667 10.4422 16.6667 10.0002C16.6667 9.55814 16.8423 9.13421 17.1549 8.82165C17.4675 8.50909 17.8914 8.3335 18.3334 8.3335V5.00016C18.3334 4.55814 18.1578 4.13421 17.8453 3.82165C17.5327 3.50909 17.1088 3.3335 16.6667 3.3335H3.33341ZM12.9167 5.8335L14.1667 7.0835L7.08342 14.1668L5.83342 12.9168L12.9167 5.8335ZM7.34175 5.86683C8.15842 5.86683 8.81675 6.52516 8.81675 7.34183C8.81675 7.73302 8.66135 8.1082 8.38473 8.38481C8.10811 8.66143 7.73294 8.81683 7.34175 8.81683C6.52508 8.81683 5.86675 8.1585 5.86675 7.34183C5.86675 6.95064 6.02215 6.57546 6.29877 6.29885C6.57538 6.02223 6.95055 5.86683 7.34175 5.86683ZM12.6584 11.1835C13.4751 11.1835 14.1334 11.8418 14.1334 12.6585C14.1334 13.0497 13.978 13.4249 13.7014 13.7015C13.4248 13.9781 13.0496 14.1335 12.6584 14.1335C11.8417 14.1335 11.1834 13.4752 11.1834 12.6585C11.1834 12.2673 11.3388 11.8921 11.6154 11.6155C11.892 11.3389 12.2672 11.1835 12.6584 11.1835Z" fill="#5D524D"/>
</g>
</svg>
