<svg width="76" height="76" viewBox="0 0 76 76" fill="none" xmlns="http://www.w3.org/2000/svg">
<g id="mdi:dog">
<path id="Vector" d="M56.9998 12.6666C51.5848 12.6666 48.2915 13.7116 46.3915 14.5983C43.9532 13.395 41.1665 12.6666 37.9998 12.6666C34.8332 12.6666 32.0465 13.395 29.6082 14.5983C27.7082 13.7116 24.4148 12.6666 18.9998 12.6666C9.49984 12.6666 3.1665 38 3.1665 44.3333C3.1665 46.9616 7.3465 49.3683 13.1098 50.35C15.1365 57.4433 24.6998 62.8583 36.4165 63.3333V49.78C34.5482 48.6083 31.6665 46.4866 31.6665 44.3333C31.6665 41.1666 37.9998 41.1666 37.9998 41.1666C37.9998 41.1666 44.3332 41.1666 44.3332 44.3333C44.3332 46.4866 41.4515 48.6083 39.5832 49.78V63.3333C51.2998 62.8583 60.8632 57.4433 62.8898 50.35C68.6532 49.3683 72.8332 46.9616 72.8332 44.3333C72.8332 38 66.4998 12.6666 56.9998 12.6666ZM13.1415 43.9216C11.5582 43.5416 10.3232 43.0983 9.49984 42.75C10.2915 33.9783 16.4665 20.2666 19.1582 19C20.8682 19 22.1665 19.19 23.3382 19.3483C16.6882 26.6633 14.0598 38.1266 13.1415 43.9216ZM28.4998 38C27.66 38 26.8545 37.6663 26.2607 37.0725C25.6668 36.4786 25.3332 35.6731 25.3332 34.8333C25.3332 33.1233 26.7582 31.6666 28.4998 31.6666C29.3397 31.6666 30.1451 32.0003 30.739 32.5941C31.3329 33.188 31.6665 33.9934 31.6665 34.8333C31.6665 36.6066 30.2415 38 28.4998 38ZM47.4998 38C46.66 38 45.8545 37.6663 45.2607 37.0725C44.6668 36.4786 44.3332 35.6731 44.3332 34.8333C44.3332 33.1233 45.7582 31.6666 47.4998 31.6666C48.3397 31.6666 49.1451 32.0003 49.739 32.5941C50.3329 33.188 50.6665 33.9934 50.6665 34.8333C50.6665 36.6066 49.2415 38 47.4998 38ZM62.8582 43.9216C61.9398 38.1266 59.3115 26.6633 52.6615 19.3483C53.8332 19.19 55.1315 19 56.8415 19C59.5332 20.2666 65.7082 33.9783 66.4998 42.75C65.7082 43.0983 64.4732 43.5416 62.8582 43.9216Z" fill="#B9A399"/>
</g>
</svg>
